<mxfile host="Electron" modified="2024-06-26T15:04:46.881Z" agent="Mozilla/5.0 (Macintosh; Intel Mac OS X 10_15_7) AppleWebKit/537.36 (KHTML, like Gecko) draw.io/24.4.8 Chrome/124.0.6367.207 Electron/30.0.6 Safari/537.36" etag="Ld_p8gBRPaoMcUBhBrjN" version="24.4.8" type="device">
  <diagram id="FbstBVE6JiylST8Hq-xM" name="L2">
    <mxGraphModel dx="3652" dy="2517" grid="0" gridSize="10" guides="1" tooltips="1" connect="1" arrows="1" fold="1" page="1" pageScale="1" pageWidth="1169" pageHeight="827" background="none" math="0" shadow="0">
      <root>
        <mxCell id="0" />
        <mxCell id="1" parent="0" />
        <mxCell id="3gaZ6STzcAwrb1w61FeG-6" value="&lt;b style=&quot;border-color: var(--border-color); color: rgb(0, 112, 242); font-family: arial; font-size: 16px;&quot;&gt;Establish a central inbox with SAP Task Center&lt;/b&gt;" style="text;html=1;align=left;verticalAlign=middle;resizable=0;points=[];autosize=1;strokeColor=none;fillColor=none;fontSize=12;fontColor=#1d2d3e;fontFamily=Helvetica;" parent="1" vertex="1">
          <mxGeometry x="-2319" y="-1631.9999999999998" width="375" height="31" as="geometry" />
        </mxCell>
        <mxCell id="3gaZ6STzcAwrb1w61FeG-27" value="" style="group" parent="1" vertex="1" connectable="0">
          <mxGeometry x="-2315" y="-916" width="641" height="68" as="geometry" />
        </mxCell>
        <mxCell id="3gaZ6STzcAwrb1w61FeG-28" value="&lt;font face=&quot;arial&quot; color=&quot;#475e75&quot;&gt;This BTP Solution Diagram depicts the BTP services setup within a customer&#39;s subaccount for&lt;br&gt;SAP Task Center. It includes user access, key components like SAP Build Work Zone, &lt;br&gt;SAP Cloud Identity Services and other integrated services&lt;br&gt;&lt;/font&gt;" style="text;html=1;align=left;verticalAlign=middle;resizable=0;points=[];autosize=1;strokeColor=none;fillColor=none;fontSize=12;fontColor=#1D2D3E;fontFamily=Helvetica;" parent="3gaZ6STzcAwrb1w61FeG-27" vertex="1">
          <mxGeometry y="13" width="517" height="55" as="geometry" />
        </mxCell>
        <mxCell id="3gaZ6STzcAwrb1w61FeG-29" value="&lt;font face=&quot;arial&quot; color=&quot;#475e75&quot;&gt;&lt;b&gt;Diagram Level: L2&lt;/b&gt;&lt;/font&gt;" style="text;html=1;align=left;verticalAlign=middle;resizable=0;points=[];autosize=1;strokeColor=none;fillColor=none;fontSize=12;fontColor=#1D2D3E;fontFamily=Helvetica;" parent="3gaZ6STzcAwrb1w61FeG-27" vertex="1">
          <mxGeometry y="-4" width="121" height="26" as="geometry" />
        </mxCell>
        <mxCell id="UHaCpyEYQsDfGPqh9ESF-22" value="" style="rounded=0;whiteSpace=wrap;html=1;strokeColor=#eaecee;strokeWidth=1.5;arcSize=16;fillColor=#FFFFFF;perimeterSpacing=0;imageHeight=24;absoluteArcSize=1;points=[];connectable=0;container=0;" parent="1" vertex="1">
          <mxGeometry x="-1510" y="-960.75" width="323" height="114" as="geometry" />
        </mxCell>
        <mxCell id="UHaCpyEYQsDfGPqh9ESF-23" value="&lt;font size=&quot;1&quot; style=&quot;&quot; face=&quot;arial&quot; color=&quot;#1d2d3e&quot;&gt;&lt;b style=&quot;font-size: 12px;&quot;&gt;Legend&lt;/b&gt;&lt;/font&gt;" style="text;html=1;align=left;verticalAlign=top;resizable=0;points=[];autosize=1;strokeColor=none;fillColor=none;fontSize=12;fontColor=default;fontFamily=Helvetica;" parent="1" vertex="1">
          <mxGeometry x="-1489.0017948717948" y="-951.75" width="61" height="26" as="geometry" />
        </mxCell>
        <mxCell id="UHaCpyEYQsDfGPqh9ESF-24" value="&lt;div style=&quot;font-size: 10px; line-height: 100%;&quot;&gt;&lt;span style=&quot;font-family: arial; font-size: 10px; background-color: initial;&quot;&gt;&lt;font style=&quot;font-size: 10px;&quot;&gt;Access&lt;/font&gt;&lt;/span&gt;&lt;/div&gt;" style="text;html=1;align=left;verticalAlign=middle;resizable=0;points=[];autosize=1;strokeColor=none;fillColor=none;fontSize=10;fontColor=#1D2D3E;fontFamily=Helvetica;labelPosition=center;verticalLabelPosition=middle;" parent="1" vertex="1">
          <mxGeometry x="-1470.13" y="-881.75" width="50" height="23" as="geometry" />
        </mxCell>
        <mxCell id="UHaCpyEYQsDfGPqh9ESF-25" value="" style="ellipse;whiteSpace=wrap;html=1;aspect=fixed;strokeColor=none;fillColor=#475E75;fontColor=#475E75;" parent="1" vertex="1">
          <mxGeometry x="-1488.63" y="-877.25" width="16" height="16" as="geometry" />
        </mxCell>
        <mxCell id="UHaCpyEYQsDfGPqh9ESF-26" value="" style="ellipse;whiteSpace=wrap;html=1;aspect=fixed;strokeColor=none;fillColor=#188918;" parent="1" vertex="1">
          <mxGeometry x="-1489" y="-900.25" width="16" height="16" as="geometry" />
        </mxCell>
        <mxCell id="UHaCpyEYQsDfGPqh9ESF-27" value="&lt;div style=&quot;font-size: 10px; line-height: 100%;&quot;&gt;&lt;span style=&quot;font-family: arial; font-size: 10px; background-color: initial;&quot;&gt;&lt;font style=&quot;font-size: 10px;&quot;&gt;Authentication&lt;/font&gt;&lt;/span&gt;&lt;/div&gt;" style="text;html=1;align=left;verticalAlign=middle;resizable=0;points=[];autosize=1;strokeColor=none;fillColor=none;fontSize=10;fontColor=#1D2D3E;fontFamily=Helvetica;labelPosition=center;verticalLabelPosition=middle;" parent="1" vertex="1">
          <mxGeometry x="-1470.5" y="-904.75" width="81" height="23" as="geometry" />
        </mxCell>
        <mxCell id="UHaCpyEYQsDfGPqh9ESF-28" value="" style="ellipse;whiteSpace=wrap;html=1;aspect=fixed;strokeColor=none;fillColor=#7F00FF;fontColor=#475E75;" parent="1" vertex="1">
          <mxGeometry x="-1488.63" y="-923.25" width="16" height="16" as="geometry" />
        </mxCell>
        <mxCell id="UHaCpyEYQsDfGPqh9ESF-29" value="&lt;div style=&quot;font-size: 10px; line-height: 100%;&quot;&gt;&lt;span style=&quot;font-family: arial; font-size: 10px; background-color: initial;&quot;&gt;&lt;font style=&quot;font-size: 10px;&quot;&gt;Provisioning&lt;/font&gt;&lt;/span&gt;&lt;/div&gt;" style="text;html=1;align=left;verticalAlign=middle;resizable=0;points=[];autosize=1;strokeColor=none;fillColor=none;fontSize=10;fontColor=#1D2D3E;fontFamily=Helvetica;labelPosition=center;verticalLabelPosition=middle;" parent="1" vertex="1">
          <mxGeometry x="-1465.3000000000002" y="-927.75" width="72" height="23" as="geometry" />
        </mxCell>
        <mxCell id="UHaCpyEYQsDfGPqh9ESF-33" value="&lt;div style=&quot;font-size: 10px; line-height: 100%;&quot;&gt;&lt;span style=&quot;font-family: arial; font-size: 10px; background-color: initial;&quot;&gt;&lt;font style=&quot;font-size: 10px;&quot;&gt;Flow Step&lt;/font&gt;&lt;/span&gt;&lt;/div&gt;" style="text;html=1;align=left;verticalAlign=middle;resizable=0;points=[];autosize=1;strokeColor=none;fillColor=none;fontSize=10;fontColor=#1D2D3E;fontFamily=Helvetica;labelPosition=center;verticalLabelPosition=middle;" parent="1" vertex="1">
          <mxGeometry x="-1264" y="-883.75" width="62" height="23" as="geometry" />
        </mxCell>
        <mxCell id="UHaCpyEYQsDfGPqh9ESF-35" value="" style="shape=image;verticalLabelPosition=bottom;verticalAlign=top;imageAspect=0;aspect=fixed;image=data:image/svg+xml,PHN2ZyB4bWxucz0iaHR0cDovL3d3dy53My5vcmcvMjAwMC9zdmciIGZpbGw9Im5vbmUiIHZpZXdCb3g9IjAgMCA0OSA0OSIgaGVpZ2h0PSI0OSIgd2lkdGg9IjQ5Ij4mI3hhOzxjaXJjbGUgc3Ryb2tlLXdpZHRoPSIwLjg1NzE0MyIgc3Ryb2tlPSIjRDVEQUREIiBmaWxsPSJ1cmwoI3BhaW50MF9saW5lYXJfMjYyMl8yMDQ3NSkiIHI9IjIzLjU3MTQiIGN5PSIyNC4wMzQ5IiBjeD0iMjQuNSIvPiYjeGE7PHBhdGggZmlsbD0idXJsKCNwYWludDFfcmFkaWFsXzI2MjJfMjA0NzUpIiBkPSJNMjQuMzkzMSAxMi4yMzcxQzIwLjExMDcgMTIuMjM3MSAxNy4wNjgxIDE1LjcyMzEgMTYuNTYxMSAxOS4zNjI1QzE1LjE4MzYgMTkuNDQ0NCAxMy45NjcyIDE5Ljk2MjEgMTMuMDIyNSAyMC44MzE3QzExLjc0NDUgMjIuMDA4MSAxMS4wODQ0IDIzLjcxNTYgMTEuMDg0NCAyNS41MTYzQzExLjA4NDQgMjcuMTg5NyAxMS41OTIgMjguNzcxNSAxMi43MzE2IDI5Ljk0MDlDMTMuNTg2MSAzMC44MTc4IDE0LjcwNzcgMzEuMzcyNCAxNi4wMTcgMzEuNTk4NEMxNi4xMzc2IDMxLjM1MzUgMTYuMjczNSAzMS4xMTY4IDE2LjQyNTIgMzAuODg5MkwxNi40NDEgMzAuODY1NUwxNi40NTQ4IDMwLjg0NjFDMTYuNzA2OSAzMC40OTAxIDE2Ljk5NDggMzAuMTY2IDE3LjMxNjkgMjkuODc2MUMxNy4xODMxIDI5LjQzMTcgMTcuMTE4IDI4Ljk2NDUgMTcuMTE4IDI4LjQ4MzVDMTcuMTE4IDI3Ljg1NDkgMTcuMjM4NiAyNy4yNDEzIDE3LjQ4NDkgMjYuNjU5MkMxNy43MiAyNi4xMDMzIDE4LjA1MTMgMjUuNjAwMSAxOC40ODI0IDI1LjE2OTFDMTguOTE4IDI0LjczMzQgMTkuNDI1IDI0LjM5MTYgMTkuOTkyNiAyNC4xNTE1QzIwLjU3NDcgMjMuOTA1MiAyMS4xODgyIDIzLjc4NDYgMjEuODE2OCAyMy43ODQ2QzIyLjA3NTkgMjMuNzg0NiAyMi4zMzI0IDIzLjgwNTEgMjIuNTg1MyAyMy44NDY0QzIyLjkwNjUgMjMuNjE3OSAyMy4yNTIyIDIzLjQyNTEgMjMuNjIwNCAyMy4yNjkzQzI0LjI4NTEgMjIuOTg4MSAyNC45ODYzIDIyLjg0OTcgMjUuNzA4OSAyMi44NDk3QzI2LjQzMTYgMjIuODQ5NyAyNy4xMzI3IDIyLjk4ODEgMjcuNzk3NSAyMy4yNjkzQzI4LjQ0MzYgMjMuNTQyNyAyOS4wMTc2IDIzLjkzMjYgMjkuNTA0MyAyNC40MzY1QzMwLjAwODIgMjQuOTIzMiAzMC4zOTgxIDI1LjQ5NzIgMzAuNjcxNSAyNi4xNDMzQzMwLjk1MjcgMjYuODA4MSAzMS4wOTExIDI3LjUwOTMgMzEuMDkxMSAyOC4yMzE5QzMxLjA5MTEgMjguOTI1MiAzMC45NjM3IDI5LjU5ODggMzAuNzA1IDMwLjIzOTVDMzEuMTk2OSAzMC42Mjg4IDMxLjYzNDYgMzEuMDg3NyAzMi4wMTUyIDMxLjYxMjdDMzUuMjc5MiAzMS4wNDI2IDM3Ljk5OTkgMjguMzY4IDM3Ljk5OTkgMjQuMzU5MUMzNy45OTk5IDIwLjM3NTEgMzUuMTUyNiAxNy4zMTM1IDMxLjcyNDcgMTYuOTg5N0MzMC4zNTA3IDE0LjE0ODMgMjcuOCAxMi4yMzcxIDI0LjM5MzEgMTIuMjM3MVoiIGNsaXAtcnVsZT0iZXZlbm9kZCIgZmlsbC1ydWxlPSJldmVub2RkIi8+JiN4YTs8cGF0aCBmaWxsPSJ1cmwoI3BhaW50Ml9yYWRpYWxfMjYyMl8yMDQ3NSkiIGQ9Ik0yOC4zMzY4IDMwLjgwNzhDMjkuMzA4MiAzMS4xODk0IDMwLjA5NzQgMzEuODEzOCAzMC43MDQ1IDMyLjY4MTFDMzEuMzExNiAzMy41NDg0IDMxLjYxNTIgMzQuNTI4NSAzMS42MTUyIDM1LjYyMTNWMzcuMTA0NEMzMS42MTUyIDM3LjMxMjUgMzEuNTM3MSAzNy40ODYgMzEuMzgxIDM3LjYyNDdDMzEuMjQyMiAzNy43NjM1IDMxLjA3NzQgMzcuODMyOSAzMC44ODY2IDM3LjgzMjlIMjkuNDAzNkMyOS4xOTU0IDM3LjgzMjkgMjkuMDEzMyAzNy43NjM1IDI4Ljg1NzIgMzcuNjI0N0MyOC43MTg0IDM3LjQ4NiAyOC42NDkgMzcuMzEyNSAyOC42NDkgMzcuMTA0NEMyOC42NDkgMzYuODk2MiAyOC43MTg0IDM2LjcyMjcgMjguODU3MiAzNi41ODRDMjkuMDEzMyAzNi40Mjc5IDI5LjE5NTQgMzYuMzQ5OCAyOS40MDM2IDM2LjM0OThIMzAuMTMyMVYzNS42MjEzQzMwLjEzMjEgMzUuMTE4MiAzMC4wMzY3IDM0LjY0MTIgMjkuODQ1OSAzNC4xOTAyQzI5LjY1NTEgMzMuNzM5MiAyOS4zODYyIDMzLjM0OSAyOS4wMzkzIDMzLjAxOTRDMjguNzA5NyAzMi42NzI1IDI4LjMxOTUgMzIuNDAzNiAyNy44Njg1IDMyLjIxMjhDMjcuNDM0OCAzMi4wMjIgMjYuOTU3OCAzMS45MjY2IDI2LjQzNzUgMzEuOTI2NkgyNC45ODA0QzI0LjQ2IDMxLjkyNjYgMjMuOTc0NCAzMi4wMjIgMjMuNTIzNCAzMi4yMTI4QzIzLjA4OTcgMzIuNDAzNiAyMi42OTk0IDMyLjY3MjUgMjIuMzUyNSAzMy4wMTk0QzIyLjAyMyAzMy4zNDkgMjEuNzYyOCAzMy43MzkyIDIxLjU3MiAzNC4xOTAyQzIxLjM4MTIgMzQuNjQxMiAyMS4yODU4IDM1LjExODIgMjEuMjg1OCAzNS42MjEzVjM2LjM0OThIMjIuMDE0M0MyMi4yMjI0IDM2LjM0OTggMjIuMzk1OSAzNi40Mjc5IDIyLjUzNDcgMzYuNTg0QzIyLjY3MzQgMzYuNzIyNyAyMi43NDI4IDM2Ljg5NjIgMjIuNzQyOCAzNy4xMDQ0QzIyLjc0MjggMzcuMzEyNSAyMi42NzM0IDM3LjQ4NiAyMi41MzQ3IDM3LjYyNDdDMjIuMzk1OSAzNy43NjM1IDIyLjIyMjQgMzcuODMyOSAyMi4wMTQzIDM3LjgzMjlIMjAuNTMxMkMyMC4zNDA0IDM3LjgzMjkgMjAuMTY3IDM3Ljc2MzUgMjAuMDEwOSAzNy42MjQ3QzE5Ljg3MjEgMzcuNDg2IDE5LjgwMjcgMzcuMzEyNSAxOS44MDI3IDM3LjEwNDRMMTkuODAyNyAzNi4wNTAySDE3LjgyMzRDMTcuNjMyOCAzNi4wNTAyIDE3LjQ2MTYgMzUuOTc5NSAxNy4zMTQ2IDM1Ljg0ODhMMTcuMzA3NSAzNS44NDI1QzE3LjE2ODEgMzUuNzAzMSAxNy4wOTk4IDM1LjUyNzEgMTcuMDk5OCAzNS4zMjY1VjM0LjE4MjdDMTcuMDk5OCAzMy43MzkyIDE3LjE2MjEgMzMuMzIxIDE3LjI4ODEgMzIuOTI5MUwxNy4yODkyIDMyLjkyNTlDMTcuNDI3MiAzMi41MjU2IDE3LjYwNzEgMzIuMTU4NiAxNy44MjkzIDMxLjgyNTNMMTcuODMxOCAzMS44MjE1QzE4LjA2NzggMzEuNDg4MyAxOC4zNDU4IDMxLjE5NjQgMTguNjY1MiAzMC45NDYxQzE4LjkyNDIgMzAuNzMyNCAxOS4yMDU5IDMwLjU1NSAxOS41MTAxIDMwLjQxNEMxOS4wMzk4IDI5Ljg4ODUgMTguODA1NSAyOS4yNDE5IDE4LjgwNTUgMjguNDgzNUMxOC44MDU1IDI4LjA3NDUgMTguODgzMiAyNy42ODUxIDE5LjAzOSAyNy4zMTY3QzE5LjE5MzkgMjYuOTUwNyAxOS40MDYgMjYuNjMyIDE5LjY3NTYgMjYuMzYyM0MxOS45NTc5IDI2LjA4MDEgMjAuMjgzIDI1Ljg2MDkgMjAuNjUwMSAyNS43MDU2QzIxLjAxODQgMjUuNTQ5OCAyMS40MDc4IDI1LjQ3MjEgMjEuODE2OCAyNS40NzIxQzIyLjIyNTkgMjUuNDcyMSAyMi42MTUyIDI1LjU0OTggMjIuOTgzNiAyNS43MDU2TDIzLjAwMDggMjUuNzEzQzIzLjAyNzEgMjUuNjg0OSAyMy4wNTM4IDI1LjY1NzMgMjMuMDgxIDI1LjYzQzIzLjQyOCAyNS4yODMxIDIzLjgyNjkgMjUuMDE0MiAyNC4yNzc5IDI0LjgyMzRDMjQuNzI4OSAyNC42MzI2IDI1LjIwNTkgMjQuNTM3MiAyNS43MDg5IDI0LjUzNzJDMjYuMjEyIDI0LjUzNzIgMjYuNjg5IDI0LjYzMjYgMjcuMTQgMjQuODIzNEMyNy41OTA5IDI1LjAxNDIgMjcuOTgxMiAyNS4yODMxIDI4LjMxMDggMjUuNjNDMjguNjU3NyAyNS45NTk2IDI4LjkyNjYgMjYuMzQ5OSAyOS4xMTc0IDI2LjgwMDlDMjkuMzA4MiAyNy4yNTE5IDI5LjQwMzYgMjcuNzI4OSAyOS40MDM2IDI4LjIzMTlDMjkuNDAzNiAyOC43MzQ5IDI5LjMwODIgMjkuMjEyIDI5LjExNzQgMjkuNjYzQzI4LjkyNjYgMzAuMDk2NiAyOC42NjY0IDMwLjQ3ODIgMjguMzM2OCAzMC44MDc4Wk0yMC4wMzY5IDM0LjA2MDFDMTkuOTgyMiAzNC4yMzAxIDE5LjkzNzIgMzQuNDA0MyAxOS45MDE3IDM0LjU4MjdIMTguNTY3MlYzNC4xODI3QzE4LjU2NzIgMzMuODE1NyAxOC42MzY3IDMzLjQ2OTMgMTguNzc1MiAzMy4xNDJDMTguOTE0NiAzMi44MTI0IDE5LjEwMzkgMzIuNTI5IDE5LjM0MjYgMzIuMjkwM0MxOS41OTYyIDMyLjAzNjcgMTkuODgwMyAzMS44NDEyIDIwLjE5NTMgMzEuNzAyNEMyMC41MjE2IDMxLjU2NDUgMjAuODc0MyAzMS40OTQ5IDIxLjI1NDkgMzEuNDk0OUgyMS44NzA4QzIxLjgzMTUgMzEuNTI1NCAyMS43OTI2IDMxLjU1NjYgMjEuNzU0MSAzMS41ODg0QzIxLjM1NTEgMzEuOTAwNiAyMS4wMDgyIDMyLjI2NDggMjAuNzEzNCAzMi42ODExQzIwLjQzNTggMzMuMDk3NCAyMC4yMTAzIDMzLjU1NzEgMjAuMDM2OSAzNC4wNjAxWk0yNS43MDg5IDI2LjAyMDNDMjUuMTAxOCAyNi4wMjAzIDI0LjU4MTUgMjYuMjM3MSAyNC4xNDc4IDI2LjY3MDhDMjMuNzE0MiAyNy4xMDQ0IDIzLjQ5NzMgMjcuNjI0OCAyMy40OTczIDI4LjIzMTlDMjMuNDk3MyAyOC44MzkgMjMuNzE0MiAyOS4zNTk0IDI0LjE0NzggMjkuNzkzQzI0LjU4MTUgMzAuMjI2NyAyNS4xMDE4IDMwLjQ0MzUgMjUuNzA4OSAzMC40NDM1QzI2LjMxNiAzMC40NDM1IDI2LjgzNjQgMzAuMjI2NyAyNy4yNyAyOS43OTNDMjcuNzAzNyAyOS4zNTk0IDI3LjkyMDUgMjguODM5IDI3LjkyMDUgMjguMjMxOUMyNy45MjA1IDI3LjYyNDggMjcuNzAzNyAyNy4xMDQ0IDI3LjI3IDI2LjY3MDhDMjYuODM2NCAyNi4yMzcxIDI2LjMxNiAyNi4wMjAzIDI1LjcwODkgMjYuMDIwM1pNMjIuMDE0MyAyOC4yMzE5QzIyLjAxNDMgMjguODU5NiAyMi4xNDM2IDI5LjQyMTEgMjIuNDAyMyAyOS45MTYzQzIyLjIyMjMgMjkuOTkwNiAyMi4wMjc1IDMwLjAyNzQgMjEuODE2OCAzMC4wMjc0QzIxLjM5MiAzMC4wMjc0IDIxLjAzMTcgMjkuODc3NiAyMC43MjcyIDI5LjU3MzFDMjAuNDIyOCAyOS4yNjg3IDIwLjI3MjkgMjguOTA4MyAyMC4yNzI5IDI4LjQ4MzVDMjAuMjcyOSAyOC4wNTg3IDIwLjQyMjggMjcuNjk4MyAyMC43MjcyIDI3LjM5MzlDMjEuMDMxNyAyNy4wODk0IDIxLjM5MiAyNi45Mzk2IDIxLjgxNjggMjYuOTM5NkMyMS45NjA1IDI2LjkzOTYgMjIuMDk2OSAyNi45NTY3IDIyLjIyNjIgMjYuOTkxMkMyMi4wODQ5IDI3LjM4NTUgMjIuMDE0MyAyNy43OTkxIDIyLjAxNDMgMjguMjMxOVoiIGNsaXAtcnVsZT0iZXZlbm9kZCIgZmlsbC1ydWxlPSJldmVub2RkIi8+JiN4YTs8ZGVmcz4mI3hhOzxsaW5lYXJHcmFkaWVudCBncmFkaWVudFVuaXRzPSJ1c2VyU3BhY2VPblVzZSIgeTI9IjQ0LjI3OTIiIHgyPSI0MS41NjQ1IiB5MT0iNi44NDc3NSIgeDE9IjQuODUyODciIGlkPSJwYWludDBfbGluZWFyXzI2MjJfMjA0NzUiPiYjeGE7PHN0b3Agc3RvcC1jb2xvcj0id2hpdGUiLz4mI3hhOzxzdG9wIHN0b3AtY29sb3I9IiNFQUVDRUUiIG9mZnNldD0iMSIvPiYjeGE7PC9saW5lYXJHcmFkaWVudD4mI3hhOzxyYWRpYWxHcmFkaWVudCBncmFkaWVudFRyYW5zZm9ybT0idHJhbnNsYXRlKDE1LjI1ODMgMTUuOTk1NCkgcm90YXRlKDQzLjg3NzkpIHNjYWxlKDI1Ljg1MjQgNDguODExNykiIGdyYWRpZW50VW5pdHM9InVzZXJTcGFjZU9uVXNlIiByPSIxIiBjeT0iMCIgY3g9IjAiIGlkPSJwYWludDFfcmFkaWFsXzI2MjJfMjA0NzUiPiYjeGE7PHN0b3Agc3RvcC1jb2xvcj0iIzAxOTVGRiIvPiYjeGE7PHN0b3Agc3RvcC1jb2xvcj0iIzExNDdFOSIgb2Zmc2V0PSIxIi8+JiN4YTs8L3JhZGlhbEdyYWRpZW50PiYjeGE7PHJhZGlhbEdyYWRpZW50IGdyYWRpZW50VHJhbnNmb3JtPSJ0cmFuc2xhdGUoMTUuMjUyMiAxNi4wODc2KSByb3RhdGUoNDMuNTYwMikgc2NhbGUoMjUuODcyNyAyMy41NDcxKSIgZ3JhZGllbnRVbml0cz0idXNlclNwYWNlT25Vc2UiIHI9IjEiIGN5PSIwIiBjeD0iMCIgaWQ9InBhaW50Ml9yYWRpYWxfMjYyMl8yMDQ3NSI+JiN4YTs8c3RvcCBzdG9wLWNvbG9yPSIjMTM0OEZGIi8+JiN4YTs8c3RvcCBzdG9wLWNvbG9yPSIjMDYyMzhEIiBvZmZzZXQ9IjEiLz4mI3hhOzwvcmFkaWFsR3JhZGllbnQ+JiN4YTs8L2RlZnM+JiN4YTs8L3N2Zz4=;points=[[0,0,0,0,0],[0,0.25,0,0,0],[0,0.5,0,0,0],[0,0.75,0,0,0],[0.25,0,0,0,0],[0.5,0,0,0,0],[0.75,0,0,0,0],[1,0,0,0,0],[1,0.25,0,0,0],[1,0.5,0,0,0],[1,0.75,0,0,0]];" parent="1" vertex="1">
          <mxGeometry x="-1389.5" y="-923.25" width="16" height="16" as="geometry" />
        </mxCell>
        <mxCell id="UHaCpyEYQsDfGPqh9ESF-36" value="&lt;p style=&quot;line-height: 100%;&quot;&gt;&lt;b&gt;&lt;font face=&quot;arial black&quot; style=&quot;font-size: 8px;&quot; color=&quot;#ffffff&quot;&gt;1&lt;/font&gt;&lt;/b&gt;&lt;/p&gt;" style="ellipse;whiteSpace=wrap;html=1;aspect=fixed;rotation=0;gradientColor=#0057D2;strokeColor=none;gradientDirection=east;fillColor=#2395FF;rounded=0;pointerEvents=0;fontFamily=Helvetica;fontSize=12;fontColor=default;spacingTop=4;spacingBottom=4;spacingLeft=4;spacingRight=4;verticalAlign=middle;" parent="1" vertex="1">
          <mxGeometry x="-1292" y="-879.25" width="17.5" height="17.5" as="geometry" />
        </mxCell>
        <mxCell id="UHaCpyEYQsDfGPqh9ESF-37" value="&lt;div style=&quot;font-size: 10px; line-height: 100%;&quot;&gt;&lt;span style=&quot;font-family: arial; font-size: 10px; background-color: initial;&quot;&gt;&lt;font style=&quot;font-size: 10px;&quot;&gt;Service&lt;/font&gt;&lt;/span&gt;&lt;/div&gt;" style="text;html=1;align=left;verticalAlign=middle;resizable=0;points=[];autosize=1;strokeColor=none;fillColor=none;fontSize=10;fontColor=#1D2D3E;fontFamily=Helvetica;labelPosition=center;verticalLabelPosition=middle;" parent="1" vertex="1">
          <mxGeometry x="-1365.5" y="-927.75" width="51" height="23" as="geometry" />
        </mxCell>
        <mxCell id="UHaCpyEYQsDfGPqh9ESF-38" value="" style="endArrow=blockThin;html=1;strokeColor=#188918;bendable=1;rounded=0;endFill=1;endSize=4;strokeWidth=1.5;startSize=4;startArrow=blockThin;startFill=1;entryX=0.04;entryY=0.52;entryDx=0;entryDy=0;entryPerimeter=0;" parent="1" edge="1">
          <mxGeometry width="50" height="50" relative="1" as="geometry">
            <mxPoint x="-1295" y="-918.97" as="sourcePoint" />
            <mxPoint x="-1273" y="-918.97" as="targetPoint" />
            <Array as="points" />
          </mxGeometry>
        </mxCell>
        <mxCell id="UHaCpyEYQsDfGPqh9ESF-39" value="&lt;div style=&quot;font-size: 10px; line-height: 100%;&quot;&gt;&lt;span style=&quot;font-family: arial; font-size: 10px; background-color: initial;&quot;&gt;&lt;font style=&quot;font-size: 10px;&quot;&gt;Mutual Trust&lt;/font&gt;&lt;/span&gt;&lt;/div&gt;" style="text;html=1;align=left;verticalAlign=middle;resizable=0;points=[];autosize=1;strokeColor=none;fillColor=none;fontSize=10;fontColor=#1D2D3E;fontFamily=Helvetica;labelPosition=center;verticalLabelPosition=middle;" parent="1" vertex="1">
          <mxGeometry x="-1264" y="-931.25" width="73" height="23" as="geometry" />
        </mxCell>
        <mxCell id="UHaCpyEYQsDfGPqh9ESF-40" value="" style="endArrow=none;html=1;strokeColor=#188918;bendable=1;rounded=0;endFill=0;endSize=3;strokeWidth=1.5;dashed=1;" parent="1" edge="1">
          <mxGeometry width="50" height="50" relative="1" as="geometry">
            <mxPoint x="-1272.75" y="-894.28" as="sourcePoint" />
            <mxPoint x="-1293.75" y="-894.28" as="targetPoint" />
            <Array as="points" />
          </mxGeometry>
        </mxCell>
        <mxCell id="UHaCpyEYQsDfGPqh9ESF-41" value="&lt;div style=&quot;font-size: 10px; line-height: 100%;&quot;&gt;&lt;span style=&quot;font-family: arial; font-size: 10px; background-color: initial;&quot;&gt;&lt;font style=&quot;font-size: 10px;&quot;&gt;Optional&lt;/font&gt;&lt;/span&gt;&lt;/div&gt;" style="text;html=1;align=left;verticalAlign=middle;resizable=0;points=[];autosize=1;strokeColor=none;fillColor=none;fontSize=10;fontColor=#1D2D3E;fontFamily=Helvetica;labelPosition=center;verticalLabelPosition=middle;" parent="1" vertex="1">
          <mxGeometry x="-1264" y="-907.25" width="55" height="23" as="geometry" />
        </mxCell>
        <mxCell id="UHaCpyEYQsDfGPqh9ESF-42" value="&lt;li&gt;&lt;p&gt;&lt;br&gt;&lt;/p&gt;&lt;/li&gt;" style="text;whiteSpace=wrap;html=1;" parent="1" vertex="1">
          <mxGeometry x="-490.001818181818" y="-1588.000303030303" width="550" height="502" as="geometry" />
        </mxCell>
        <mxCell id="UHaCpyEYQsDfGPqh9ESF-43" value="" style="rounded=0;whiteSpace=wrap;html=1;strokeColor=none;strokeWidth=1.5;arcSize=16;fillColor=#F5F6F7;perimeterSpacing=0;imageHeight=24;absoluteArcSize=1;points=[];connectable=0;container=0;" parent="1" vertex="1">
          <mxGeometry x="-1150" y="-1618.75" width="526" height="517.75" as="geometry" />
        </mxCell>
        <mxCell id="UHaCpyEYQsDfGPqh9ESF-44" value="&lt;h1&gt;Flow&lt;/h1&gt;&lt;ul&gt;&lt;li style=&quot;border-color: var(--border-color);&quot;&gt;SAP Cloud Identity Services handle identity management and authentication for SAP Task Center, allowing secure authentication and user provision.&lt;/li&gt;&lt;li style=&quot;border-color: var(--border-color);&quot;&gt;&lt;p style=&quot;border-color: var(--border-color);&quot;&gt;Each task provider integrated with SAP Task Center must work with Identity Authentication. User entries must include essential data; sign-on should be set between the task provider and Identity Authentication, and tasks must correlate with the Global User ID.&lt;/p&gt;&lt;/li&gt;&lt;li style=&quot;border-color: var(--border-color);&quot;&gt;&lt;p style=&quot;border-color: var(--border-color);&quot;&gt;SAP Task Center interacts with task provider apps via predefined destinations in a customer&#39;s subaccount.&lt;/p&gt;&lt;/li&gt;&lt;li style=&quot;border-color: var(--border-color);&quot;&gt;&lt;p style=&quot;border-color: var(--border-color);&quot;&gt;Integration with SAP S/4HANA on-premise / privat cloud for receiving tasks in SAP Task Center requires the setup of the SAP Cloud Connector.&lt;/p&gt;&lt;/li&gt;&lt;li style=&quot;border-color: var(--border-color);&quot;&gt;&lt;p style=&quot;border-color: var(--border-color);&quot;&gt;End users access SAP Task Center through various clients, including the SAP Task Center Web app and To-Dos in SAP Mobile Start or SAP Start.&lt;/p&gt;&lt;/li&gt;&lt;/ul&gt;" style="text;html=1;strokeColor=none;fillColor=none;spacing=5;spacingTop=-20;whiteSpace=wrap;overflow=hidden;rounded=0;" parent="1" vertex="1">
          <mxGeometry x="-1129" y="-1606" width="469" height="479" as="geometry" />
        </mxCell>
        <mxCell id="UHaCpyEYQsDfGPqh9ESF-45" value="&lt;p style=&quot;line-height: 100%; font-size: 12px;&quot;&gt;&lt;b style=&quot;font-size: 12px;&quot;&gt;&lt;font face=&quot;arial black&quot; style=&quot;font-size: 12px;&quot; color=&quot;#ffffff&quot;&gt;1&lt;/font&gt;&lt;/b&gt;&lt;/p&gt;" style="ellipse;whiteSpace=wrap;html=1;aspect=fixed;rotation=0;gradientColor=#0057D2;strokeColor=none;gradientDirection=east;fillColor=#2395FF;rounded=0;pointerEvents=0;fontFamily=Helvetica;fontSize=12;fontColor=default;spacingTop=4;spacingBottom=4;spacingLeft=4;spacingRight=4;verticalAlign=middle;container=0;" parent="1" vertex="1">
          <mxGeometry x="-1129" y="-1559" width="22" height="22" as="geometry" />
        </mxCell>
        <mxCell id="UHaCpyEYQsDfGPqh9ESF-46" value="&lt;p style=&quot;line-height: 100%; font-size: 12px;&quot;&gt;&lt;font face=&quot;arial black&quot; color=&quot;#ffffff&quot; style=&quot;font-size: 12px;&quot;&gt;&lt;b style=&quot;font-size: 12px;&quot;&gt;2&lt;/b&gt;&lt;/font&gt;&lt;/p&gt;" style="ellipse;whiteSpace=wrap;html=1;aspect=fixed;rotation=0;gradientColor=#0057D2;strokeColor=none;gradientDirection=east;fillColor=#2395FF;rounded=0;pointerEvents=0;fontFamily=Helvetica;fontSize=12;fontColor=default;spacingTop=4;spacingBottom=4;spacingLeft=4;spacingRight=4;verticalAlign=middle;container=0;" parent="1" vertex="1">
          <mxGeometry x="-1129" y="-1517" width="22" height="22" as="geometry" />
        </mxCell>
        <mxCell id="UHaCpyEYQsDfGPqh9ESF-47" value="&lt;p style=&quot;line-height: 100%; font-size: 12px;&quot;&gt;&lt;b style=&quot;font-size: 12px;&quot;&gt;&lt;font face=&quot;arial black&quot; style=&quot;font-size: 12px;&quot; color=&quot;#ffffff&quot;&gt;3&lt;/font&gt;&lt;/b&gt;&lt;/p&gt;" style="ellipse;whiteSpace=wrap;html=1;aspect=fixed;rotation=0;gradientColor=#0057D2;strokeColor=none;gradientDirection=east;fillColor=#2395FF;rounded=0;pointerEvents=0;fontFamily=Helvetica;fontSize=12;fontColor=default;spacingTop=4;spacingBottom=4;spacingLeft=4;spacingRight=4;verticalAlign=middle;container=0;" parent="1" vertex="1">
          <mxGeometry x="-1129" y="-1449" width="22" height="22" as="geometry" />
        </mxCell>
        <mxCell id="UHaCpyEYQsDfGPqh9ESF-48" value="&lt;p style=&quot;line-height: 100%; font-size: 12px;&quot;&gt;&lt;b style=&quot;font-size: 12px;&quot;&gt;&lt;font face=&quot;arial black&quot; style=&quot;font-size: 12px;&quot; color=&quot;#ffffff&quot;&gt;4&lt;/font&gt;&lt;/b&gt;&lt;/p&gt;" style="ellipse;whiteSpace=wrap;html=1;aspect=fixed;rotation=0;gradientColor=#0057D2;strokeColor=none;gradientDirection=east;fillColor=#2395FF;rounded=0;pointerEvents=0;fontFamily=Helvetica;fontSize=12;fontColor=default;spacingTop=4;spacingBottom=4;spacingLeft=4;spacingRight=4;verticalAlign=middle;container=0;" parent="1" vertex="1">
          <mxGeometry x="-1129" y="-1406" width="22" height="22" as="geometry" />
        </mxCell>
        <mxCell id="UHaCpyEYQsDfGPqh9ESF-49" value="&lt;p style=&quot;line-height: 100%; font-size: 12px;&quot;&gt;&lt;b style=&quot;font-size: 12px;&quot;&gt;&lt;font face=&quot;arial black&quot; style=&quot;font-size: 12px;&quot; color=&quot;#ffffff&quot;&gt;5&lt;/font&gt;&lt;/b&gt;&lt;/p&gt;" style="ellipse;whiteSpace=wrap;html=1;aspect=fixed;rotation=0;gradientColor=#0057D2;strokeColor=none;gradientDirection=east;fillColor=#2395FF;rounded=0;pointerEvents=0;fontFamily=Helvetica;fontSize=12;fontColor=default;spacingTop=4;spacingBottom=4;spacingLeft=4;spacingRight=4;verticalAlign=middle;container=0;" parent="1" vertex="1">
          <mxGeometry x="-1129" y="-1366" width="22" height="22" as="geometry" />
        </mxCell>
        <mxCell id="UHaCpyEYQsDfGPqh9ESF-52" value="" style="group" parent="1" vertex="1" connectable="0">
          <mxGeometry x="-2228" y="-1483" width="973.5" height="443.31999999999994" as="geometry" />
        </mxCell>
        <mxCell id="lW-khkvEi3QtTLm4Eyx4-4" value="" style="rounded=1;whiteSpace=wrap;html=1;strokeColor=#0070F2;strokeWidth=1.5;arcSize=16;fillColor=#FFFFFF;perimeterSpacing=0;absoluteArcSize=1;" parent="UHaCpyEYQsDfGPqh9ESF-52" vertex="1">
          <mxGeometry x="799" y="2" width="153" height="153.12" as="geometry" />
        </mxCell>
        <mxCell id="lW-khkvEi3QtTLm4Eyx4-5" value="&lt;p style=&quot;line-height: 110%;&quot;&gt;&lt;font face=&quot;arial&quot; style=&quot;font-size: 16px;&quot;&gt;&lt;b style=&quot;font-size: 16px;&quot;&gt;SAP On-Premise &lt;br&gt;Solutions&lt;/b&gt;&lt;/font&gt;&lt;/p&gt;" style="text;html=1;align=left;verticalAlign=middle;resizable=0;points=[];autosize=1;strokeColor=none;fillColor=none;fontSize=12;fontColor=#1d2d3e;fontFamily=Helvetica;" parent="UHaCpyEYQsDfGPqh9ESF-52" vertex="1">
          <mxGeometry x="808.0699999999999" y="26.12000000000012" width="145" height="66" as="geometry" />
        </mxCell>
        <mxCell id="lW-khkvEi3QtTLm4Eyx4-6" value="" style="shape=image;verticalLabelPosition=bottom;labelBackgroundColor=default;verticalAlign=top;aspect=fixed;imageAspect=0;image=data:image/svg+xml,PHN2ZyB4bWxucz0iaHR0cDovL3d3dy53My5vcmcvMjAwMC9zdmciIGZpbGw9Im5vbmUiIHZpZXdCb3g9IjAgMCAxNiAxNyIgaGVpZ2h0PSIxNyIgd2lkdGg9IjE2Ij4mI3hhOzxwYXRoIGZpbGw9InVybCgjcGFpbnQwX2xpbmVhcl83MjRfMTIpIiBkPSJNMTQuMzMzNSA1LjgzNDk0QzE0LjU4MzUgNi4wODQ5NCAxNC43ODE0IDYuMzc2NjEgMTQuOTI3MiA2LjcwOTk0QzE1LjA5MzkgNy4wMjI0NCAxNS4xNzcyIDcuMzY2MTkgMTUuMTc3MiA3Ljc0MTE5VjE0LjQyODdDMTUuMTc3MiAxNS4xMzcgMTQuOTM3NiAxNS43MjA0IDE0LjQ1ODUgMTYuMTc4N0MxMy45NzkzIDE2LjY1NzkgMTMuMzg1NSAxNi44OTc1IDEyLjY3NzIgMTYuODk3NUgyLjc3MDk0QzIuMDgzNDQgMTYuODk3NSAxLjUwMDExIDE2LjY1NzkgMS4wMjA5NCAxNi4xNzg3QzAuNTQxNzY4IDE1LjcyMDQgMC4zMDIxODUgMTUuMTM3IDAuMzAyMTg1IDE0LjQyODdWNy43NDExOUMwLjMwMjE4NSA2Ljk0OTUyIDAuNTgzNDM1IDYuMzE0MTEgMS4xNDU5NCA1LjgzNDk0TDYuMDgzNDQgMS41NTM2OUM2LjU4MzQ0IDEuMTM3MDIgNy4xNDU5NCAwLjkyODY4OCA3Ljc3MDk0IDAuOTI4Njg4QzguMzk1OTQgMC45Mjg2ODggOC45Mzc2MSAxLjEzNzAyIDkuMzk1OTQgMS41NTM2OUwxNC4zMzM1IDUuODM0OTRaTTguOTg5NjkgMTAuMzAzN0g2LjQ4OTY5VjE1LjI3MjVIOC45ODk2OVYxMC4zMDM3Wk0xMy40MjcyIDcuNzQxMTlDMTMuNDI3MiA3LjQ3MDM2IDEzLjM0MzkgNy4yNTE2MSAxMy4xNzcyIDcuMDg0OTRMOC4yMzk2OSAyLjgwMzY5QzcuODg1NTIgMi41MzI4NiA3LjUyMDk0IDIuNTMyODYgNy4xNDU5NCAyLjgwMzY5TDIuMjA4NDQgNy4wODQ5NEMyLjA0MTc3IDcuMjUxNjEgMS45NTg0NCA3LjQ3MDM2IDEuOTU4NDQgNy43NDExOVYxNC40Mjg3QzEuOTU4NDQgMTQuNjc4NyAyLjAzMTM2IDE0Ljg4NyAyLjE3NzE5IDE1LjA1MzdDMi4zNDM4NiAxNS4xOTk1IDIuNTQxNzcgMTUuMjcyNSAyLjc3MDk0IDE1LjI3MjVINC44MzM0NFYxMC4zMDM3QzQuODMzNDQgOS44NDUzNiA0Ljk4OTY5IDkuNDU5OTQgNS4zMDIxOSA5LjE0NzQ0QzUuNjM1NTIgOC44MTQxMSA2LjAzMTM2IDguNjQ3NDQgNi40ODk2OSA4LjY0NzQ0SDguOTg5NjlDOS40NDgwMiA4LjY0NzQ0IDkuODMzNDkgOC44MTQxMSAxMC4xNDU5IDkuMTQ3NDRDMTAuNDU4NSA5LjQ1OTk0IDEwLjYxNDcgOS44NDUzNiAxMC42MTQ3IDEwLjMwMzdWMTUuMjcyNUgxMi42NzcyQzEyLjkyNzIgMTUuMjcyNSAxMy4xMjUxIDE1LjE5OTUgMTMuMjcwOSAxNS4wNTM3QzEzLjQzNzYgMTQuODg3IDEzLjUyMDkgMTQuNjc4NyAxMy41MjA5IDE0LjQyODdMMTMuNDI3MiA3Ljc0MTE5WiIvPiYjeGE7PGRlZnM+JiN4YTs8bGluZWFyR3JhZGllbnQgZ3JhZGllbnRVbml0cz0idXNlclNwYWNlT25Vc2UiIHkyPSI5Ljg1NDkiIHgyPSIxNS44MTkzIiB5MT0iMi40MzA4NCIgeDE9IjIuMjI0NjQiIGlkPSJwYWludDBfbGluZWFyXzcyNF8xMiI+JiN4YTs8c3RvcCBzdG9wLWNvbG9yPSIjMjM5NUZGIi8+JiN4YTs8c3RvcCBzdG9wLWNvbG9yPSIjMDA1N0QyIiBvZmZzZXQ9IjEiLz4mI3hhOzwvbGluZWFyR3JhZGllbnQ+JiN4YTs8L2RlZnM+JiN4YTs8L3N2Zz4=;strokeWidth=1.5;" parent="UHaCpyEYQsDfGPqh9ESF-52" vertex="1">
          <mxGeometry x="809.8899999999999" y="9.620000000000118" width="26.36" height="28" as="geometry" />
        </mxCell>
        <mxCell id="lW-khkvEi3QtTLm4Eyx4-7" value="&lt;span style=&quot;font-family: Helvetica; font-style: normal; font-variant-ligatures: normal; font-variant-caps: normal; font-weight: 700; letter-spacing: normal; orphans: 2; text-indent: 0px; text-transform: none; widows: 2; word-spacing: 0px; -webkit-text-stroke-width: 0px; text-decoration-thickness: initial; text-decoration-style: initial; text-decoration-color: initial; float: none; font-size: 10px; display: inline !important;&quot;&gt;&lt;font style=&quot;font-size: 10px;&quot;&gt;SAP S/4HANA&lt;/font&gt;&lt;/span&gt;" style="text;whiteSpace=wrap;html=1;align=left;container=0;verticalAlign=middle;fontColor=#1D2D3E;fontSize=10;" parent="UHaCpyEYQsDfGPqh9ESF-52" vertex="1">
          <mxGeometry x="808.0699999999999" y="73.98999999999978" width="74.25" height="22" as="geometry" />
        </mxCell>
        <mxCell id="lW-khkvEi3QtTLm4Eyx4-9" value="" style="rounded=1;whiteSpace=wrap;html=1;strokeColor=#0070F2;strokeWidth=1.5;arcSize=16;fillColor=#FFFFFF;perimeterSpacing=0;absoluteArcSize=1;" parent="UHaCpyEYQsDfGPqh9ESF-52" vertex="1">
          <mxGeometry x="798.9300000000001" y="161.1199999999999" width="153" height="68.89" as="geometry" />
        </mxCell>
        <mxCell id="lW-khkvEi3QtTLm4Eyx4-10" value="" style="shape=image;verticalLabelPosition=bottom;labelBackgroundColor=default;verticalAlign=top;imageAspect=0;image=data:image/svg+xml,PHN2ZyB4bWxucz0iaHR0cDovL3d3dy53My5vcmcvMjAwMC9zdmciIGZpbGw9Im5vbmUiIHZpZXdCb3g9IjAgMCAxNyAxMiIgaGVpZ2h0PSIxMiIgd2lkdGg9IjE3Ij4mI3hhOzxwYXRoIGZpbGw9InVybCgjcGFpbnQwX2xpbmVhcl83MjRfMTQpIiBkPSJNMTIuMzQ2MSAxMS45OTc0SDMuODE0ODVDMy4zNTY1MiAxMS45OTc0IDIuOTE5MDIgMTEuOTAzNiAyLjUwMjM1IDExLjcxNjJDMi4wODU2OCAxMS41MDc4IDEuNzIxMSAxMS4yMzcgMS40MDg2IDEwLjkwMzZDMS4wOTYxIDEwLjU0OTUgMC44NDYxIDEwLjE0MzIgMC42NTg2IDkuNjg0OTFDMC40OTE5MyA5LjIyNjYxIDAuNDA4NiA4LjczNzAxIDAuNDA4NiA4LjIxNjIxQzAuNDA4NiA3LjcxNjE2IDAuNDkxOTMgNy4yMzY5OSAwLjY1ODYgNi43Nzg2NkMwLjg0NjEgNi4zMjAzMyAxLjA4NTY4IDUuOTI0NDkgMS4zNzczNSA1LjU5MTE2QzEuNjY5MDIgNS4yMzY5OSAyLjAxMjc3IDQuOTY2MTYgMi40MDg2IDQuNzc4NjZDMi44MjUyNyA0LjU3MDMzIDMuMjYyNzcgNC40NjYxNiAzLjcyMTEgNC40NjYxNkMzLjgyNTI3IDMuODQxMTYgNC4wMTI3NyAzLjI1NzgzIDQuMjgzNiAyLjcxNjE2QzQuNTU0NDMgMi4xNTM2NiA0Ljg5ODE4IDEuNjc0NDkgNS4zMTQ4NSAxLjI3ODY2QzUuNzMxNTIgMC44ODI4MzQgNi4yMDAyNyAwLjU3MDMzNCA2LjcyMTEgMC4zNDExNjRDNy4yNjI3NyAwLjExMTk5NCA3LjgyNTI3IC0wLjAwMjU4NjM2IDguNDA4NiAtMC4wMDI1ODYzNkM5LjMwNDQzIC0wLjAwMjU4NjM2IDEwLjEzNzcgMC4yNjgyNDQgMTAuOTA4NiAwLjgwOTkxNEMxMS42Nzk0IDEuMzUxNTggMTIuMjczMSAyLjA4MDc0IDEyLjY4OTggMi45OTc0MUMxMy4yMTA2IDMuMDM5MDggMTMuNzAwMiAzLjE4NDkxIDE0LjE1ODYgMy40MzQ5MUMxNC42MTY5IDMuNjg0OTEgMTUuMDEyOCA0LjAxODI0IDE1LjM0NjEgNC40MzQ5MUMxNS42Nzk1IDQuODMwNzQgMTUuOTM5OCA1LjI4OTA4IDE2LjEyNzMgNS44MDk5MUMxNi4zMTQ4IDYuMzMwNzQgMTYuNDA4NiA2Ljg5MzI0IDE2LjQwODYgNy40OTc0MUMxNi40MDg2IDguMTIyNDEgMTYuMzA0NSA4LjcxNjIxIDE2LjA5NjEgOS4yNzg2MUMxNS44ODc4IDkuODIwMzEgMTUuNTk2MSAxMC4yOTk1IDE1LjIyMTEgMTAuNzE2MkMxNC44NjcgMTEuMTEyIDE0LjQzOTggMTEuNDI0NSAxMy45Mzk4IDExLjY1MzZDMTMuNDM5OCAxMS44ODI4IDEyLjkwODcgMTEuOTk3NCAxMi4zNDYxIDExLjk5NzRaTTMuODE0ODUgNi4wNTk5MUMzLjMxNDg1IDYuMDU5OTEgMi44ODc3NyA2LjI2ODI0IDIuNTMzNiA2LjY4NDkxQzIuMTc5NDMgNy4xMDE1OCAyLjAwMjM1IDcuNjExOTkgMi4wMDIzNSA4LjIxNjIxQzIuMDAyMzUgOC44MjAzMSAyLjE3OTQzIDkuMzQxMjEgMi41MzM2IDkuNzc4NjFDMi44ODc3NyAxMC4xOTUzIDMuMzE0ODUgMTAuNDAzNiAzLjgxNDg1IDEwLjQwMzZIMTIuMzQ2MUMxMy4wMzM3IDEwLjQwMzYgMTMuNjE3IDEwLjEyMjQgMTQuMDk2MSA5LjU1OTkxQzE0LjU3NTMgOC45OTc0MSAxNC44MTQ4IDguMzA5OTEgMTQuODE0OCA3LjQ5NzQxQzE0LjgxNDggNi42NjQwOCAxNC41NzUzIDUuOTY2MTYgMTQuMDk2MSA1LjQwMzY2QzEzLjYxNyA0Ljg0MTE2IDEzLjAzMzcgNC41NTk5MSAxMi4zNDYxIDQuNTU5OTFIMTIuMTI3M0MxMS43NzMxIDQuNTU5OTEgMTEuNTIzMSA0LjM4MjgzIDExLjM3NzMgNC4wMjg2NkMxMS4xMjczIDMuMjk5NDkgMTAuNzMxNSAyLjcxNjE2IDEwLjE4OTggMi4yNzg2NkM5LjY0ODE1IDEuODIwMzMgOS4wNTQ0MyAxLjU5MTE2IDguNDA4NiAxLjU5MTE2QzcuOTcxMSAxLjU5MTE2IDcuNTY0ODUgMS42OTUzMyA3LjE4OTg1IDEuOTAzNjZDNi44MTQ4NSAyLjA5MTE2IDYuNDgxNTIgMi4zNTE1OCA2LjE4OTg1IDIuNjg0OTFDNS45MTkwMiAyLjk5NzQxIDUuNzAwMjcgMy4zODI4MyA1LjUzMzYgMy44NDExNkM1LjM2NjkzIDQuMjc4NjYgNS4yODM2IDQuNzQ3NDEgNS4yODM2IDUuMjQ3NDFDNS4yODM2IDUuNDc2NTggNS4yMDAyNyA1LjY3NDQ5IDUuMDMzNiA1Ljg0MTE2QzQuODg3NzcgNS45ODY5OSA0LjcwMDI3IDYuMDU5OTEgNC40NzExIDYuMDU5OTFIMy44MTQ4NVoiLz4mI3hhOzxkZWZzPiYjeGE7PGxpbmVhckdyYWRpZW50IGdyYWRpZW50VW5pdHM9InVzZXJTcGFjZU9uVXNlIiB5Mj0iMTAuMzM3MyIgeDI9IjE0LjI2MDIiIHkxPSIxLjEyNjIzIiB4MT0iMi40NzY0NiIgaWQ9InBhaW50MF9saW5lYXJfNzI0XzE0Ij4mI3hhOzxzdG9wIHN0b3AtY29sb3I9IiMyMzk1RkYiLz4mI3hhOzxzdG9wIHN0b3AtY29sb3I9IiMwMDU3RDIiIG9mZnNldD0iMSIvPiYjeGE7PC9saW5lYXJHcmFkaWVudD4mI3hhOzwvZGVmcz4mI3hhOzwvc3ZnPg==;strokeWidth=1.5;aspect=fixed;" parent="UHaCpyEYQsDfGPqh9ESF-52" vertex="1">
          <mxGeometry x="809" y="166.01" width="28" height="17.89" as="geometry" />
        </mxCell>
        <mxCell id="lW-khkvEi3QtTLm4Eyx4-11" value="&lt;font face=&quot;arial&quot;&gt;&lt;span style=&quot;font-size: 16px;&quot;&gt;&lt;b&gt;3rd Party&amp;nbsp;&lt;/b&gt;&lt;/span&gt;&lt;/font&gt;&lt;div&gt;&lt;font face=&quot;arial&quot;&gt;&lt;span style=&quot;font-size: 16px;&quot;&gt;&lt;b&gt;Applications&lt;/b&gt;&lt;/span&gt;&lt;/font&gt;&lt;/div&gt;" style="text;html=1;align=left;verticalAlign=middle;resizable=0;points=[];autosize=1;strokeColor=none;fillColor=none;fontSize=12;fontColor=#1d2d3e;fontFamily=Helvetica;" parent="UHaCpyEYQsDfGPqh9ESF-52" vertex="1">
          <mxGeometry x="808.9989403973509" y="180.01410714285748" width="114" height="50" as="geometry" />
        </mxCell>
        <mxCell id="lW-khkvEi3QtTLm4Eyx4-13" value="&lt;span style=&quot;font-family: Helvetica; font-style: normal; font-variant-ligatures: normal; font-variant-caps: normal; letter-spacing: normal; orphans: 2; text-indent: 0px; text-transform: none; widows: 2; word-spacing: 0px; -webkit-text-stroke-width: 0px; text-decoration-thickness: initial; text-decoration-style: initial; text-decoration-color: initial; float: none; display: inline !important;&quot;&gt;&lt;font color=&quot;#556b82&quot; style=&quot;font-size: 11px;&quot;&gt;Cloud Connector&lt;/font&gt;&lt;/span&gt;" style="text;whiteSpace=wrap;html=1;align=left;" parent="UHaCpyEYQsDfGPqh9ESF-52" vertex="1">
          <mxGeometry x="837.0699999999999" y="116.32999999999993" width="96" height="24.74" as="geometry" />
        </mxCell>
        <mxCell id="BrPFqxkLOg2N26cgIEt9-19" value="" style="group" parent="UHaCpyEYQsDfGPqh9ESF-52" vertex="1" connectable="0">
          <mxGeometry x="765" y="243.00410714285726" width="194" height="143.99589285714262" as="geometry" />
        </mxCell>
        <mxCell id="lW-khkvEi3QtTLm4Eyx4-14" value="" style="rounded=1;whiteSpace=wrap;html=1;strokeColor=#0070F2;strokeWidth=1.5;arcSize=16;fillColor=#FFFFFF;perimeterSpacing=0;absoluteArcSize=1;" parent="BrPFqxkLOg2N26cgIEt9-19" vertex="1">
          <mxGeometry x="36" y="-0.004107142857378676" width="153" height="144" as="geometry" />
        </mxCell>
        <mxCell id="lW-khkvEi3QtTLm4Eyx4-15" value="&lt;font face=&quot;arial&quot; style=&quot;font-size: 16px;&quot;&gt;&lt;b style=&quot;font-size: 16px;&quot;&gt;SAP Cloud &lt;br&gt;Solutions&lt;/b&gt;&lt;/font&gt;" style="text;html=1;align=left;verticalAlign=middle;resizable=0;points=[];autosize=1;strokeColor=none;fillColor=none;fontSize=12;fontColor=#1d2d3e;fontFamily=Helvetica;" parent="BrPFqxkLOg2N26cgIEt9-19" vertex="1">
          <mxGeometry x="48.15894039735099" y="30.000000000000114" width="100" height="50" as="geometry" />
        </mxCell>
        <mxCell id="lW-khkvEi3QtTLm4Eyx4-16" value="&lt;div style=&quot;&quot;&gt;&lt;span style=&quot;font-size: 10px;&quot;&gt;*check SAP Help portal for &lt;br&gt;list of supported solutions for&lt;br&gt;manual integration or &lt;br&gt;as content channel&lt;/span&gt;&lt;/div&gt;" style="text;html=1;align=left;verticalAlign=middle;resizable=0;points=[];autosize=1;strokeColor=none;fillColor=none;fontSize=12;fontColor=#556B82;fontFamily=Helvetica;" parent="BrPFqxkLOg2N26cgIEt9-19" vertex="1">
          <mxGeometry x="49.172185430463514" y="73.49524999999983" width="145" height="70" as="geometry" />
        </mxCell>
        <mxCell id="lW-khkvEi3QtTLm4Eyx4-17" value="" style="shape=image;verticalLabelPosition=bottom;labelBackgroundColor=default;verticalAlign=top;imageAspect=0;image=data:image/svg+xml,PHN2ZyB4bWxucz0iaHR0cDovL3d3dy53My5vcmcvMjAwMC9zdmciIGZpbGw9Im5vbmUiIHZpZXdCb3g9IjAgMCAxNyAxMiIgaGVpZ2h0PSIxMiIgd2lkdGg9IjE3Ij4mI3hhOzxwYXRoIGZpbGw9InVybCgjcGFpbnQwX2xpbmVhcl83MjRfMTQpIiBkPSJNMTIuMzQ2MSAxMS45OTc0SDMuODE0ODVDMy4zNTY1MiAxMS45OTc0IDIuOTE5MDIgMTEuOTAzNiAyLjUwMjM1IDExLjcxNjJDMi4wODU2OCAxMS41MDc4IDEuNzIxMSAxMS4yMzcgMS40MDg2IDEwLjkwMzZDMS4wOTYxIDEwLjU0OTUgMC44NDYxIDEwLjE0MzIgMC42NTg2IDkuNjg0OTFDMC40OTE5MyA5LjIyNjYxIDAuNDA4NiA4LjczNzAxIDAuNDA4NiA4LjIxNjIxQzAuNDA4NiA3LjcxNjE2IDAuNDkxOTMgNy4yMzY5OSAwLjY1ODYgNi43Nzg2NkMwLjg0NjEgNi4zMjAzMyAxLjA4NTY4IDUuOTI0NDkgMS4zNzczNSA1LjU5MTE2QzEuNjY5MDIgNS4yMzY5OSAyLjAxMjc3IDQuOTY2MTYgMi40MDg2IDQuNzc4NjZDMi44MjUyNyA0LjU3MDMzIDMuMjYyNzcgNC40NjYxNiAzLjcyMTEgNC40NjYxNkMzLjgyNTI3IDMuODQxMTYgNC4wMTI3NyAzLjI1NzgzIDQuMjgzNiAyLjcxNjE2QzQuNTU0NDMgMi4xNTM2NiA0Ljg5ODE4IDEuNjc0NDkgNS4zMTQ4NSAxLjI3ODY2QzUuNzMxNTIgMC44ODI4MzQgNi4yMDAyNyAwLjU3MDMzNCA2LjcyMTEgMC4zNDExNjRDNy4yNjI3NyAwLjExMTk5NCA3LjgyNTI3IC0wLjAwMjU4NjM2IDguNDA4NiAtMC4wMDI1ODYzNkM5LjMwNDQzIC0wLjAwMjU4NjM2IDEwLjEzNzcgMC4yNjgyNDQgMTAuOTA4NiAwLjgwOTkxNEMxMS42Nzk0IDEuMzUxNTggMTIuMjczMSAyLjA4MDc0IDEyLjY4OTggMi45OTc0MUMxMy4yMTA2IDMuMDM5MDggMTMuNzAwMiAzLjE4NDkxIDE0LjE1ODYgMy40MzQ5MUMxNC42MTY5IDMuNjg0OTEgMTUuMDEyOCA0LjAxODI0IDE1LjM0NjEgNC40MzQ5MUMxNS42Nzk1IDQuODMwNzQgMTUuOTM5OCA1LjI4OTA4IDE2LjEyNzMgNS44MDk5MUMxNi4zMTQ4IDYuMzMwNzQgMTYuNDA4NiA2Ljg5MzI0IDE2LjQwODYgNy40OTc0MUMxNi40MDg2IDguMTIyNDEgMTYuMzA0NSA4LjcxNjIxIDE2LjA5NjEgOS4yNzg2MUMxNS44ODc4IDkuODIwMzEgMTUuNTk2MSAxMC4yOTk1IDE1LjIyMTEgMTAuNzE2MkMxNC44NjcgMTEuMTEyIDE0LjQzOTggMTEuNDI0NSAxMy45Mzk4IDExLjY1MzZDMTMuNDM5OCAxMS44ODI4IDEyLjkwODcgMTEuOTk3NCAxMi4zNDYxIDExLjk5NzRaTTMuODE0ODUgNi4wNTk5MUMzLjMxNDg1IDYuMDU5OTEgMi44ODc3NyA2LjI2ODI0IDIuNTMzNiA2LjY4NDkxQzIuMTc5NDMgNy4xMDE1OCAyLjAwMjM1IDcuNjExOTkgMi4wMDIzNSA4LjIxNjIxQzIuMDAyMzUgOC44MjAzMSAyLjE3OTQzIDkuMzQxMjEgMi41MzM2IDkuNzc4NjFDMi44ODc3NyAxMC4xOTUzIDMuMzE0ODUgMTAuNDAzNiAzLjgxNDg1IDEwLjQwMzZIMTIuMzQ2MUMxMy4wMzM3IDEwLjQwMzYgMTMuNjE3IDEwLjEyMjQgMTQuMDk2MSA5LjU1OTkxQzE0LjU3NTMgOC45OTc0MSAxNC44MTQ4IDguMzA5OTEgMTQuODE0OCA3LjQ5NzQxQzE0LjgxNDggNi42NjQwOCAxNC41NzUzIDUuOTY2MTYgMTQuMDk2MSA1LjQwMzY2QzEzLjYxNyA0Ljg0MTE2IDEzLjAzMzcgNC41NTk5MSAxMi4zNDYxIDQuNTU5OTFIMTIuMTI3M0MxMS43NzMxIDQuNTU5OTEgMTEuNTIzMSA0LjM4MjgzIDExLjM3NzMgNC4wMjg2NkMxMS4xMjczIDMuMjk5NDkgMTAuNzMxNSAyLjcxNjE2IDEwLjE4OTggMi4yNzg2NkM5LjY0ODE1IDEuODIwMzMgOS4wNTQ0MyAxLjU5MTE2IDguNDA4NiAxLjU5MTE2QzcuOTcxMSAxLjU5MTE2IDcuNTY0ODUgMS42OTUzMyA3LjE4OTg1IDEuOTAzNjZDNi44MTQ4NSAyLjA5MTE2IDYuNDgxNTIgMi4zNTE1OCA2LjE4OTg1IDIuNjg0OTFDNS45MTkwMiAyLjk5NzQxIDUuNzAwMjcgMy4zODI4MyA1LjUzMzYgMy44NDExNkM1LjM2NjkzIDQuMjc4NjYgNS4yODM2IDQuNzQ3NDEgNS4yODM2IDUuMjQ3NDFDNS4yODM2IDUuNDc2NTggNS4yMDAyNyA1LjY3NDQ5IDUuMDMzNiA1Ljg0MTE2QzQuODg3NzcgNS45ODY5OSA0LjcwMDI3IDYuMDU5OTEgNC40NzExIDYuMDU5OTFIMy44MTQ4NVoiLz4mI3hhOzxkZWZzPiYjeGE7PGxpbmVhckdyYWRpZW50IGdyYWRpZW50VW5pdHM9InVzZXJTcGFjZU9uVXNlIiB5Mj0iMTAuMzM3MyIgeDI9IjE0LjI2MDIiIHkxPSIxLjEyNjIzIiB4MT0iMi40NzY0NiIgaWQ9InBhaW50MF9saW5lYXJfNzI0XzE0Ij4mI3hhOzxzdG9wIHN0b3AtY29sb3I9IiMyMzk1RkYiLz4mI3hhOzxzdG9wIHN0b3AtY29sb3I9IiMwMDU3RDIiIG9mZnNldD0iMSIvPiYjeGE7PC9saW5lYXJHcmFkaWVudD4mI3hhOzwvZGVmcz4mI3hhOzwvc3ZnPg==;strokeWidth=1.5;aspect=fixed;" parent="BrPFqxkLOg2N26cgIEt9-19" vertex="1">
          <mxGeometry x="49.169999999999845" y="12.105892857142521" width="28" height="17.89" as="geometry" />
        </mxCell>
        <mxCell id="Cf-eS_Z8wyuZi8RKvG80-131" value="&lt;font color=&quot;#475f75&quot; size=&quot;1&quot;&gt;&lt;b style=&quot;&quot;&gt;REST/SPI&lt;/b&gt;&lt;/font&gt;" style="rounded=1;whiteSpace=wrap;html=1;arcSize=50;strokeColor=#475f75;fillColor=default;strokeWidth=1.5;" parent="BrPFqxkLOg2N26cgIEt9-19" vertex="1">
          <mxGeometry x="-12.999417475727942" y="57.75194029850765" width="53.67961165048544" height="15.739701492537327" as="geometry" />
        </mxCell>
        <mxCell id="Cf-eS_Z8wyuZi8RKvG80-90" value="" style="rounded=1;whiteSpace=wrap;html=1;strokeColor=#0070F2;fillColor=#EBF8FF;arcSize=16;absoluteArcSize=1;imageWidth=64;imageHeight=64;strokeWidth=1.5;" parent="UHaCpyEYQsDfGPqh9ESF-52" vertex="1">
          <mxGeometry x="124.2800000000002" width="465" height="387" as="geometry" />
        </mxCell>
        <mxCell id="Cf-eS_Z8wyuZi8RKvG80-91" value="" style="rounded=1;whiteSpace=wrap;html=1;strokeColor=#0070F2;strokeWidth=1.5;arcSize=16;fillColor=#FFFFFF;perimeterSpacing=0;absoluteArcSize=1;" parent="UHaCpyEYQsDfGPqh9ESF-52" vertex="1">
          <mxGeometry x="142.05000000000018" y="54.12999999999988" width="429.45" height="163.69" as="geometry" />
        </mxCell>
        <mxCell id="Cf-eS_Z8wyuZi8RKvG80-92" value="" style="shape=image;verticalLabelPosition=bottom;labelBackgroundColor=default;verticalAlign=top;aspect=fixed;imageAspect=0;image=data:image/svg+xml,PHN2ZyB4bWxuczp4bGluaz0iaHR0cDovL3d3dy53My5vcmcvMTk5OS94bGluayIgeG1sbnM9Imh0dHA6Ly93d3cudzMub3JnLzIwMDAvc3ZnIiB2aWV3Qm94PSIwIDAgMTQ0Ljc0NyAzOS44MzIiIGlkPSJhIj48ZGVmcz48bGluZWFyR3JhZGllbnQgZ3JhZGllbnRVbml0cz0idXNlclNwYWNlT25Vc2UiIHkyPSIzOS44MzIiIHgyPSI0MC4yNTgiIHkxPSIwIiB4MT0iNDAuMjU4IiBpZD0iYiI+PHN0b3Agc3RvcC1jb2xvcj0iIzAwYjhmMSIgb2Zmc2V0PSIwIi8+PHN0b3Agc3RvcC1jb2xvcj0iIzAwYjVlZiIgb2Zmc2V0PSIuMDE2Ii8+PHN0b3Agc3RvcC1jb2xvcj0iIzBkOTBkOCIgb2Zmc2V0PSIuMzA4Ii8+PHN0b3Agc3RvcC1jb2xvcj0iIzE2NzVjOCIgb2Zmc2V0PSIuNTc4Ii8+PHN0b3Agc3RvcC1jb2xvcj0iIzFjNjRiZSIgb2Zmc2V0PSIuODE3Ii8+PHN0b3Agc3RvcC1jb2xvcj0iIzFlNWZiYiIgb2Zmc2V0PSIxIi8+PC9saW5lYXJHcmFkaWVudD48L2RlZnM+PHBvbHlsaW5lIGZpbGwtcnVsZT0iZXZlbm9kZCIgZmlsbD0idXJsKCNiKSIgcG9pbnRzPSIwIDM5LjgzMiA0MC42OTIgMzkuODMyIDgwLjUxNyAwIDAgMCAwIDM5LjgzMiIvPjxwYXRoIGZpbGwtcnVsZT0iZXZlbm9kZCIgZmlsbD0iI2ZmZiIgZD0ibTQ3Ljc4Miw3LjQ4OWwtNy45MjUtLjAwNXYxOC44NDVsLTYuOTI0LTE4Ljg0NWgtNi44NjVsLTUuOTEyLDE1Ljc1OWMtLjYzLTMuOTczLTQuNzQtNS4zNDUtNy45NzQtNi4zNzQtMi4xMzUtLjY4Ni00LjQwMS0xLjY5NC00LjM4LTIuODA5LjAxNy0uOTE1LDEuMjE1LTEuNzY1LDMuNTg5LTEuNjM3LDEuNTk1LjA4NCwzLjAwMS4yMTMsNS44LDEuNTYzbDIuNzUzLTQuNzk1Yy0yLjU1NS0xLjMtNi4wODYtMi4xMjEtOC45NzgtMi4xMjRoLS4wMTdjLTMuMzc0LDAtNi4xODUsMS4wOTMtNy45MjgsMi44OTQtMS4yMTQsMS4yNTgtMS44NjksMi44NTYtMS44OTYsNC42MjMtLjA0NCwyLjQzMi44NDgsNC4xNTcsMi43MjEsNS41MzMsMS41ODMsMS4xNiwzLjYwNiwxLjkxMiw1LjM5LDIuNDY1LDIuMjAxLjY4MSwzLjk5NiwxLjI3NCwzLjk3NSwyLjUzOS0uMDE2LjQ1OS0uMTkxLjg4OC0uNTIxLDEuMjM2LS41NDguNTY2LTEuMzkxLjc3OS0yLjU1NS43OTktMi4yNDQuMDQ4LTMuOTEtLjMwMy02LjU2Mi0xLjg3bC0yLjQ0OCw0Ljg2MWMyLjY0NCwxLjUwNiw1Ljc3NiwyLjM4OCw4Ljk3MiwyLjM4OGwuNDExLS4wMDZjMi43ODItLjA1LDUuMDI2LS44NDIsNi44Mi0yLjI4Ni4xMDMtLjA4MS4xOTYtLjE2Ni4yOTEtLjI1bC0uNzk1LDIuMTIzaDcuMmwxLjIwOC0zLjY3NGMxLjI2NS40MzMsMi43MDQuNjcxLDQuMjMyLjY3MSwxLjQ4NywwLDIuODg5LS4yMjksNC4xMzEtLjYzNWwxLjE2NCwzLjYzN2gxMS43NDJ2LTcuNjA3aDIuNTYxYzYuMTg4LDAsOS44NTEtMy4xNTQsOS44NTEtOC40MzYsMC01Ljg4NS0zLjU1Ny04LjU4NS0xMS4xMzItOC41ODVabS0xOC4zMTcsMTYuMTI0Yy0uOTI1LDAtMS43OTItLjE2LTIuNTM5LS40NDNsMi41MTItNy45MjZoLjA0OGwyLjQ2OCw3Ljk0OGMtLjc0Mi4yNjMtMS41ODkuNDIxLTIuNDg4LjQyMVptMTguNzgzLTQuNTUzaC0xLjc0NnYtNi4zODZoMS43NDZjMi4zMjgsMCw0LjE4NS43NzMsNC4xODUsMy4xNTEsMCwyLjQ2MS0xLjg1NywzLjIzNi00LjE4NSwzLjIzNiIvPjxwYXRoIGZpbGw9IiMwMDJhODYiIGQ9Im04MC4yMTcsNy40MDFoMTAuMDYzYzUuNTk1LDAsOC42NzQsMS45MTcsOC42NzQsNi4xNTgsMCwyLjkwMy0xLjUxMyw1LjAxNC00LjMxMSw1LjcsMy4yOS40NTgsNS4yNzgsMi41ODYsNS4yNzgsNS44OTQsMCw1LjAxNC00LjA2NCw3LjAzNy05LjE4NCw3LjAzN2gtMTAuNTIxVjcuNDAxWm0xMy45NjksNi44MjZjMC0yLjE2NC0xLjQ5Ni0yLjk3My00LjI0LTIuOTczaC01LjA0OXY2LjI5OGg0Ljg5MWMzLjIwMiwwLDQuMzk4LTEuMTYxLDQuMzk4LTMuMzI1Wm0xLjAyMSwxMC41MjFjMC0yLjM1Ny0xLjc3Ny0zLjQ2Ni00LjgzOS0zLjQ2NmgtNS40NzF2Ny4wNTVoNS41MDZjMi44MTUsMCw0LjgwNC0uNzc0LDQuODA0LTMuNTg5WiIvPjxwYXRoIGZpbGw9IiMwMDJhODYiIGQ9Im0xMDkuMDUxLDExLjVoLTcuNTgzdi00LjA5OWgxOS44NDZ2NC4wOTloLTcuNTY1djIwLjY5aC00LjY5N1YxMS41WiIvPjxwYXRoIGZpbGw9IiMwMDJhODYiIGQ9Im0xMjUuMTQ4LDcuNDAxaDEwLjUwNGM2LjE5MiwwLDkuMDk2LDMuMTg1LDkuMDk2LDcuODk5LDAsNC4zOTgtMi44MzMsOC4xNDYtOC44NSw4LjE0NmgtNi4wN3Y4Ljc0NGgtNC42OFY3LjQwMVptMTQuOTAyLDcuOTUyYzAtMi41NTEtMS42ODktMy45MjMtNC45NDQtMy45MjNoLTUuMjc4djguMDRoNS40MTljMy4yNzIsMCw0LjgwNC0xLjU4Myw0LjgwNC00LjExN1oiLz48L3N2Zz4=;strokeWidth=1.5;" parent="UHaCpyEYQsDfGPqh9ESF-52" vertex="1">
          <mxGeometry x="142.05000000000018" y="18.550000000000182" width="67.25" height="18.55" as="geometry" />
        </mxCell>
        <mxCell id="Cf-eS_Z8wyuZi8RKvG80-94" value="" style="endArrow=blockThin;html=1;strokeColor=#475e74;bendable=1;rounded=0;endFill=1;endSize=4;strokeWidth=1.5;entryX=0;entryY=0.5;entryDx=0;entryDy=0;startSize=4;exitX=1;exitY=0.5;exitDx=0;exitDy=0;exitPerimeter=0;" parent="UHaCpyEYQsDfGPqh9ESF-52" source="Cf-eS_Z8wyuZi8RKvG80-110" target="Cf-eS_Z8wyuZi8RKvG80-131" edge="1">
          <mxGeometry width="50" height="50" relative="1" as="geometry">
            <mxPoint x="596.5" y="150.8800000000001" as="sourcePoint" />
            <mxPoint x="879.5" y="258.8800000000001" as="targetPoint" />
            <Array as="points">
              <mxPoint x="595.5" y="154" />
              <mxPoint x="709.5" y="153" />
              <mxPoint x="709.5" y="217.81999999999994" />
              <mxPoint x="710" y="309" />
            </Array>
          </mxGeometry>
        </mxCell>
        <mxCell id="Cf-eS_Z8wyuZi8RKvG80-95" value="" style="group;strokeWidth=1.5;" parent="UHaCpyEYQsDfGPqh9ESF-52" vertex="1" connectable="0">
          <mxGeometry x="145.5" y="138" width="110" height="95" as="geometry" />
        </mxCell>
        <mxCell id="Cf-eS_Z8wyuZi8RKvG80-96" value="" style="shape=image;verticalLabelPosition=bottom;labelBackgroundColor=default;verticalAlign=top;aspect=fixed;imageAspect=0;image=data:image/svg+xml,PHN2ZyB4bWxucz0iaHR0cDovL3d3dy53My5vcmcvMjAwMC9zdmciIGZpbGw9Im5vbmUiIHZpZXdCb3g9IjAgMCAxNiAxNiIgaGVpZ2h0PSIxNiIgd2lkdGg9IjE2Ij4mI3hhOzxnIGNsaXAtcGF0aD0idXJsKCNjbGlwMF8zMTA2XzI3MTAxKSI+JiN4YTs8Y2lyY2xlIHN0cm9rZS13aWR0aD0iMC4yNzM4MDkiIHN0cm9rZT0iI0Q1REFERCIgZmlsbD0idXJsKCNwYWludDBfbGluZWFyXzMxMDZfMjcxMDEpIiByPSI3LjUyOTc0IiBjeT0iNy45OTk4OSIgY3g9IjcuOTk4OTIiLz4mI3hhOzxnIGNsaXAtcGF0aD0idXJsKCNjbGlwMV8zMTA2XzI3MTAxKSI+JiN4YTs8bWFzayBoZWlnaHQ9IjEzIiB3aWR0aD0iMTIiIHk9IjIiIHg9IjIiIG1hc2tVbml0cz0idXNlclNwYWNlT25Vc2UiIHN0eWxlPSJtYXNrLXR5cGU6YWxwaGEiIGlkPSJtYXNrMF8zMTA2XzI3MTAxIj4mI3hhOzxwYXRoIGZpbGw9ImJsYWNrIiBkPSJNOC40MjExOCAxMC43MzMzQzguNjQxMDYgMTEuMzUyNCA5LjI4Njc1IDExLjcwNDcgMTAuMDEwNSAxMS43MDQ3QzEwLjczNDIgMTEuNzA0NyAxMS4zNDY4IDExLjE3OTEgMTEuNTE5NyAxMC43MDdMMTIuODg3NyA2LjkzODQ5QzEzLjE2MDEgNi4xODgwNCAxMi43NzQyIDUuMzU4MjQgMTIuMDI1OCA1LjA4NTFDMTEuMzM3NCA0LjgzMzg5IDEwLjU4MjIgNS4xNDEgMTAuMjUzNCA1Ljc3NTcyQzEwLjIwMTEgNS44OTQwOSAxMC4xNDc1IDYuMDcyMTYgMTAuMjExNiA2LjI2MTc3TDEwLjg5OTYgOC4xNjUzMUMxMC45MzQxIDguMjYwNzUgMTAuODg5NSA4LjM2NjczIDEwLjc5NzIgOC40MDg0NUMxMC42ODMzIDguNDU5OTMgMTAuNTQ2OCA4LjM5MjYzIDEwLjUxNjggOC4yNzEwNkMxMC4yOTc0IDcuMzgyODcgOS41NjI3OCA2LjgxNjE3IDguNjU0NiA3LjE1MDYzQzcuNzQ2NDIgNy40ODUxIDcuNTU1MjEgOC4zNDc3MiA3LjgyNzYzIDkuMDk4MThMOC40MjExOCAxMC43MzMzWiIvPiYjeGE7PHBhdGggZmlsbD0iYmxhY2siIGQ9Ik0zLjQ3MjEzIDYuOTMyNDVDMy4xOTk3MiA2LjE4MTk5IDMuNTg1NjIgNS4zNTIyIDQuMzM0MDYgNS4wNzkwNkM1LjA4MjUxIDQuODA1OTEgNS45MTAwOCA1LjE5Mjg1IDYuMTgyNSA1Ljk0MzMxTDcuNTQ5NzQgOS43MDk4MkM3LjgyMjE1IDEwLjQ2MDMgNy40MzYyNiAxMS4yOTAxIDYuNjg3ODEgMTEuNTYzMkM1LjkzOTM2IDExLjgzNjQgNS4xMTE3OSAxMS40NDk0IDQuODM5MzcgMTAuNjk5TDMuNDcyMTMgNi45MzI0NVoiLz4mI3hhOzwvbWFzaz4mI3hhOzxnIG1hc2s9InVybCgjbWFzazBfMzEwNl8yNzEwMSkiPiYjeGE7PGcgZmlsdGVyPSJ1cmwoI2ZpbHRlcjBfZF8zMTA2XzI3MTAxKSI+JiN4YTs8cGF0aCBmaWxsPSJ1cmwoI3BhaW50MV9yYWRpYWxfMzEwNl8yNzEwMSkiIGQ9Ik02LjYzNDM0IDAuODcxOTU0QzguNjcyNDkgMC4yOTI4MzUgMTEuMDgyMyAxLjI5MTgzIDEyLjU1MTQgMy45Mzg4NEMxNi4zMzM1IDkuMDE5NDkgMTkuNzUzNyAxNC45MTk2IDExLjk2MDkgMTcuNjc2OEM0LjE2ODEzIDIwLjQzNCA0LjM1MDY3IDE0Ljc3ODIgMS43NTIyNSAxMC4wOTY0Qy0wLjg0NjE2NyA1LjQxNDU1IDQuNTk2MTkgMS40NTEwNyA2LjYzNDM0IDAuODcxOTU0WiIvPiYjeGE7PC9nPiYjeGE7PGcgZmlsdGVyPSJ1cmwoI2ZpbHRlcjFfZF8zMTA2XzI3MTAxKSI+JiN4YTs8cGF0aCBmaWxsPSJ1cmwoI3BhaW50Ml9yYWRpYWxfMzEwNl8yNzEwMSkiIGQ9Ik0xMi42NTQyIDEwLjI3OThDMTEuODQ2MiAxMi4wMTA3IDkuNTMyOTggMTQuMDk2MSA3Ljk2MzgxIDE0LjIzNTdDNC43NDYwMyAxNC45MzE0IC0wLjI2MjI1NSAxMS43NDczIDAuMTY2MTEgOS41ODQ4MUMwLjU5NDQ3NSA3LjQyMjM3IDQuNjY1NjUgNi4zNjU5OSA3LjQ1MjY5IDYuMzg5OTNDMTAuMjM5NyA2LjQxMzg4IDEzLjQ2MjEgOC41NDg5NSAxMi42NTQyIDEwLjI3OThaIi8+JiN4YTs8L2c+JiN4YTs8ZyBmaWx0ZXI9InVybCgjZmlsdGVyMl9kXzMxMDZfMjcxMDEpIj4mI3hhOzxwYXRoIGZpbGw9InVybCgjcGFpbnQzX3JhZGlhbF8zMTA2XzI3MTAxKSIgZD0iTTMuMzUzNjEgOC4zOTkzNkM2Ljk2MjAxIDcuNDQ1NTcgMTAuMTEwOSA3LjMwNjg2IDEwLjQ4NjcgMTAuNjg5NkMxMC43OTE3IDEzLjQzNDkgNi45NTY4IDE1LjY1NzggNC4yMTE0NyAxNS45NjI4QzEuNDY2MTQgMTYuMjY3OCAtMC4xMDIyOTYgOS4zMTI4NCAzLjM1MzYxIDguMzk5MzZaIi8+JiN4YTs8L2c+JiN4YTs8L2c+JiN4YTs8L2c+JiN4YTs8L2c+JiN4YTs8ZGVmcz4mI3hhOzxmaWx0ZXIgY29sb3ItaW50ZXJwb2xhdGlvbi1maWx0ZXJzPSJzUkdCIiBmaWx0ZXJVbml0cz0idXNlclNwYWNlT25Vc2UiIGhlaWdodD0iMTkuMDM1MiIgd2lkdGg9IjE2Ljk0MTQiIHk9IjAuMDg1MTI1NCIgeD0iMC42MTQ4MjkiIGlkPSJmaWx0ZXIwX2RfMzEwNl8yNzEwMSI+JiN4YTs8ZmVGbG9vZCByZXN1bHQ9IkJhY2tncm91bmRJbWFnZUZpeCIgZmxvb2Qtb3BhY2l0eT0iMCIvPiYjeGE7PGZlQ29sb3JNYXRyaXggcmVzdWx0PSJoYXJkQWxwaGEiIHZhbHVlcz0iMCAwIDAgMCAwIDAgMCAwIDAgMCAwIDAgMCAwIDAgMCAwIDAgMTI3IDAiIHR5cGU9Im1hdHJpeCIgaW49IlNvdXJjZUFscGhhIi8+JiN4YTs8ZmVPZmZzZXQgZHk9IjAuMDQ0ODQwNCIgZHg9IjAuMjI0MjAyIi8+JiN4YTs8ZmVHYXVzc2lhbkJsdXIgc3RkRGV2aWF0aW9uPSIwLjMzNjMwMyIvPiYjeGE7PGZlQ29tcG9zaXRlIG9wZXJhdG9yPSJvdXQiIGluMj0iaGFyZEFscGhhIi8+JiN4YTs8ZmVDb2xvck1hdHJpeCB2YWx1ZXM9IjAgMCAwIDAgMCAwIDAgMCAwIDAgMCAwIDAgMCAwIDAgMCAwIDAuNCAwIiB0eXBlPSJtYXRyaXgiLz4mI3hhOzxmZUJsZW5kIHJlc3VsdD0iZWZmZWN0MV9kcm9wU2hhZG93XzMxMDZfMjcxMDEiIGluMj0iQmFja2dyb3VuZEltYWdlRml4IiBtb2RlPSJub3JtYWwiLz4mI3hhOzxmZUJsZW5kIHJlc3VsdD0ic2hhcGUiIGluMj0iZWZmZWN0MV9kcm9wU2hhZG93XzMxMDZfMjcxMDEiIGluPSJTb3VyY2VHcmFwaGljIiBtb2RlPSJub3JtYWwiLz4mI3hhOzwvZmlsdGVyPiYjeGE7PGZpbHRlciBjb2xvci1pbnRlcnBvbGF0aW9uLWZpbHRlcnM9InNSR0IiIGZpbHRlclVuaXRzPSJ1c2VyU3BhY2VPblVzZSIgaGVpZ2h0PSI5LjI4ODU3IiB3aWR0aD0iMTMuOTg1MyIgeT0iNS43NjE4OCIgeD0iLTAuMzA4MDIzIiBpZD0iZmlsdGVyMV9kXzMxMDZfMjcxMDEiPiYjeGE7PGZlRmxvb2QgcmVzdWx0PSJCYWNrZ3JvdW5kSW1hZ2VGaXgiIGZsb29kLW9wYWNpdHk9IjAiLz4mI3hhOzxmZUNvbG9yTWF0cml4IHJlc3VsdD0iaGFyZEFscGhhIiB2YWx1ZXM9IjAgMCAwIDAgMCAwIDAgMCAwIDAgMCAwIDAgMCAwIDAgMCAwIDEyNyAwIiB0eXBlPSJtYXRyaXgiIGluPSJTb3VyY2VBbHBoYSIvPiYjeGE7PGZlT2Zmc2V0IGR5PSIwLjA0NDg0MDQiIGR4PSIwLjIyNDIwMiIvPiYjeGE7PGZlR2F1c3NpYW5CbHVyIHN0ZERldmlhdGlvbj0iMC4zMzYzMDMiLz4mI3hhOzxmZUNvbXBvc2l0ZSBvcGVyYXRvcj0ib3V0IiBpbjI9ImhhcmRBbHBoYSIvPiYjeGE7PGZlQ29sb3JNYXRyaXggdmFsdWVzPSIwIDAgMCAwIDAgMCAwIDAgMCAwIDAgMCAwIDAgMCAwIDAgMCAwLjQgMCIgdHlwZT0ibWF0cml4Ii8+JiN4YTs8ZmVCbGVuZCByZXN1bHQ9ImVmZmVjdDFfZHJvcFNoYWRvd18zMTA2XzI3MTAxIiBpbjI9IkJhY2tncm91bmRJbWFnZUZpeCIgbW9kZT0ibm9ybWFsIi8+JiN4YTs8ZmVCbGVuZCByZXN1bHQ9InNoYXBlIiBpbjI9ImVmZmVjdDFfZHJvcFNoYWRvd18zMTA2XzI3MTAxIiBpbj0iU291cmNlR3JhcGhpYyIgbW9kZT0ibm9ybWFsIi8+JiN4YTs8L2ZpbHRlcj4mI3hhOzxmaWx0ZXIgY29sb3ItaW50ZXJwb2xhdGlvbi1maWx0ZXJzPSJzUkdCIiBmaWx0ZXJVbml0cz0idXNlclNwYWNlT25Vc2UiIGhlaWdodD0iOS41MDUzNyIgd2lkdGg9IjEwLjQ3NzgiIHk9IjcuMTg0NDkiIHg9IjAuOTIyOTM0IiBpZD0iZmlsdGVyMl9kXzMxMDZfMjcxMDEiPiYjeGE7PGZlRmxvb2QgcmVzdWx0PSJCYWNrZ3JvdW5kSW1hZ2VGaXgiIGZsb29kLW9wYWNpdHk9IjAiLz4mI3hhOzxmZUNvbG9yTWF0cml4IHJlc3VsdD0iaGFyZEFscGhhIiB2YWx1ZXM9IjAgMCAwIDAgMCAwIDAgMCAwIDAgMCAwIDAgMCAwIDAgMCAwIDEyNyAwIiB0eXBlPSJtYXRyaXgiIGluPSJTb3VyY2VBbHBoYSIvPiYjeGE7PGZlT2Zmc2V0IGR5PSIwLjA0NDg0MDQiIGR4PSIwLjIyNDIwMiIvPiYjeGE7PGZlR2F1c3NpYW5CbHVyIHN0ZERldmlhdGlvbj0iMC4zMzYzMDMiLz4mI3hhOzxmZUNvbXBvc2l0ZSBvcGVyYXRvcj0ib3V0IiBpbjI9ImhhcmRBbHBoYSIvPiYjeGE7PGZlQ29sb3JNYXRyaXggdmFsdWVzPSIwIDAgMCAwIDAgMCAwIDAgMCAwIDAgMCAwIDAgMCAwIDAgMCAwLjQgMCIgdHlwZT0ibWF0cml4Ii8+JiN4YTs8ZmVCbGVuZCByZXN1bHQ9ImVmZmVjdDFfZHJvcFNoYWRvd18zMTA2XzI3MTAxIiBpbjI9IkJhY2tncm91bmRJbWFnZUZpeCIgbW9kZT0ibm9ybWFsIi8+JiN4YTs8ZmVCbGVuZCByZXN1bHQ9InNoYXBlIiBpbjI9ImVmZmVjdDFfZHJvcFNoYWRvd18zMTA2XzI3MTAxIiBpbj0iU291cmNlR3JhcGhpYyIgbW9kZT0ibm9ybWFsIi8+JiN4YTs8L2ZpbHRlcj4mI3hhOzxsaW5lYXJHcmFkaWVudCBncmFkaWVudFVuaXRzPSJ1c2VyU3BhY2VPblVzZSIgeTI9IjE0LjQ2NjgiIHgyPSIxMy40NTAxIiB5MT0iMi41MDk1NyIgeDE9IjEuNzIyNzciIGlkPSJwYWludDBfbGluZWFyXzMxMDZfMjcxMDEiPiYjeGE7PHN0b3Agc3RvcC1jb2xvcj0id2hpdGUiLz4mI3hhOzxzdG9wIHN0b3AtY29sb3I9IiNFQUVDRUUiIG9mZnNldD0iMSIvPiYjeGE7PC9saW5lYXJHcmFkaWVudD4mI3hhOzxyYWRpYWxHcmFkaWVudCBncmFkaWVudFRyYW5zZm9ybT0idHJhbnNsYXRlKDcuMTQyMiAxMC41MTEzKSByb3RhdGUoLTc1LjY1MTMpIHNjYWxlKDE1Ljk3MDUgMTUuNzQ5OCkiIGdyYWRpZW50VW5pdHM9InVzZXJTcGFjZU9uVXNlIiByPSIxIiBjeT0iMCIgY3g9IjAiIGlkPSJwYWludDFfcmFkaWFsXzMxMDZfMjcxMDEiPiYjeGE7PHN0b3Agc3RvcC1jb2xvcj0iIzEzNDhGRiIvPiYjeGE7PHN0b3Agc3RvcC1jb2xvcj0iIzA2MjM4RCIgb2Zmc2V0PSIxIi8+JiN4YTs8L3JhZGlhbEdyYWRpZW50PiYjeGE7PHJhZGlhbEdyYWRpZW50IGdyYWRpZW50VHJhbnNmb3JtPSJ0cmFuc2xhdGUoMy4xOTI5OSA3LjMwMjE1KSByb3RhdGUoMzEuOTgpIHNjYWxlKDE1LjI2ODUgMjcuNTc2KSIgZ3JhZGllbnRVbml0cz0idXNlclNwYWNlT25Vc2UiIHI9IjEiIGN5PSIwIiBjeD0iMCIgaWQ9InBhaW50Ml9yYWRpYWxfMzEwNl8yNzEwMSI+JiN4YTs8c3RvcCBzdG9wLWNvbG9yPSIjMDE5NUZGIi8+JiN4YTs8c3RvcCBzdG9wLWNvbG9yPSIjMTE0N0U5IiBvZmZzZXQ9IjEiLz4mI3hhOzwvcmFkaWFsR3JhZGllbnQ+JiN4YTs8cmFkaWFsR3JhZGllbnQgZ3JhZGllbnRUcmFuc2Zvcm09InRyYW5zbGF0ZSgzLjg2NDM3IDE1LjI1NDIpIHJvdGF0ZSgtNDYuOTU3OSkgc2NhbGUoMTEuNzY0NCAxNi4xODIpIiBncmFkaWVudFVuaXRzPSJ1c2VyU3BhY2VPblVzZSIgcj0iMSIgY3k9IjAiIGN4PSIwIiBpZD0icGFpbnQzX3JhZGlhbF8zMTA2XzI3MTAxIj4mI3hhOzxzdG9wIHN0b3AtY29sb3I9IiMwMEJCRkYiLz4mI3hhOzxzdG9wIHN0b3AtY29sb3I9IiMwMDhCRkYiIG9mZnNldD0iMSIvPiYjeGE7PC9yYWRpYWxHcmFkaWVudD4mI3hhOzxjbGlwUGF0aCBpZD0iY2xpcDBfMzEwNl8yNzEwMSI+JiN4YTs8cmVjdCB0cmFuc2Zvcm09InRyYW5zbGF0ZSgtMC4wMDA5NzY1NjIpIiBmaWxsPSJ3aGl0ZSIgaGVpZ2h0PSIxNS45OTk5IiB3aWR0aD0iMTUuOTk5OSIvPiYjeGE7PC9jbGlwUGF0aD4mI3hhOzxjbGlwUGF0aCBpZD0iY2xpcDFfMzEwNl8yNzEwMSI+JiN4YTs8cmVjdCB0cmFuc2Zvcm09InRyYW5zbGF0ZSgzLjMzMjI4IDMuNSkiIGZpbGw9IndoaXRlIiBoZWlnaHQ9IjkuNjY2NjQiIHdpZHRoPSI5LjY2NjY0Ii8+JiN4YTs8L2NsaXBQYXRoPiYjeGE7PC9kZWZzPiYjeGE7PC9zdmc+;points=[[0,0,0,0,0],[0,0.25,0,0,0],[0,0.5,0,0,0],[0,0.75,0,0,0],[0.25,0,0,0,0],[0.5,0,0,0,0],[0.75,0,0,0,0],[1,0,0,0,0],[1,0.25,0,0,0],[1,0.5,0,0,0],[1,0.75,0,0,0]];strokeWidth=1.5;" parent="Cf-eS_Z8wyuZi8RKvG80-95" vertex="1">
          <mxGeometry x="39" width="32" height="32" as="geometry" />
        </mxCell>
        <mxCell id="Cf-eS_Z8wyuZi8RKvG80-97" value="&lt;font size=&quot;1&quot; face=&quot;arial&quot; style=&quot;&quot;&gt;&lt;span style=&quot;font-size: 12px;&quot;&gt;SAP Build Work Zone&lt;br&gt;&lt;/span&gt;&lt;/font&gt;" style="text;html=1;align=center;verticalAlign=top;resizable=1;points=[[0,0.5,0,0,0],[0.21,1,0,0,0],[0.5,1,0,0,0],[0.85,1,0,0,0],[1,0.5,0,0,0]];autosize=0;strokeColor=none;fillColor=none;fontSize=12;fontColor=#1D2D3E;fontFamily=Helvetica;fixedWidth=1;imageWidth=24;whiteSpace=wrap;labelBackgroundColor=none;strokeWidth=1.5;" parent="Cf-eS_Z8wyuZi8RKvG80-95" vertex="1">
          <mxGeometry y="32" width="110" height="46" as="geometry" />
        </mxCell>
        <mxCell id="Cf-eS_Z8wyuZi8RKvG80-98" value="&lt;font size=&quot;1&quot; face=&quot;arial&quot; style=&quot;&quot;&gt;&lt;span style=&quot;font-size: 12px;&quot;&gt;Multi-Cloud&lt;/span&gt;&lt;/font&gt;" style="text;html=1;align=left;verticalAlign=middle;resizable=0;points=[];autosize=1;strokeColor=none;fillColor=none;fontSize=14;fontColor=#1D2D3E;fontFamily=Helvetica;fontStyle=0" parent="UHaCpyEYQsDfGPqh9ESF-52" vertex="1">
          <mxGeometry x="154.5" y="78.82000000000016" width="79" height="29" as="geometry" />
        </mxCell>
        <mxCell id="Cf-eS_Z8wyuZi8RKvG80-99" value="&lt;font face=&quot;arial&quot; style=&quot;font-size: 16px;&quot;&gt;&lt;b style=&quot;font-size: 16px;&quot;&gt;Subaccount&lt;/b&gt;&lt;/font&gt;" style="text;html=1;align=left;verticalAlign=middle;resizable=0;points=[];autosize=1;strokeColor=none;fillColor=none;fontSize=12;fontColor=#1d2d3e;fontFamily=Helvetica;" parent="UHaCpyEYQsDfGPqh9ESF-52" vertex="1">
          <mxGeometry x="153.5" y="59.819999999999936" width="120" height="30" as="geometry" />
        </mxCell>
        <mxCell id="Cf-eS_Z8wyuZi8RKvG80-100" value="" style="endArrow=blockThin;html=1;strokeColor=#475E75;bendable=1;rounded=0;endFill=1;endSize=4;strokeWidth=1.5;entryX=0;entryY=0.5;entryDx=0;entryDy=0;entryPerimeter=0;startSize=4;" parent="UHaCpyEYQsDfGPqh9ESF-52" source="Cf-eS_Z8wyuZi8RKvG80-96" target="Cf-eS_Z8wyuZi8RKvG80-102" edge="1">
          <mxGeometry width="50" height="50" relative="1" as="geometry">
            <mxPoint x="253.5" y="193.8800000000001" as="sourcePoint" />
            <mxPoint x="325.5" y="191.8800000000001" as="targetPoint" />
            <Array as="points" />
          </mxGeometry>
        </mxCell>
        <mxCell id="Cf-eS_Z8wyuZi8RKvG80-101" value="" style="group" parent="UHaCpyEYQsDfGPqh9ESF-52" vertex="1" connectable="0">
          <mxGeometry x="257.5" y="138" width="110" height="95" as="geometry" />
        </mxCell>
        <mxCell id="Cf-eS_Z8wyuZi8RKvG80-102" value="" style="shape=image;verticalLabelPosition=bottom;verticalAlign=top;imageAspect=0;aspect=fixed;image=data:image/svg+xml,PHN2ZyB4bWxucz0iaHR0cDovL3d3dy53My5vcmcvMjAwMC9zdmciIGZpbGw9Im5vbmUiIHZpZXdCb3g9IjAgMCA0OSA0OSIgaGVpZ2h0PSI0OSIgd2lkdGg9IjQ5Ij4mI3hhOzxnIGNsaXAtcGF0aD0idXJsKCNjbGlwMF8yNjIyXzQxNTYpIj4mI3hhOzxjaXJjbGUgc3Ryb2tlLXdpZHRoPSIwLjg1NzE0MyIgc3Ryb2tlPSIjRDVEQUREIiBmaWxsPSJ1cmwoI3BhaW50MF9saW5lYXJfMjYyMl80MTU2KSIgcj0iMjMuNTcxNCIgY3k9IjI0LjAzNDkiIGN4PSIyNC41Ii8+JiN4YTs8ZyBjbGlwLXBhdGg9InVybCgjY2xpcDFfMjYyMl80MTU2KSI+JiN4YTs8cGF0aCBzdHJva2UtbGluZWNhcD0icm91bmQiIHN0cm9rZS13aWR0aD0iMi4zNjI1IiBzdHJva2U9InVybCgjcGFpbnQxX3JhZGlhbF8yNjIyXzQxNTYpIiBkPSJNMTguNzcxOCAxNS44MDI0QzE3Ljc5MzggMTYuNDg0MiAxNi45NDMgMTcuMzM1OCAxNi4yNjIxIDE4LjMxNDVNMzIuNzM4IDE4LjMxNDVDMzIuMDU3MSAxNy4zMzU4IDMxLjIwNjMgMTYuNDg0MiAzMC4yMjgyIDE1LjgwMjRNMTYuMjYyMSAyOS43NTUzQzE2Ljk0MyAzMC43MzQgMTcuNzkzOCAzMS41ODU2IDE4Ljc3MTggMzIuMjY3NE0zMC4yMjgzIDMyLjI2NzRDMzEuMjA2MyAzMS41ODU2IDMyLjA1NzEgMzAuNzM0IDMyLjczOCAyOS43NTUzIi8+JiN4YTs8cGF0aCBmaWxsPSJ1cmwoI3BhaW50Ml9yYWRpYWxfMjYyMl80MTU2KSIgZD0iTTExLjA4NDQgMjQuMDYyNkMxMS4wODQ0IDIyLjIwMzcgMTIuNjAwMyAyMC42OTY1IDE0LjQ3IDIwLjY5NjVDMTYuMzM5NyAyMC42OTY1IDE3Ljg1NTYgMjIuMjAzNyAxNy44NTU2IDI0LjA2MjZDMTcuODU1NiAyNS45MjE2IDE2LjMzOTcgMjcuNDI4OCAxNC40NyAyNy40Mjg4QzEyLjYwMDMgMjcuNDI4OCAxMS4wODQ0IDI1LjkyMTYgMTEuMDg0NCAyNC4wNjI2Wk0xNC40NyAyMi45NEMxMy44NDcgMjIuOTQgMTMuMzQxNyAyMy40NDI0IDEzLjM0MTcgMjQuMDYxOEMxMy4zNDE3IDI0LjY4MTIgMTMuODQ3IDI1LjE4MzYgMTQuNDcgMjUuMTgzNkMxNS4wOTI5IDI1LjE4MzYgMTUuNTk4MiAyNC42ODEyIDE1LjU5ODIgMjQuMDYxOEMxNS41OTgyIDIzLjQ0MjQgMTUuMDkyOSAyMi45NCAxNC40NyAyMi45NFoiLz4mI3hhOzxwYXRoIGZpbGw9InVybCgjcGFpbnQzX3JhZGlhbF8yNjIyXzQxNTYpIiBkPSJNMzEuMTQ0MyAyNC4wNjI2QzMxLjE0NDMgMjIuMjAzNyAzMi42NjAyIDIwLjY5NjUgMzQuNTI5OSAyMC42OTY1QzM2LjM5OTYgMjAuNjk2NSAzNy45MTU2IDIyLjIwMzcgMzcuOTE1NiAyNC4wNjI2QzM3LjkxNTYgMjUuOTIxNiAzNi4zOTk2IDI3LjQyODggMzQuNTI5OSAyNy40Mjg4QzMyLjY2MDIgMjcuNDI4OCAzMS4xNDQzIDI1LjkyMTYgMzEuMTQ0MyAyNC4wNjI2Wk0zNC41Mjk5IDIyLjk0QzMzLjkwNyAyMi45NCAzMy40MDE3IDIzLjQ0MjQgMzMuNDAxNyAyNC4wNjE4QzMzLjQwMTcgMjQuNjgxMiAzMy45MDcgMjUuMTgzNiAzNC41Mjk5IDI1LjE4MzZDMzUuMTUyOSAyNS4xODM2IDM1LjY1ODIgMjQuNjgxMiAzNS42NTgyIDI0LjA2MThDMzUuNjU4MiAyMy40NDI0IDM1LjE1MjkgMjIuOTQgMzQuNTI5OSAyMi45NFoiLz4mI3hhOzxwYXRoIGZpbGw9InVybCgjcGFpbnQ0X3JhZGlhbF8yNjIyXzQxNTYpIiBkPSJNMjQuNTEwNiAxMC42NDA0QzI2LjM4MDMgMTAuNjQwNCAyNy44OTYyIDEyLjE0NzYgMjcuODk2MiAxNC4wMDY1QzI3Ljg5NjIgMTUuODY1NSAyNi4zODAzIDE3LjM3MjcgMjQuNTEwNiAxNy4zNzI3QzIyLjY0MDkgMTcuMzcyNyAyMS4xMjUgMTUuODY1NSAyMS4xMjUgMTQuMDA2NUMyMS4xMjUgMTIuMTQ3NiAyMi42NDA5IDEwLjY0MDQgMjQuNTEwNiAxMC42NDA0Wk0yNS42Mzk3IDE0LjAwNjVDMjUuNjM5NyAxMy4zODcyIDI1LjEzNDQgMTIuODg0OCAyNC41MTE1IDEyLjg4NDhDMjMuODg4NSAxMi44ODQ4IDIzLjM4MzIgMTMuMzg3MiAyMy4zODMyIDE0LjAwNjVDMjMuMzgzMiAxNC42MjU5IDIzLjg4ODUgMTUuMTI4MyAyNC41MTE1IDE1LjEyODNDMjUuMTM0NCAxNS4xMjgzIDI1LjYzOTcgMTQuNjI1OSAyNS42Mzk3IDE0LjAwNjVaIi8+JiN4YTs8cGF0aCBmaWxsPSJ1cmwoI3BhaW50NV9yYWRpYWxfMjYyMl80MTU2KSIgZD0iTTI0LjUxMDYgMzAuNjk3MkMyNi4zODAzIDMwLjY5NzIgMjcuODk2MiAzMi4yMDQ0IDI3Ljg5NjIgMzQuMDYzM0MyNy44OTYyIDM1LjkyMjMgMjYuMzgwMyAzNy40Mjk1IDI0LjUxMDYgMzcuNDI5NUMyMi42NDA5IDM3LjQyOTUgMjEuMTI1IDM1LjkyMjMgMjEuMTI1IDM0LjA2MzNDMjEuMTI1IDMyLjIwNDQgMjIuNjQwOSAzMC42OTcyIDI0LjUxMDYgMzAuNjk3MlpNMjUuNjM5NyAzNC4wNjMzQzI1LjYzOTcgMzMuNDQ0IDI1LjEzNDQgMzIuOTQxNiAyNC41MTE1IDMyLjk0MTZDMjMuODg4NSAzMi45NDE2IDIzLjM4MzIgMzMuNDQ0IDIzLjM4MzIgMzQuMDYzM0MyMy4zODMyIDM0LjY4MjcgMjMuODg4NSAzNS4xODUxIDI0LjUxMTUgMzUuMTg1MUMyNS4xMzQ0IDM1LjE4NTEgMjUuNjM5NyAzNC42ODI3IDI1LjYzOTcgMzQuMDYzM1oiLz4mI3hhOzxwYXRoIGZpbGw9InVybCgjcGFpbnQ2X3JhZGlhbF8yNjIyXzQxNTYpIiBkPSJNMjcuNzMwMiAyMC40OTU0QzI4LjAwMDIgMjAuMjE1OCAyOC4zMDM4IDIwLjA3NTkgMjguNjQxMyAyMC4wNzU5QzI4Ljk3ODcgMjAuMDc1OSAyOS4yODI0IDIwLjIxNTggMjkuNTUyMyAyMC40OTU0QzI5Ljc4ODUgMjAuNzQwMSAyOS45MDY2IDIxLjAzNzMgMjkuOTA2NiAyMS4zODY4QzI5LjkwNjYgMjEuNzM2NCAyOS43ODg1IDIyLjA1MSAyOS41NTIzIDIyLjMzMDdMMjQuNDQwNCAyNy42MjY3QzI0LjIwNDIgMjcuODcxNCAyMy45MDA1IDI3Ljk5MzggMjMuNTI5MyAyNy45OTM4QzIzLjE1ODIgMjcuOTkzOCAyMi44NTQ1IDI3Ljg3MTQgMjIuNjE4MyAyNy42MjY3TDIwLjA4NzYgMjUuMDA0OUMxOS44MTc3IDI0LjcyNTMgMTkuNjgyNyAyNC40MTA2IDE5LjY4MjcgMjQuMDYxMUMxOS42ODI3IDIzLjcxMTUgMTkuODE3NyAyMy4zOTY5IDIwLjA4NzYgMjMuMTE3MkMyMC4zNTc2IDIyLjgzNzYgMjAuNjYxMyAyMi42OTc3IDIwLjk5ODcgMjIuNjk3N0MyMS4zMzYxIDIyLjY5NzcgMjEuNjIyOSAyMi44Mzc2IDIxLjg1OTEgMjMuMTE3MkwyMy41MjkzIDI0Ljg0NzZMMjcuNzMwMiAyMC40OTU0WiIvPiYjeGE7PC9nPiYjeGE7PC9nPiYjeGE7PGRlZnM+JiN4YTs8bGluZWFyR3JhZGllbnQgZ3JhZGllbnRVbml0cz0idXNlclNwYWNlT25Vc2UiIHkyPSI0NC4yNzkyIiB4Mj0iNDEuNTY0NSIgeTE9IjYuODQ3NzUiIHgxPSI0Ljg1Mjg3IiBpZD0icGFpbnQwX2xpbmVhcl8yNjIyXzQxNTYiPiYjeGE7PHN0b3Agc3RvcC1jb2xvcj0id2hpdGUiLz4mI3hhOzxzdG9wIHN0b3AtY29sb3I9IiNFQUVDRUUiIG9mZnNldD0iMSIvPiYjeGE7PC9saW5lYXJHcmFkaWVudD4mI3hhOzxyYWRpYWxHcmFkaWVudCBncmFkaWVudFRyYW5zZm9ybT0idHJhbnNsYXRlKDE4Ljg4NDEgMTguMjczNSkgcm90YXRlKDQ0Ljk4MSkgc2NhbGUoMTYuMzEyIDE5Ljc5NjkpIiBncmFkaWVudFVuaXRzPSJ1c2VyU3BhY2VPblVzZSIgcj0iMSIgY3k9IjAiIGN4PSIwIiBpZD0icGFpbnQxX3JhZGlhbF8yNjIyXzQxNTYiPiYjeGE7PHN0b3Agc3RvcC1jb2xvcj0iIzAwQkJGRiIvPiYjeGE7PHN0b3Agc3RvcC1jb2xvcj0iIzAwOEJGRiIgb2Zmc2V0PSIxIi8+JiN4YTs8L3JhZGlhbEdyYWRpZW50PiYjeGE7PHJhZGlhbEdyYWRpZW50IGdyYWRpZW50VHJhbnNmb3JtPSJ0cmFuc2xhdGUoMTIuMTM0NCAyMS42ODUpIHJvdGF0ZSg0NS4xNTI2KSBzY2FsZSg2LjY0NzYzIDEyLjU2MDgpIiBncmFkaWVudFVuaXRzPSJ1c2VyU3BhY2VPblVzZSIgcj0iMSIgY3k9IjAiIGN4PSIwIiBpZD0icGFpbnQyX3JhZGlhbF8yNjIyXzQxNTYiPiYjeGE7PHN0b3Agc3RvcC1jb2xvcj0iIzAxOTVGRiIvPiYjeGE7PHN0b3Agc3RvcC1jb2xvcj0iIzExNDdFOSIgb2Zmc2V0PSIxIi8+JiN4YTs8L3JhZGlhbEdyYWRpZW50PiYjeGE7PHJhZGlhbEdyYWRpZW50IGdyYWRpZW50VHJhbnNmb3JtPSJ0cmFuc2xhdGUoMzIuMTk0MyAyMS42ODUpIHJvdGF0ZSg0NS4xNTI2KSBzY2FsZSg2LjY0NzYzIDEyLjU2MDgpIiBncmFkaWVudFVuaXRzPSJ1c2VyU3BhY2VPblVzZSIgcj0iMSIgY3k9IjAiIGN4PSIwIiBpZD0icGFpbnQzX3JhZGlhbF8yNjIyXzQxNTYiPiYjeGE7PHN0b3Agc3RvcC1jb2xvcj0iIzAxOTVGRiIvPiYjeGE7PHN0b3Agc3RvcC1jb2xvcj0iIzExNDdFOSIgb2Zmc2V0PSIxIi8+JiN4YTs8L3JhZGlhbEdyYWRpZW50PiYjeGE7PHJhZGlhbEdyYWRpZW50IGdyYWRpZW50VHJhbnNmb3JtPSJ0cmFuc2xhdGUoMjYuOTAyIDExLjY4NDQpIHJvdGF0ZSgxMzUuNDg0KSBzY2FsZSg2LjY0ODA2IDEyLjU2KSIgZ3JhZGllbnRVbml0cz0idXNlclNwYWNlT25Vc2UiIHI9IjEiIGN5PSIwIiBjeD0iMCIgaWQ9InBhaW50NF9yYWRpYWxfMjYyMl80MTU2Ij4mI3hhOzxzdG9wIHN0b3AtY29sb3I9IiMwMTk1RkYiLz4mI3hhOzxzdG9wIHN0b3AtY29sb3I9IiMxMTQ3RTkiIG9mZnNldD0iMSIvPiYjeGE7PC9yYWRpYWxHcmFkaWVudD4mI3hhOzxyYWRpYWxHcmFkaWVudCBncmFkaWVudFRyYW5zZm9ybT0idHJhbnNsYXRlKDI2LjkwMiAzMS43NDEyKSByb3RhdGUoMTM1LjQ4NCkgc2NhbGUoNi42NDgwNiAxMi41NikiIGdyYWRpZW50VW5pdHM9InVzZXJTcGFjZU9uVXNlIiByPSIxIiBjeT0iMCIgY3g9IjAiIGlkPSJwYWludDVfcmFkaWFsXzI2MjJfNDE1NiI+JiN4YTs8c3RvcCBzdG9wLWNvbG9yPSIjMDE5NUZGIi8+JiN4YTs8c3RvcCBzdG9wLWNvbG9yPSIjMTE0N0U5IiBvZmZzZXQ9IjEiLz4mI3hhOzwvcmFkaWFsR3JhZGllbnQ+JiN4YTs8cmFkaWFsR3JhZGllbnQgZ3JhZGllbnRUcmFuc2Zvcm09InRyYW5zbGF0ZSgyMS4yNjU5IDIxLjI2Nykgcm90YXRlKDM3Ljc1NTkpIHNjYWxlKDkuMDA3NjIgNy45NDcyOCkiIGdyYWRpZW50VW5pdHM9InVzZXJTcGFjZU9uVXNlIiByPSIxIiBjeT0iMCIgY3g9IjAiIGlkPSJwYWludDZfcmFkaWFsXzI2MjJfNDE1NiI+JiN4YTs8c3RvcCBzdG9wLWNvbG9yPSIjMTM0OEZGIi8+JiN4YTs8c3RvcCBzdG9wLWNvbG9yPSIjMDYyMzhEIiBvZmZzZXQ9IjEiLz4mI3hhOzwvcmFkaWFsR3JhZGllbnQ+JiN4YTs8Y2xpcFBhdGggaWQ9ImNsaXAwXzI2MjJfNDE1NiI+JiN4YTs8cmVjdCB0cmFuc2Zvcm09InRyYW5zbGF0ZSgwLjUgMC4wMzQ5MTIxKSIgZmlsbD0id2hpdGUiIGhlaWdodD0iNDgiIHdpZHRoPSI0OCIvPiYjeGE7PC9jbGlwUGF0aD4mI3hhOzxjbGlwUGF0aCBpZD0iY2xpcDFfMjYyMl80MTU2Ij4mI3hhOzxyZWN0IHRyYW5zZm9ybT0idHJhbnNsYXRlKDExIDEwLjUzNDkpIiBmaWxsPSJ3aGl0ZSIgaGVpZ2h0PSIyNyIgd2lkdGg9IjI3Ii8+JiN4YTs8L2NsaXBQYXRoPiYjeGE7PC9kZWZzPiYjeGE7PC9zdmc+;points=[[0,0,0,0,0],[0,0.25,0,0,0],[0,0.5,0,0,0],[0,0.75,0,0,0],[0.25,0,0,0,0],[0.5,0,0,0,0],[0.75,0,0,0,0],[1,0,0,0,0],[1,0.25,0,0,0],[1,0.5,0,0,0],[1,0.75,0,0,0]];" parent="Cf-eS_Z8wyuZi8RKvG80-101" vertex="1">
          <mxGeometry x="30.5" width="32" height="32" as="geometry" />
        </mxCell>
        <mxCell id="Cf-eS_Z8wyuZi8RKvG80-103" value="&lt;font size=&quot;1&quot; face=&quot;arial&quot; style=&quot;&quot;&gt;&lt;span style=&quot;font-size: 12px;&quot;&gt;SAP Task &lt;br&gt;Center&lt;br&gt;&lt;/span&gt;&lt;/font&gt;" style="text;html=1;align=center;verticalAlign=top;resizable=1;points=[[0,0.5,0,0,0],[0.21,1,0,0,0],[0.5,1,0,0,0],[0.85,1,0,0,0],[1,0.5,0,0,0]];autosize=0;strokeColor=none;fillColor=none;fontSize=12;fontColor=#1D2D3E;fontFamily=Helvetica;fixedWidth=1;imageWidth=24;whiteSpace=wrap;labelBackgroundColor=none;" parent="Cf-eS_Z8wyuZi8RKvG80-101" vertex="1">
          <mxGeometry x="-8.5" y="32" width="110" height="46" as="geometry" />
        </mxCell>
        <mxCell id="Cf-eS_Z8wyuZi8RKvG80-108" value="" style="endArrow=blockThin;html=1;rounded=0;strokeColor=#188918;endFill=1;startArrow=blockThin;startFill=1;endSize=4;startSize=4;strokeWidth=1.5;exitX=0.229;exitY=-0.001;exitDx=0;exitDy=0;exitPerimeter=0;" parent="UHaCpyEYQsDfGPqh9ESF-52" source="Hm9edAj7zCcvypmeV3OK-20" edge="1">
          <mxGeometry width="50" height="50" relative="1" as="geometry">
            <mxPoint x="220.5020000000004" y="268.078" as="sourcePoint" />
            <mxPoint x="224.5" y="218.81999999999994" as="targetPoint" />
            <Array as="points" />
          </mxGeometry>
        </mxCell>
        <mxCell id="Cf-eS_Z8wyuZi8RKvG80-109" value="&lt;font size=&quot;1&quot; face=&quot;arial&quot; style=&quot;&quot;&gt;&lt;span style=&quot;font-size: 12px;&quot;&gt;Destination&lt;br&gt;&lt;/span&gt;&lt;/font&gt;" style="text;html=1;align=center;verticalAlign=top;resizable=1;points=[[0,0.5,0,0,0],[0.21,1,0,0,0],[0.5,1,0,0,0],[0.85,1,0,0,0],[1,0.5,0,0,0]];autosize=0;strokeColor=none;fillColor=none;fontSize=12;fontColor=#1D2D3E;fontFamily=Helvetica;fixedWidth=1;imageWidth=24;whiteSpace=wrap;labelBackgroundColor=none;" parent="UHaCpyEYQsDfGPqh9ESF-52" vertex="1">
          <mxGeometry x="389" y="169.8800000000001" width="73" height="46" as="geometry" />
        </mxCell>
        <mxCell id="Cf-eS_Z8wyuZi8RKvG80-110" value="" style="shape=image;verticalLabelPosition=bottom;verticalAlign=top;imageAspect=0;image=data:image/svg+xml,PHN2ZyB4bWxucz0iaHR0cDovL3d3dy53My5vcmcvMjAwMC9zdmciIGZpbGw9Im5vbmUiIHZpZXdCb3g9IjAgMCA0OCA0OSIgaGVpZ2h0PSI0OSIgd2lkdGg9IjQ4Ij4mI3hhOzxjaXJjbGUgc3Ryb2tlLXdpZHRoPSIwLjg1NzE0MyIgc3Ryb2tlPSIjRDVEQUREIiBmaWxsPSJ1cmwoI3BhaW50MF9saW5lYXJfMjYyMV8yOTIwMikiIHI9IjIzLjU3MTQiIGN5PSIyNC4wNDkxIiBjeD0iMjQiLz4mI3hhOzxnIGNsaXAtcGF0aD0idXJsKCNjbGlwMF8yNjIxXzI5MjAyKSI+JiN4YTs8cGF0aCBmaWxsPSJ1cmwoI3BhaW50MV9yYWRpYWxfMjYyMV8yOTIwMikiIGQ9Ik0zMC45MTE3IDkuNjAxODFIMjIuOTQyOUMyMi42NDQ2IDkuNjAxODEgMjIuMzU4NSA5LjcyMDMxIDIyLjE0NzYgOS45MzEyNEMyMS45MzY2IDEwLjE0MjIgMjEuODE4MSAxMC40MjgyIDIxLjgxODEgMTAuNzI2NVYxNC42NzVDMjEuODE4MSAxNS41OTc0IDIxLjQ4ODcgMTYuMzg4IDIwLjgyOTkgMTcuMDQ2OUMyMC4xNzEgMTcuNzA1OCAxOS4zODA0IDE4LjAzNTIgMTguNDU4IDE4LjAzNTJIMTQuNTA5NUMxNC4yMTEyIDE4LjAzNTIgMTMuOTI1MSAxOC4xNTM3IDEzLjcxNDIgMTguMzY0NkMxMy41MDMzIDE4LjU3NTUgMTMuMzg0OCAxOC44NjE2IDEzLjM4NDggMTkuMTU5OVYzMy44NDkxQzEzLjM4NDggMzUuMzQwMiAxNC41OTM2IDM2LjU0OTEgMTYuMDg0OCAzNi41NDkxSDIzLjEwMUMyMi41OTQ5IDM2LjA0NSAyMi4xMzM0IDM1LjQ5NjIgMjEuNzIyOCAzNC45MDkxQzIxLjQwMjQgMzQuNDUwOSAyMS41MTQxIDMzLjgxOTYgMjEuOTcyNCAzMy40OTkxQzIyLjQzMDYgMzMuMTc4NyAyMy4wNjE5IDMzLjI5MDQgMjMuMzgyMyAzMy43NDg3QzI0LjA1ODEgMzQuNzE1MiAyNC45MDAxIDM1LjU1NzEgMjUuODY2NiAzNi4yMzI5QzI1Ljk4OTcgMzYuMzE5IDI2LjA4NzggMzYuNDI3NSAyNi4xNTkyIDM2LjU0OTFIMzAuOTExN0MzMi4xNjg1IDM2LjU0OTEgMzMuMjI0NyAzNS42OTA0IDMzLjUyNTcgMzQuNTI3N0MzMy4xMzk0IDM0LjU5ODYgMzIuNzQwNiAzNC42MzM5IDMyLjMzMSAzNC42MzM5SDMwLjk0N0MzMC4xNjY5IDM0LjYzMzkgMjkuNTAwMSAzNC4zMDcyIDI5LjAwMTUgMzMuODA4NkMyOC41OTMzIDMzLjQwMDQgMjguMzMxNiAzMi44OTQzIDI4LjI0MTUgMzIuMzM1M0wyNy4xNTU5IDMyLjM0NzNDMjYuNDUxNSAzMi4zNDczIDI1Ljc0IDMyLjExMTcgMjUuMTgwMyAzMS41NTJDMjQuNjIwNyAzMC45OTI0IDI0LjM4NTIgMzAuMjgwOSAyNC4zODUyIDI5LjU3NjVDMjQuMzg1MiAyOS4wNDY0IDI0LjUxODYgMjguNTEyNCAyNC44MjMgMjguMDQyQzI0LjUxODYgMjcuNTcxNiAyNC4zODUyIDI3LjAzNzYgMjQuMzg1MiAyNi41MDc1QzI0LjM4NTIgMjUuODAzMSAyNC42MjA3IDI1LjA5MTYgMjUuMTgwMyAyNC41MzJDMjUuNzUzOSAyMy45NTg0IDI2LjQ3ODYgMjMuNzY2OSAyNy4xMjU4IDIzLjc2NjlMMjguMjQ0NiAyMy43NjY5QzI4LjMzMTUgMjMuMjI4IDI4LjU3MDMgMjIuNzA2NiAyOS4wMDE1IDIyLjI3NTRDMjkuNTMxNyAyMS43NDUyIDMwLjIyODcgMjEuNDUzIDMwLjk5NzkgMjEuNDc5M0wzMi4zMTIzIDIxLjQ1MDFIMzIuMzMxQzMyLjc3MDcgMjEuNDUwMSAzMy4xOTg1IDIxLjQ4OTIgMzMuNjExNyAyMS41Njg4VjE4LjE1NDNDMzMuNTI5NyAxOC4xNjAyIDMzLjQ0NTcgMTguMTU2MyAzMy4zNjExIDE4LjE0MTNDMzIuNzkxMSAxOC4wNDA2IDMyLjIwMzggMTcuOTg3OSAzMS42MDM1IDE3Ljk4NzlDMzEuMDAzMSAxNy45ODc5IDMwLjQxNTggMTguMDQwNiAyOS44NDU5IDE4LjE0MTNDMjkuMjk1MiAxOC4yMzg2IDI4Ljc2OTkgMTcuODcxMSAyOC42NzI2IDE3LjMyMDVDMjguNTc1MyAxNi43Njk4IDI4Ljk0MjggMTYuMjQ0NSAyOS40OTM0IDE2LjE0NzJDMzAuMTc5MiAxNi4wMjYgMzAuODg0NCAxNS45NjI5IDMxLjYwMzUgMTUuOTYyOUMzMi4yODcgMTUuOTYyOSAzMi45NTggMTYuMDE5OSAzMy42MTE3IDE2LjEyOTdWMTIuMzAxOEMzMy42MTE3IDEwLjgxMDYgMzIuNDAyOSA5LjYwMTgxIDMwLjkxMTcgOS42MDE4MVpNMjYuMTE2MSAxOC4zODA3QzI2LjQzNjYgMTguODM5IDI2LjMyNDkgMTkuNDcwMyAyNS44NjY2IDE5Ljc5MDdDMjQuOTAwMSAyMC40NjY1IDI0LjA1ODEgMjEuMzA4NSAyMy4zODIzIDIyLjI3NUMyMy4wNjE5IDIyLjczMzIgMjIuNDMwNiAyMi44NDQ5IDIxLjk3MjQgMjIuNTI0NUMyMS41MTQxIDIyLjIwNDEgMjEuNDAyNCAyMS41NzI4IDIxLjcyMjggMjEuMTE0NUMyMi41MzQ1IDE5Ljk1MzggMjMuNTQ1NCAxOC45NDI5IDI0LjcwNjIgMTguMTMxMkMyNS4xNjQ0IDE3LjgxMDcgMjUuNzk1NyAxNy45MjI1IDI2LjExNjEgMTguMzgwN1pNMjAuOTEyMSAyNS4wODFDMjEuNDYyOCAyNS4xNzgzIDIxLjgzMDMgMjUuNzAzNiAyMS43MzI5IDI2LjI1NDJDMjEuNjMyMiAyNi44MjQyIDIxLjU3OTUgMjcuNDExNCAyMS41Nzk1IDI4LjAxMThDMjEuNTc5NSAyOC42MTIyIDIxLjYzMjIgMjkuMTk5NSAyMS43MzI5IDI5Ljc2OTRDMjEuODMwMyAzMC4zMjAxIDIxLjQ2MjggMzAuODQ1NCAyMC45MTIxIDMwLjk0MjdDMjAuMzYxNSAzMS4wNCAxOS44MzYyIDMwLjY3MjUgMTkuNzM4OCAzMC4xMjE5QzE5LjYxNzYgMjkuNDM2MSAxOS41NTQ1IDI4LjczMDkgMTkuNTU0NSAyOC4wMTE4QzE5LjU1NDUgMjcuMjkyOCAxOS42MTc2IDI2LjU4NzYgMTkuNzM4OCAyNS45MDE4QzE5LjgzNjIgMjUuMzUxMSAyMC4zNjE0IDI0Ljk4MzYgMjAuOTEyMSAyNS4wODFaIiBjbGlwLXJ1bGU9ImV2ZW5vZGQiIGZpbGwtcnVsZT0iZXZlbm9kZCIvPiYjeGE7PHBhdGggZmlsbD0idXJsKCNwYWludDJfcmFkaWFsXzI2MjFfMjkyMDIpIiBkPSJNMjYuMzczNiAyNS43MjUyQzI2LjE3MyAyNS45MjU4IDI2LjA3MjggMjYuMTg2NiAyNi4wNzI4IDI2LjUwNzVDMjYuMDcyOCAyNi44Mjg0IDI2LjE3MyAyNy4wODkyIDI2LjM3MzYgMjcuMjg5OEMyNi41NzQyIDI3LjQ5MDQgMjYuODM1IDI3LjU5MDcgMjcuMTU1OSAyNy41OTA3TDI5Ljg5MzkgMjcuNTYwNkwyOS44OTM5IDI4LjUyMzRMMjcuMTU1OSAyOC40OTMzQzI2LjgzNSAyOC40OTMzIDI2LjU3NDIgMjguNTkzNiAyNi4zNzM2IDI4Ljc5NDJDMjYuMTczIDI4Ljk5NDggMjYuMDcyOCAyOS4yNTU2IDI2LjA3MjggMjkuNTc2NUMyNi4wNzI4IDI5Ljg5NzQgMjYuMTczIDMwLjE1ODIgMjYuMzczNiAzMC4zNTg4QzI2LjU3NDIgMzAuNTU5NCAyNi44MzUgMzAuNjU5NyAyNy4xNTU5IDMwLjY1OTdMMjkuODkzOSAzMC42Mjk2VjMxLjg5MzNDMjkuODkzOSAzMi4xNzQxIDI5Ljk5NDIgMzIuNDE0OCAzMC4xOTQ4IDMyLjYxNTRDMzAuNDE1NSAzMi44MzYgMzAuNjY2MiAzMi45NDY0IDMwLjk0NyAzMi45NDY0SDMyLjMzMTFDMzMuNDk0NSAzMi45NDY0IDM0LjQ4NzQgMzIuNTc1MyAzNS4zMDk4IDMxLjgzMzFDMzYuMTMyMiAzMS4wOTA5IDM2LjYwMzYgMzAuMTU4MiAzNi43MjQgMjkuMDM0OUwzOS40Mjc4IDI5LjAzNDlDMzkuNzQ4NyAyOS4wMzQ5IDQwLjAwOTUgMjguOTM0NiA0MC4yMTAxIDI4LjczNEM0MC4zOTA2IDI4LjU1MzUgNDAuNDgwOSAyOC4zMDI3IDQwLjQ4MDkgMjcuOTgxOEM0MC40ODA5IDI3LjY2MDkgNDAuMzgwNiAyNy40MDAxIDQwLjE4IDI3LjE5OTVDMzkuOTc5NCAyNi45OTg5IDM5LjcxODcgMjYuODk4NiAzOS4zOTc3IDI2Ljg5ODZMMzYuNjkzOSAyNi44OTg3QzM2LjUzMzQgMjUuODE1NSAzNi4wNTIgMjQuOTEyOCAzNS4yNDk2IDI0LjE5MDdDMzQuNDY3MyAyMy40ODg3IDMzLjQ5NDUgMjMuMTM3NiAzMi4zMzExIDIzLjEzNzZMMzAuOTc3MSAyMy4xNjc3QzMwLjY3NjIgMjMuMTQ3NyAzMC40MTU1IDIzLjI0OCAzMC4xOTQ4IDIzLjQ2ODZDMjkuOTk0MiAyMy42NjkyIDI5Ljg5MzkgMjMuOTMgMjkuODkzOSAyNC4yNTA5TDI5Ljg5MzkgMjUuNDU0NEwyNy4xMjU4IDI1LjQ1NDRDMjYuODA0OSAyNS40NTQ0IDI2LjU1NDIgMjUuNTQ0NyAyNi4zNzM2IDI1LjcyNTJaIi8+JiN4YTs8cGF0aCBmaWxsPSJ1cmwoI3BhaW50M19yYWRpYWxfMjYyMV8yOTIwMikiIGQ9Ik0yMC41NjcgMTQuNTA1NFYxMS41MTE4TDE1LjI5NDcgMTYuNzg0MUgxOC4yODgzQzE4LjkxMzggMTYuNzg0MSAxOS40NSAxNi41NjA3IDE5Ljg5NjggMTYuMTEzOUMyMC4zNDM2IDE1LjY2NzEgMjAuNTY3IDE1LjEzMDkgMjAuNTY3IDE0LjUwNTRaIi8+JiN4YTs8L2c+JiN4YTs8ZGVmcz4mI3hhOzxsaW5lYXJHcmFkaWVudCBncmFkaWVudFVuaXRzPSJ1c2VyU3BhY2VPblVzZSIgeTI9IjQ0LjI5MzQiIHgyPSI0MS4wNjQ1IiB5MT0iNi44NjE5MSIgeDE9IjQuMzUyODciIGlkPSJwYWludDBfbGluZWFyXzI2MjFfMjkyMDIiPiYjeGE7PHN0b3Agc3RvcC1jb2xvcj0id2hpdGUiLz4mI3hhOzxzdG9wIHN0b3AtY29sb3I9IiNFQUVDRUUiIG9mZnNldD0iMSIvPiYjeGE7PC9saW5lYXJHcmFkaWVudD4mI3hhOzxyYWRpYWxHcmFkaWVudCBncmFkaWVudFRyYW5zZm9ybT0idHJhbnNsYXRlKDE2LjUyMTQgMTMuNTU4NSkgcm90YXRlKDUzLjQxMjYpIHNjYWxlKDIzLjQ5NDggNDIuNDkzOSkiIGdyYWRpZW50VW5pdHM9InVzZXJTcGFjZU9uVXNlIiByPSIxIiBjeT0iMCIgY3g9IjAiIGlkPSJwYWludDFfcmFkaWFsXzI2MjFfMjkyMDIiPiYjeGE7PHN0b3Agc3RvcC1jb2xvcj0iIzAxOTVGRiIvPiYjeGE7PHN0b3Agc3RvcC1jb2xvcj0iIzExNDdFOSIgb2Zmc2V0PSIxIi8+JiN4YTs8L3JhZGlhbEdyYWRpZW50PiYjeGE7PHJhZGlhbEdyYWRpZW50IGdyYWRpZW50VHJhbnNmb3JtPSJ0cmFuc2xhdGUoMjguMzAzOCAyNC42MTMyKSByb3RhdGUoMzQuMjQ2MSkgc2NhbGUoMTIuMTQxMyAxMC4yOTM1KSIgZ3JhZGllbnRVbml0cz0idXNlclNwYWNlT25Vc2UiIHI9IjEiIGN5PSIwIiBjeD0iMCIgaWQ9InBhaW50Ml9yYWRpYWxfMjYyMV8yOTIwMiI+JiN4YTs8c3RvcCBzdG9wLWNvbG9yPSIjMTM0OEZGIi8+JiN4YTs8c3RvcCBzdG9wLWNvbG9yPSIjMDYyMzhEIiBvZmZzZXQ9IjEiLz4mI3hhOzwvcmFkaWFsR3JhZGllbnQ+JiN4YTs8cmFkaWFsR3JhZGllbnQgZ3JhZGllbnRUcmFuc2Zvcm09InRyYW5zbGF0ZSgxNi4xMTExIDEyLjMwNDkpIHJvdGF0ZSg0NSkgc2NhbGUoNS4xOTM3NyA0LjczMjg5KSIgZ3JhZGllbnRVbml0cz0idXNlclNwYWNlT25Vc2UiIHI9IjEiIGN5PSIwIiBjeD0iMCIgaWQ9InBhaW50M19yYWRpYWxfMjYyMV8yOTIwMiI+JiN4YTs8c3RvcCBzdG9wLWNvbG9yPSIjMTM0OEZGIi8+JiN4YTs8c3RvcCBzdG9wLWNvbG9yPSIjMDYyMzhEIiBvZmZzZXQ9IjEiLz4mI3hhOzwvcmFkaWFsR3JhZGllbnQ+JiN4YTs8Y2xpcFBhdGggaWQ9ImNsaXAwXzI2MjFfMjkyMDIiPiYjeGE7PHJlY3QgdHJhbnNmb3JtPSJ0cmFuc2xhdGUoMTMuNSA5LjU0OTA3KSIgZmlsbD0id2hpdGUiIGhlaWdodD0iMjciIHdpZHRoPSIyNyIvPiYjeGE7PC9jbGlwUGF0aD4mI3hhOzwvZGVmcz4mI3hhOzwvc3ZnPg==;points=[[0,0,0,0,0],[0,0.25,0,0,0],[0,0.5,0,0,0],[0,0.75,0,0,0],[0.25,0,0,0,0],[0.5,0,0,0,0],[0.75,0,0,0,0],[1,0,0,0,0],[1,0.25,0,0,0],[1,0.5,0,0,0],[1,0.75,0,0,0]];" parent="UHaCpyEYQsDfGPqh9ESF-52" vertex="1">
          <mxGeometry x="409.5" y="138" width="32" height="32" as="geometry" />
        </mxCell>
        <mxCell id="Cf-eS_Z8wyuZi8RKvG80-111" value="&lt;font color=&quot;#5b738b&quot; size=&quot;1&quot; face=&quot;arial&quot; style=&quot;&quot;&gt;&lt;b style=&quot;&quot;&gt;NETWORK&lt;/b&gt;&lt;/font&gt;" style="text;html=1;align=left;verticalAlign=middle;resizable=0;points=[];autosize=1;strokeColor=none;fillColor=none;fontSize=12;fontColor=default;fontFamily=Helvetica;" parent="UHaCpyEYQsDfGPqh9ESF-52" vertex="1">
          <mxGeometry x="634.4999999999995" y="30.38000000000011" width="80" height="30" as="geometry" />
        </mxCell>
        <mxCell id="Cf-eS_Z8wyuZi8RKvG80-112" value="" style="endArrow=blockThin;html=1;strokeColor=#475E75;bendable=1;rounded=0;endFill=1;endSize=4;strokeWidth=1.5;entryX=0;entryY=0.5;entryDx=0;entryDy=0;startSize=4;exitX=0.5;exitY=0;exitDx=0;exitDy=0;exitPerimeter=0;" parent="UHaCpyEYQsDfGPqh9ESF-52" source="Cf-eS_Z8wyuZi8RKvG80-110" target="Cf-eS_Z8wyuZi8RKvG80-116" edge="1">
          <mxGeometry width="50" height="50" relative="1" as="geometry">
            <mxPoint x="366.5" y="85.13999999999987" as="sourcePoint" />
            <mxPoint x="438.5" y="88.88000000000011" as="targetPoint" />
            <Array as="points">
              <mxPoint x="425.5" y="90" />
            </Array>
          </mxGeometry>
        </mxCell>
        <mxCell id="Cf-eS_Z8wyuZi8RKvG80-116" value="" style="shape=image;verticalLabelPosition=bottom;verticalAlign=top;imageAspect=0;aspect=fixed;image=data:image/svg+xml,PHN2ZyB4bWxucz0iaHR0cDovL3d3dy53My5vcmcvMjAwMC9zdmciIGZpbGw9Im5vbmUiIHZpZXdCb3g9IjAgMCA0OSA0OSIgaGVpZ2h0PSI0OSIgd2lkdGg9IjQ5Ij4mI3hhOzxjaXJjbGUgc3Ryb2tlLXdpZHRoPSIwLjg1NzE0MyIgc3Ryb2tlPSIjRDVEQUREIiBmaWxsPSJ1cmwoI3BhaW50MF9saW5lYXJfMjYyMl8yOTA3KSIgcj0iMjMuNTcxNCIgY3k9IjI0LjAzNDkiIGN4PSIyNC41Ii8+JiN4YTs8ZyBjbGlwLXBhdGg9InVybCgjY2xpcDBfMjYyMl8yOTA3KSI+JiN4YTs8cGF0aCBmaWxsPSJ1cmwoI3BhaW50MV9yYWRpYWxfMjYyMl8yOTA3KSIgZD0iTTI2LjA3NjEgMTMuNTQ3OEMyNi4wNzYxIDEyLjgwMjIgMjYuNjgwNSAxMi4xOTc4IDI3LjQyNjEgMTIuMTk3OEgzMS41OTM0QzM0LjIwMjkgMTIuMTk3OCAzNi4zMTg0IDE0LjMxMzIgMzYuMzE4NCAxNi45MjI4VjIwLjUxMTdDMzYuMzE4NCAyMS4yNTczIDM1LjcxNCAyMS44NjE3IDM0Ljk2ODQgMjEuODYxN0MzNC4yMjI4IDIxLjg2MTcgMzMuNjE4NCAyMS4yNTczIDMzLjYxODQgMjAuNTExN1YxNi45MjI4QzMzLjYxODQgMTUuODA0NCAzMi43MTE4IDE0Ljg5NzggMzEuNTkzNCAxNC44OTc4SDI3LjQyNjFDMjYuNjgwNSAxNC44OTc4IDI2LjA3NjEgMTQuMjkzNCAyNi4wNzYxIDEzLjU0NzhaTTE0LjAzMDQgMjUuNDc3OEMxNC43NzYgMjUuNDc3OCAxNS4zODA0IDI2LjA4MjIgMTUuMzgwNCAyNi44Mjc4VjMxLjEzMzlDMTUuMzgwNCAzMi4yNTIzIDE2LjI4NyAzMy4xNTg5IDE3LjQwNTQgMzMuMTU4OUgyMS45ODkyQzIyLjczNDcgMzMuMTU4OSAyMy4zMzkyIDMzLjc2MzMgMjMuMzM5MiAzNC41MDg5QzIzLjMzOTIgMzUuMjU0NSAyMi43MzQ3IDM1Ljg1ODkgMjEuOTg5MiAzNS44NTg5SDE3LjQwNTRDMTQuNzk1OSAzNS44NTg5IDEyLjY4MDQgMzMuNzQzNCAxMi42ODA0IDMxLjEzMzlWMjYuODI3OEMxMi42ODA0IDI2LjA4MjIgMTMuMjg0OCAyNS40Nzc4IDE0LjAzMDQgMjUuNDc3OFoiIGNsaXAtcnVsZT0iZXZlbm9kZCIgZmlsbC1ydWxlPSJldmVub2RkIi8+JiN4YTs8cGF0aCBmaWxsPSJ1cmwoI3BhaW50Ml9yYWRpYWxfMjYyMl8yOTA3KSIgZD0iTTM3LjU3ODEgMzQuNjU2NkMzNy44NTk0IDM0LjkzNzggMzggMzUuMjM2NyAzOCAzNS41NTMxQzM4IDM1LjkwNDYgMzcuODU5NCAzNi4yMjEgMzcuNTc4MSAzNi41MDIzQzM3LjI5NjkgMzYuNzgzNSAzNi45ODA1IDM2LjkyNDIgMzYuNjI4OSAzNi45MjQyQzM2LjMxMjUgMzYuOTI0MiAzNi4wMTM3IDM2Ljc4MzUgMzUuNzMyNCAzNi41MDIzTDMxLjk4ODMgMzIuNzU4MUMzMC44OTg0IDMzLjcwNzQgMjkuNjY4IDM0LjE2NDQgMjguMjk2OSAzNC4xMjkyQzI2LjkyNTggMzQuMDU4OSAyNS43MzA1IDMzLjUxNCAyNC43MTA5IDMyLjQ5NDVMMjMuNDk4IDMxLjI4MTZDMjMuMjE2OCAzMS4wMDAzIDIzLjA3NjIgMzAuNzAxNSAyMy4wNzYyIDMwLjM4NTFDMjMuMDc2MiAzMC4wMzM1IDIzLjIxNjggMjkuNzE3MSAyMy40OTggMjkuNDM1OUwzMC4zNTM1IDIyLjU4MDRDMzAuNjM0OCAyMi4yOTkyIDMwLjk1MTIgMjIuMTU4NSAzMS4zMDI3IDIyLjE1ODVDMzEuNjU0MyAyMi4xNTg1IDMxLjk3MDcgMjIuMjk5MiAzMi4yNTIgMjIuNTgwNEwzMy40NjQ4IDIzLjc5MzNDMzQuNDg0NCAyNC44MTI4IDM1LjAxMTcgMjUuOTkwNiAzNS4wNDY5IDI3LjMyNjVDMzUuMTE3MiAyOC42MjczIDM0LjcxMjkgMjkuODA1IDMzLjgzNCAzMC44NTk3TDM3LjU3ODEgMzQuNjU2NloiIGNsaXAtcnVsZT0iZXZlbm9kZCIgZmlsbC1ydWxlPSJldmVub2RkIi8+JiN4YTs8cGF0aCBmaWxsPSJ1cmwoI3BhaW50M19yYWRpYWxfMjYyMl8yOTA3KSIgZD0iTTIzLjczMjMgMjUuOTM4NkMyMy40NTExIDI2LjIxOTggMjMuMTM0NyAyNi4zNjA1IDIyLjc4MzEgMjYuMzYwNUMyMi40NjY3IDI2LjM2MDUgMjIuMTY3OSAyNi4yMTk4IDIxLjg4NjYgMjUuOTM4NkwxOS40NjA4IDIzLjUxMjhMMTguNDA2MSAyNC41Njc1QzE4LjEyNDkgMjQuODQ4NyAxNy44MDg1IDI0Ljk4OTQgMTcuNDU2OSAyNC45ODk0QzE3LjA3MDIgMjQuOTg5NCAxNi43NTM4IDI0Ljg0ODcgMTYuNTA3NyAyNC41Njc1TDE1LjI5NDggMjMuNDA3M0MxNC4yNzUzIDIyLjM4NzggMTMuNzMwMyAyMS4yMjc2IDEzLjY2IDE5LjkyNjlDMTMuNTg5NyAxOC41OTA5IDEzLjk1ODkgMTcuMzc4IDE0Ljc2NzUgMTYuMjg4MkwxMS40MjE5IDEyLjg1NTJDMTEuMTQwNiAxMi41NzQgMTEgMTIuMjU3NiAxMSAxMS45MDZDMTEgMTEuNTU0NCAxMS4xNDA2IDExLjIzOCAxMS40MjE5IDEwLjk1NjhDMTEuNzAzMSAxMC42NzU1IDEyLjAwMiAxMC41MzQ5IDEyLjMxODQgMTAuNTM0OUMxMi42Njk5IDEwLjUzNDkgMTIuOTg2MyAxMC42NzU1IDEzLjI2NzYgMTAuOTU2OEwxNi42MTMyIDE0LjM4OThDMTcuNzAzIDEzLjUxMDggMTguOTMzNSAxMy4xMDY1IDIwLjMwNDYgMTMuMTc2OUMyMS42NzU3IDEzLjI0NzIgMjIuODcxIDEzLjc5MjEgMjMuODkwNSAxNC44MTE2TDI1LjEwMzQgMTYuMDI0NUMyNS4zNDk1IDE2LjI3MDYgMjUuNDcyNiAxNi41ODcgMjUuNDcyNiAxNi45NzM3QzI1LjQ3MjYgMTcuMzI1MyAyNS4zNDk1IDE3LjYyNDEgMjUuMTAzNCAxNy44NzAyTDIzLjk5NiAxOC45Nzc2TDI2LjQyMTggMjEuMzUwN0MyNi43MDMxIDIxLjYzMTkgMjYuODQzNyAyMS45NDgzIDI2Ljg0MzcgMjIuMjk5OUMyNi44NDM3IDIyLjY1MTUgMjYuNzAzMSAyMi45Njc5IDI2LjQyMTggMjMuMjQ5MUMyNi4xNDA2IDIzLjUzMDQgMjUuODI0MSAyMy42NzEgMjUuNDcyNiAyMy42NzFDMjUuMTIxIDIzLjY3MSAyNC44MDQ2IDIzLjUzMDQgMjQuNTIzNCAyMy4yNDkxTDIyLjE1MDMgMjAuODIzM0wyMS4zMDY1IDIxLjY2NzFMMjIuNTE5NCAyMi44NTM2TDIzLjczMjMgMjQuMDQwMUMyNC4wMTM2IDI0LjMyMTQgMjQuMTU0MiAyNC42Mzc4IDI0LjE1NDIgMjQuOTg5NEMyNC4xNTQyIDI1LjM0MDkgMjQuMDEzNiAyNS42NTczIDIzLjczMjMgMjUuOTM4NloiLz4mI3hhOzwvZz4mI3hhOzxkZWZzPiYjeGE7PGxpbmVhckdyYWRpZW50IGdyYWRpZW50VW5pdHM9InVzZXJTcGFjZU9uVXNlIiB5Mj0iNDQuMjc5MiIgeDI9IjQxLjU2NDUiIHkxPSI2Ljg0Nzc1IiB4MT0iNC44NTI4NyIgaWQ9InBhaW50MF9saW5lYXJfMjYyMl8yOTA3Ij4mI3hhOzxzdG9wIHN0b3AtY29sb3I9IndoaXRlIi8+JiN4YTs8c3RvcCBzdG9wLWNvbG9yPSIjRUFFQ0VFIiBvZmZzZXQ9IjEiLz4mI3hhOzwvbGluZWFyR3JhZGllbnQ+JiN4YTs8cmFkaWFsR3JhZGllbnQgZ3JhZGllbnRUcmFuc2Zvcm09InRyYW5zbGF0ZSgxNi4zNDYgMTUuNjcxOSkgcm90YXRlKDQ1LjM0NjEpIHNjYWxlKDIzLjI4NTYgNDMuOTk1OCkiIGdyYWRpZW50VW5pdHM9InVzZXJTcGFjZU9uVXNlIiByPSIxIiBjeT0iMCIgY3g9IjAiIGlkPSJwYWludDFfcmFkaWFsXzI2MjJfMjkwNyI+JiN4YTs8c3RvcCBzdG9wLWNvbG9yPSIjMDE5NUZGIi8+JiN4YTs8c3RvcCBzdG9wLWNvbG9yPSIjMTE0N0U5IiBvZmZzZXQ9IjEiLz4mI3hhOzwvcmFkaWFsR3JhZGllbnQ+JiN4YTs8cmFkaWFsR3JhZGllbnQgZ3JhZGllbnRUcmFuc2Zvcm09InRyYW5zbGF0ZSgyNS40NTEyIDI0LjM3NDYpIHJvdGF0ZSg0NC42OTQ3KSBzY2FsZSgxNC43MDIxIDE3Ljg0MjEpIiBncmFkaWVudFVuaXRzPSJ1c2VyU3BhY2VPblVzZSIgcj0iMSIgY3k9IjAiIGN4PSIwIiBpZD0icGFpbnQyX3JhZGlhbF8yNjIyXzI5MDciPiYjeGE7PHN0b3Agc3RvcC1jb2xvcj0iIzAwQkJGRiIvPiYjeGE7PHN0b3Agc3RvcC1jb2xvcj0iIzAwOEJGRiIgb2Zmc2V0PSIxIi8+JiN4YTs8L3JhZGlhbEdyYWRpZW50PiYjeGE7PHJhZGlhbEdyYWRpZW50IGdyYWRpZW50VHJhbnNmb3JtPSJ0cmFuc2xhdGUoMTMuNDUzNCAxMi45MTU2KSByb3RhdGUoNDQuOTY3Mikgc2NhbGUoMTUuNTk4NyAxNC4yMTQ1KSIgZ3JhZGllbnRVbml0cz0idXNlclNwYWNlT25Vc2UiIHI9IjEiIGN5PSIwIiBjeD0iMCIgaWQ9InBhaW50M19yYWRpYWxfMjYyMl8yOTA3Ij4mI3hhOzxzdG9wIHN0b3AtY29sb3I9IiMxMzQ4RkYiLz4mI3hhOzxzdG9wIHN0b3AtY29sb3I9IiMwNjIzOEQiIG9mZnNldD0iMSIvPiYjeGE7PC9yYWRpYWxHcmFkaWVudD4mI3hhOzxjbGlwUGF0aCBpZD0iY2xpcDBfMjYyMl8yOTA3Ij4mI3hhOzxyZWN0IHRyYW5zZm9ybT0idHJhbnNsYXRlKDExIDEwLjUzNDkpIiBmaWxsPSJ3aGl0ZSIgaGVpZ2h0PSIyNyIgd2lkdGg9IjI3Ii8+JiN4YTs8L2NsaXBQYXRoPiYjeGE7PC9kZWZzPiYjeGE7PC9zdmc+" parent="UHaCpyEYQsDfGPqh9ESF-52" vertex="1">
          <mxGeometry x="505.5" y="74.00999999999976" width="32" height="32" as="geometry" />
        </mxCell>
        <mxCell id="Cf-eS_Z8wyuZi8RKvG80-117" value="&lt;font size=&quot;1&quot; face=&quot;arial&quot; style=&quot;&quot;&gt;&lt;span style=&quot;font-size: 12px;&quot;&gt;Connectivity&lt;br&gt;&lt;/span&gt;&lt;/font&gt;" style="text;html=1;align=center;verticalAlign=top;resizable=1;points=[[0,0.5,0,0,0],[0.21,1,0,0,0],[0.5,1,0,0,0],[0.85,1,0,0,0],[1,0.5,0,0,0]];autosize=0;strokeColor=none;fillColor=none;fontSize=12;fontColor=#1D2D3E;fontFamily=Helvetica;fixedWidth=1;imageWidth=24;whiteSpace=wrap;labelBackgroundColor=none;" parent="UHaCpyEYQsDfGPqh9ESF-52" vertex="1">
          <mxGeometry x="467.5" y="100.13999999999987" width="110" height="46" as="geometry" />
        </mxCell>
        <mxCell id="Cf-eS_Z8wyuZi8RKvG80-118" value="&lt;font size=&quot;1&quot;&gt;&lt;b&gt;Task Data&lt;/b&gt;&lt;/font&gt;" style="rounded=1;whiteSpace=wrap;html=1;arcSize=50;strokeColor=#475E75;fillColor=#F5F6F7;fontColor=#475E75;" parent="UHaCpyEYQsDfGPqh9ESF-52" vertex="1">
          <mxGeometry x="599.5" y="146.1400000000001" width="60" height="16" as="geometry" />
        </mxCell>
        <mxCell id="Cf-eS_Z8wyuZi8RKvG80-132" value="&lt;font color=&quot;#475f75&quot; size=&quot;1&quot;&gt;&lt;b style=&quot;&quot;&gt;REST/SPI&lt;/b&gt;&lt;/font&gt;" style="rounded=1;whiteSpace=wrap;html=1;arcSize=50;strokeColor=#475f75;fillColor=default;strokeWidth=1.5;" parent="UHaCpyEYQsDfGPqh9ESF-52" vertex="1">
          <mxGeometry x="747.0000000000002" y="82.00999999999976" width="57" height="16" as="geometry" />
        </mxCell>
        <mxCell id="Cf-eS_Z8wyuZi8RKvG80-93" value="" style="edgeStyle=orthogonalEdgeStyle;rounded=0;orthogonalLoop=1;jettySize=auto;html=1;endArrow=blockThin;endFill=1;strokeColor=#475e74;endSize=4;startSize=4;strokeWidth=1.5;entryX=0;entryY=0.5;entryDx=0;entryDy=0;" parent="UHaCpyEYQsDfGPqh9ESF-52" source="Cf-eS_Z8wyuZi8RKvG80-116" target="Cf-eS_Z8wyuZi8RKvG80-132" edge="1">
          <mxGeometry relative="1" as="geometry">
            <mxPoint x="825.5" y="130.8800000000001" as="targetPoint" />
            <mxPoint x="605.5" y="92.88000000000011" as="sourcePoint" />
            <Array as="points">
              <mxPoint x="717.5" y="90" />
            </Array>
          </mxGeometry>
        </mxCell>
        <mxCell id="Cf-eS_Z8wyuZi8RKvG80-134" value="&lt;font color=&quot;#475f75&quot; size=&quot;1&quot;&gt;&lt;b style=&quot;&quot;&gt;REST/Token&lt;/b&gt;&lt;/font&gt;" style="rounded=1;whiteSpace=wrap;html=1;arcSize=50;strokeColor=#475f75;fillColor=default;strokeWidth=1.5;" parent="UHaCpyEYQsDfGPqh9ESF-52" vertex="1">
          <mxGeometry x="734" y="106.01000000000022" width="70" height="16" as="geometry" />
        </mxCell>
        <mxCell id="2wBJ1yvuTB5yMnCRy2w5-2" value="&lt;p style=&quot;line-height: 100%;&quot;&gt;&lt;b&gt;&lt;font face=&quot;arial black&quot; style=&quot;font-size: 16px;&quot; color=&quot;#ffffff&quot;&gt;3&lt;/font&gt;&lt;/b&gt;&lt;/p&gt;" style="ellipse;whiteSpace=wrap;html=1;aspect=fixed;rotation=0;gradientColor=#0057D2;strokeColor=none;gradientDirection=east;fillColor=#2395FF;rounded=0;pointerEvents=0;fontFamily=Helvetica;fontSize=12;fontColor=default;spacingTop=4;spacingBottom=4;spacingLeft=4;spacingRight=4;" parent="UHaCpyEYQsDfGPqh9ESF-52" vertex="1">
          <mxGeometry x="522.5" y="163.3800000000001" width="30" height="30" as="geometry" />
        </mxCell>
        <mxCell id="2wBJ1yvuTB5yMnCRy2w5-3" value="&lt;p style=&quot;line-height: 100%;&quot;&gt;&lt;b&gt;&lt;font face=&quot;arial black&quot; style=&quot;font-size: 16px;&quot; color=&quot;#ffffff&quot;&gt;4&lt;/font&gt;&lt;/b&gt;&lt;/p&gt;" style="ellipse;whiteSpace=wrap;html=1;aspect=fixed;rotation=0;gradientColor=#0057D2;strokeColor=none;gradientDirection=east;fillColor=#2395FF;rounded=0;pointerEvents=0;fontFamily=Helvetica;fontSize=12;fontColor=default;spacingTop=4;spacingBottom=4;spacingLeft=4;spacingRight=4;" parent="UHaCpyEYQsDfGPqh9ESF-52" vertex="1">
          <mxGeometry x="449.5" y="101.25" width="30" height="30" as="geometry" />
        </mxCell>
        <mxCell id="Cf-eS_Z8wyuZi8RKvG80-104" value="" style="endArrow=blockThin;html=1;strokeColor=#475E75;bendable=1;rounded=0;endFill=1;endSize=4;strokeWidth=1.5;entryX=0;entryY=0.5;entryDx=0;entryDy=0;entryPerimeter=0;startSize=4;exitX=0.965;exitY=0.507;exitDx=0;exitDy=0;exitPerimeter=0;" parent="UHaCpyEYQsDfGPqh9ESF-52" source="Cf-eS_Z8wyuZi8RKvG80-102" edge="1">
          <mxGeometry width="50" height="50" relative="1" as="geometry">
            <mxPoint x="328.5" y="153.91000000000008" as="sourcePoint" />
            <mxPoint x="407.5" y="153.91000000000008" as="targetPoint" />
            <Array as="points" />
          </mxGeometry>
        </mxCell>
        <mxCell id="Cf-eS_Z8wyuZi8RKvG80-135" value="" style="endArrow=none;html=1;strokeColor=#5B738B;bendable=1;rounded=1;endFill=0;endSize=3;strokeWidth=3;jumpStyle=gap;" parent="UHaCpyEYQsDfGPqh9ESF-52" edge="1">
          <mxGeometry width="50" height="50" relative="1" as="geometry">
            <mxPoint x="694.5" y="32.820000000000164" as="sourcePoint" />
            <mxPoint x="696.5" y="399.94000000000005" as="targetPoint" />
            <Array as="points" />
          </mxGeometry>
        </mxCell>
        <mxCell id="Cf-eS_Z8wyuZi8RKvG80-115" value="&lt;font color=&quot;#475e75&quot; size=&quot;1&quot;&gt;&lt;b style=&quot;&quot;&gt;Task Data&lt;/b&gt;&lt;/font&gt;" style="rounded=1;whiteSpace=wrap;html=1;arcSize=50;strokeColor=#475E75;fillColor=#F5F6F7;" parent="UHaCpyEYQsDfGPqh9ESF-52" vertex="1">
          <mxGeometry x="600.5" y="82.00999999999999" width="59" height="16" as="geometry" />
        </mxCell>
        <mxCell id="Hm9edAj7zCcvypmeV3OK-16" value="" style="group" parent="UHaCpyEYQsDfGPqh9ESF-52" vertex="1" connectable="0">
          <mxGeometry x="140.00000000000045" y="258.31999999999994" width="362" height="185" as="geometry" />
        </mxCell>
        <mxCell id="Hm9edAj7zCcvypmeV3OK-17" value="" style="endArrow=none;html=1;strokeColor=#188918;bendable=1;rounded=0;endFill=0;endSize=3;strokeWidth=1.5;entryX=0.5;entryY=0;entryDx=0;entryDy=0;dashed=1;" parent="Hm9edAj7zCcvypmeV3OK-16" edge="1">
          <mxGeometry width="50" height="50" relative="1" as="geometry">
            <mxPoint x="93.2829015544039" y="88" as="sourcePoint" />
            <mxPoint x="94" y="128" as="targetPoint" />
            <Array as="points" />
          </mxGeometry>
        </mxCell>
        <mxCell id="Hm9edAj7zCcvypmeV3OK-18" value="&lt;font color=&quot;#188918&quot; size=&quot;1&quot;&gt;&lt;b style=&quot;&quot;&gt;SAML2/OIDC&lt;/b&gt;&lt;/font&gt;" style="rounded=1;whiteSpace=wrap;html=1;arcSize=50;strokeColor=#188918;fillColor=#f5fae5;fontColor=#266f3a;strokeWidth=1.5;" parent="Hm9edAj7zCcvypmeV3OK-16" vertex="1">
          <mxGeometry x="57" y="104" width="72" height="16" as="geometry" />
        </mxCell>
        <mxCell id="Hm9edAj7zCcvypmeV3OK-19" value="" style="endArrow=none;html=1;strokeColor=#470BED;bendable=1;rounded=0;endFill=0;endSize=3;strokeWidth=1.5;entryX=0.5;entryY=0;entryDx=0;entryDy=0;dashed=1;" parent="Hm9edAj7zCcvypmeV3OK-16" edge="1">
          <mxGeometry width="50" height="50" relative="1" as="geometry">
            <mxPoint x="170.76999999999998" y="88" as="sourcePoint" />
            <mxPoint x="170.76999999999998" y="128" as="targetPoint" />
            <Array as="points" />
          </mxGeometry>
        </mxCell>
        <mxCell id="Hm9edAj7zCcvypmeV3OK-22" value="&lt;div style=&quot;&quot;&gt;&lt;font style=&quot;font-size: 10px;&quot;&gt;3rd party identity provider /&lt;br&gt;identity management&lt;/font&gt;&lt;br&gt;&lt;/div&gt;" style="text;html=1;align=left;verticalAlign=middle;resizable=0;points=[];autosize=1;strokeColor=none;fillColor=none;fontSize=12;fontColor=#556B82;fontFamily=Helvetica;" parent="Hm9edAj7zCcvypmeV3OK-16" vertex="1">
          <mxGeometry x="111" y="131" width="140" height="40" as="geometry" />
        </mxCell>
        <mxCell id="Hm9edAj7zCcvypmeV3OK-23" value="" style="shape=image;verticalLabelPosition=bottom;labelBackgroundColor=default;verticalAlign=top;aspect=fixed;imageAspect=0;image=data:image/svg+xml,PHN2ZyB4bWxucz0iaHR0cDovL3d3dy53My5vcmcvMjAwMC9zdmciIGZpbGw9Im5vbmUiIHZpZXdCb3g9IjAgMCAxNyAxNyIgaGVpZ2h0PSIxNyIgd2lkdGg9IjE3Ij4mI3hhOzxwYXRoIGZpbGw9InVybCgjcGFpbnQwX2xpbmVhcl83NzVfOCkiIGQ9Ik0xMy42NzU2IDguNjM3NDhDMTQuNjQ2OSA5LjE3MTcxIDE1LjQ2NDcgOS45NDY0NiAxNi4wNTA2IDEwLjg4NzVDMTYuNjU0NiAxMS44NDU1IDE2Ljk1NjYgMTIuOTI4NSAxNi45NTY2IDE0LjEzNzVWMTUuOTE4NUMxNi45NTY2IDE2LjUwMTUgMTYuNjU0NiAxNi43OTM1IDE2LjA1MDYgMTYuNzkzNUg1LjQyNTY0QzUuMTU0NjQgMTYuNzkzNSA0LjkzNTY0IDE2LjcxMDUgNC43Njg2NCAxNi41NDM1QzQuNjAyNjQgMTYuMzk3NSA0LjUxODY0IDE2LjE4OTUgNC41MTg2NCAxNS45MTg1VjE1LjAxMjVIMS44NjI2NEMxLjI3OTY0IDE1LjAxMjUgMC45ODc2NCAxNC43MjA1IDAuOTg3NjQgMTQuMTM3NVYxMi4zNTY1QzAuOTg3NjQgMTEuNDgwNSAxLjIyNzY0IDEwLjY4OTUgMS43MDY2NCA5Ljk4MDQ4QzIuMTY0MzUgOS4yOTEwOSAyLjgwMjA3IDguNzQwMTcgMy41NTA2NCA4LjM4NzQ4QzMuMjg2MjIgOC4wODYyMyAzLjA4NDMxIDcuNzM1NDMgMi45NTY2NCA3LjM1NTQ4QzIuODMzNCA2Ljk3MTgxIDIuNzY5OTkgNi41NzE0NSAyLjc2ODY0IDYuMTY4NDhDMi43Njg2NCA1LjY2ODQ4IDIuODYyNjQgNS4yMTA0OCAzLjA1MDY0IDQuNzkzNDhDMy4yMzc2NCA0LjM1NTQ4IDMuNDg3NjQgMy45ODA0OCAzLjgwMDY0IDMuNjY4NDhDNC4xMjQ3OCAzLjM0MTYxIDQuNTA2MDggMy4wNzY5IDQuOTI1NjQgMi44ODc0OEM1LjM1OTkyIDIuNzAwNzMgNS44Mjc5MSAyLjYwNTA5IDYuMzAwNjQgMi42MDY0OEM2LjQ0NjY0IDIuNjA2NDggNi41ODE2NCAyLjYxNjQ4IDYuNzA2NjQgMi42MzY0OEM2LjgzMTY0IDIuNjM2NDggNi45NjY2NCAyLjY1ODQ4IDcuMTEyNjQgMi42OTk0OEM3LjUwMjE5IDIuMTIxOSA4LjAyODQ3IDEuNjQ5NTYgOC42NDQ2NCAxLjMyNDQ4QzkuMjkxNTggMC45OTA5MiAxMC4wMDk4IDAuODE5MzQzIDEwLjczNzYgMC44MjQ0NzZDMTEuMzYyNiAwLjgyNDQ3NiAxMS45NDY2IDAuOTM5NDc2IDEyLjQ4NzYgMS4xNjg0OEMxMy4wMjk2IDEuMzk4NDggMTMuNDk3NiAxLjcyMDQ4IDEzLjg5MzYgMi4xMzc0OEMxNC4yODk2IDIuNTMzNDggMTQuNjAyNiAzLjAwMTQ4IDE0LjgzMTYgMy41NDM0OEMxNS4wNjE2IDQuMDYzNDggMTUuMTc1NiA0LjYzNzQ4IDE1LjE3NTYgNS4yNjI0OEMxNS4xNzc3IDUuOTE5NDggMTUuMDM5MiA2LjU2OTMzIDE0Ljc2OTYgNy4xNjg0OEMxNC41MjkgNy43MzkzMiAxNC4xNTM2IDguMjQzMzYgMTMuNjc1NiA4LjYzNzQ4Wk0xMC43MzY2IDIuNjA1NDhDOS45ODY2NCAyLjYwNTQ4IDkuMzUxNjQgMi44NjU0OCA4LjgzMDY0IDMuMzg3NDhDOC4zMzA2NCAzLjg4NzQ4IDguMDgwNjQgNC41MTI0OCA4LjA4MDY0IDUuMjYyNDhDOC4wODA2NCA2LjAxMjQ4IDguMzMwNjQgNi42NDc0OCA4LjgzMDY0IDcuMTY4NDhDOS4zNTA2NCA3LjY2ODQ4IDkuOTg2NjQgNy45MTg0OCAxMC43MzY2IDcuOTE4NDhDMTEuNDg2NiA3LjkxODQ4IDEyLjExMTYgNy42Njg0OCAxMi42MTE2IDcuMTY4NDhDMTMuMTMyNiA2LjY0ODQ4IDEzLjM5MjYgNi4wMTI0OCAxMy4zOTI2IDUuMjYyNDhDMTMuMzkyNiA0LjUxMjQ4IDEzLjEzMjYgMy44ODc0OCAxMi42MTI2IDMuMzg3NDhDMTIuMTEyNiAyLjg2NjQ4IDExLjQ4NjYgMi42MDU0OCAxMC43MzY2IDIuNjA1NDhaTTYuMjA2NjQgNC4zODg0OEM1LjcyNjY0IDQuMzg4NDggNS4zMTA2NCA0LjU2NTQ4IDQuOTU2NjQgNC45MTk0OEM0LjYyMzY0IDUuMjUyNDggNC40NTY2NCA1LjY2OTQ4IDQuNDU2NjQgNi4xNjk0OEM0LjQ1NjY0IDYuNjQ5NDggNC42MjM2NCA3LjA2NTQ4IDQuOTU2NjQgNy40MTk0OEM1LjMxMDY0IDcuNzUyNDggNS43MjY2NCA3LjkxOTQ4IDYuMjA2NjQgNy45MTk0OEg3LjIwNjY0QzYuOTI3MDggNy41NDg5OCA2LjcwNTg1IDcuMTM3ODkgNi41NTA2NCA2LjcwMDQ4QzYuMzg3MDYgNi4yMzg5NSA2LjMwMjU0IDUuNzUzMTMgNi4zMDA2NCA1LjI2MzQ4VjQuODIzNDhDNi4zMTczMiA0LjY3NTEzIDYuMzQ4NDcgNC41Mjg3NiA2LjM5MzY0IDQuMzg2NDhINi4yMDY2NFY0LjM4ODQ4Wk0yLjc2ODY0IDEzLjI2MzVINC42MTI2NEM0LjgwMDY0IDExLjgyNTUgNS4zOTM2NCAxMC42Mzg1IDYuMzkzNjQgOS43MDA0N0g1LjQyNjY0QzQuNjc2NjQgOS43MDA0NyA0LjA0MDY0IDkuOTYwNDcgMy41MTk2NCAxMC40ODE1QzMuMDE5NjQgMTAuOTgxNSAyLjc2OTY0IDExLjYwNzUgMi43Njk2NCAxMi4zNTc1TDIuNzY4NjQgMTMuMjYzNVpNMTUuMTc1NiAxNC4xMzg1QzE1LjE4MjYgMTMuNTQ3NyAxNS4wNjU0IDEyLjk2MjEgMTQuODMxNiAxMi40MTk1QzE0LjYxMzMgMTEuODk0MyAxNC4yOTQ3IDExLjQxNjcgMTMuODkzNiAxMS4wMTM1QzEzLjQ5NzQgMTAuNTk2MyAxMy4wMTg1IDEwLjI2NjMgMTIuNDg3NiAxMC4wNDQ1QzExLjkzMzUgOS44MTI3MyAxMS4zMzgyIDkuNjk1NzEgMTAuNzM3NiA5LjcwMDQ3QzEwLjExMjYgOS43MDA0NyA5LjUyOTY0IDkuODE1NDggOC45ODc2NCAxMC4wNDQ1QzguNDY3NjQgMTAuMjc0NSA3Ljk5NzY0IDEwLjU5NjUgNy41ODE2NCAxMS4wMTM1QzcuMTgwNTggMTEuNDE2NyA2Ljg2MTk3IDExLjg5NDMgNi42NDM2NCAxMi40MTk1QzYuNDEwMjggMTIuOTYyMiA2LjI5MzQzIDEzLjU0NzggNi4zMDA2NCAxNC4xMzg1VjE1LjAxMzVIMTUuMTc1NlYxNC4xMzg1WiIvPiYjeGE7PGRlZnM+JiN4YTs8bGluZWFyR3JhZGllbnQgZ3JhZGllbnRVbml0cz0idXNlclNwYWNlT25Vc2UiIHkyPSIxNi43OTM1IiB4Mj0iOC45NzIxNCIgeTE9IjAuODI0MzY0IiB4MT0iOC45NzIxNCIgaWQ9InBhaW50MF9saW5lYXJfNzc1XzgiPiYjeGE7PHN0b3Agc3RvcC1jb2xvcj0iIzVCNzM4QiIvPiYjeGE7PHN0b3Agc3RvcC1jb2xvcj0iIzIyMzU0OCIgb2Zmc2V0PSIxIi8+JiN4YTs8L2xpbmVhckdyYWRpZW50PiYjeGE7PC9kZWZzPiYjeGE7PC9zdmc+;" parent="Hm9edAj7zCcvypmeV3OK-16" vertex="1">
          <mxGeometry x="76" y="135" width="28" height="28" as="geometry" />
        </mxCell>
        <mxCell id="Hm9edAj7zCcvypmeV3OK-24" value="&lt;font size=&quot;1&quot;&gt;&lt;b style=&quot;&quot;&gt;SCIM&lt;/b&gt;&lt;/font&gt;" style="rounded=1;whiteSpace=wrap;html=1;arcSize=50;strokeColor=#470BED;fillColor=#f1ecff;fontColor=#470bed;strokeWidth=1.5;" parent="Hm9edAj7zCcvypmeV3OK-16" vertex="1">
          <mxGeometry x="149.99" y="104" width="38.01" height="16" as="geometry" />
        </mxCell>
        <mxCell id="Hm9edAj7zCcvypmeV3OK-20" value="" style="rounded=1;whiteSpace=wrap;html=1;strokeColor=#0070F2;strokeWidth=1.5;arcSize=16;fillColor=#FFFFFF;perimeterSpacing=0;absoluteArcSize=1;" parent="Hm9edAj7zCcvypmeV3OK-16" vertex="1">
          <mxGeometry x="3" y="-2" width="356.5" height="92" as="geometry" />
        </mxCell>
        <mxCell id="Hm9edAj7zCcvypmeV3OK-21" value="&lt;font face=&quot;arial&quot; style=&quot;font-size: 16px;&quot;&gt;&lt;b style=&quot;font-size: 16px;&quot;&gt;SAP Cloud &lt;br&gt;Identity &lt;br&gt;Services&lt;/b&gt;&lt;/font&gt;" style="text;html=1;align=left;verticalAlign=middle;resizable=0;points=[];autosize=1;strokeColor=none;fillColor=none;fontSize=12;fontColor=#1d2d3e;fontFamily=Helvetica;" parent="Hm9edAj7zCcvypmeV3OK-16" vertex="1">
          <mxGeometry x="12" y="10" width="100" height="70" as="geometry" />
        </mxCell>
        <mxCell id="Hm9edAj7zCcvypmeV3OK-26" value="" style="shape=image;verticalLabelPosition=bottom;verticalAlign=top;imageAspect=0;aspect=fixed;image=data:image/svg+xml,PHN2ZyB4bWxucz0iaHR0cDovL3d3dy53My5vcmcvMjAwMC9zdmciIGZpbGw9Im5vbmUiIHZpZXdCb3g9IjAgMCA0OSA0OSIgaGVpZ2h0PSI0OSIgd2lkdGg9IjQ5Ij4mI3hhOzxjaXJjbGUgc3Ryb2tlLXdpZHRoPSIwLjg1NzE0MyIgc3Ryb2tlPSIjRDVEQUREIiBmaWxsPSJ1cmwoI3BhaW50MF9saW5lYXJfMjYyMl8yMDQ3NSkiIHI9IjIzLjU3MTQiIGN5PSIyNC4wMzQ5IiBjeD0iMjQuNSIvPiYjeGE7PHBhdGggZmlsbD0idXJsKCNwYWludDFfcmFkaWFsXzI2MjJfMjA0NzUpIiBkPSJNMjQuMzkzMSAxMi4yMzcxQzIwLjExMDcgMTIuMjM3MSAxNy4wNjgxIDE1LjcyMzEgMTYuNTYxMSAxOS4zNjI1QzE1LjE4MzYgMTkuNDQ0NCAxMy45NjcyIDE5Ljk2MjEgMTMuMDIyNSAyMC44MzE3QzExLjc0NDUgMjIuMDA4MSAxMS4wODQ0IDIzLjcxNTYgMTEuMDg0NCAyNS41MTYzQzExLjA4NDQgMjcuMTg5NyAxMS41OTIgMjguNzcxNSAxMi43MzE2IDI5Ljk0MDlDMTMuNTg2MSAzMC44MTc4IDE0LjcwNzcgMzEuMzcyNCAxNi4wMTcgMzEuNTk4NEMxNi4xMzc2IDMxLjM1MzUgMTYuMjczNSAzMS4xMTY4IDE2LjQyNTIgMzAuODg5MkwxNi40NDEgMzAuODY1NUwxNi40NTQ4IDMwLjg0NjFDMTYuNzA2OSAzMC40OTAxIDE2Ljk5NDggMzAuMTY2IDE3LjMxNjkgMjkuODc2MUMxNy4xODMxIDI5LjQzMTcgMTcuMTE4IDI4Ljk2NDUgMTcuMTE4IDI4LjQ4MzVDMTcuMTE4IDI3Ljg1NDkgMTcuMjM4NiAyNy4yNDEzIDE3LjQ4NDkgMjYuNjU5MkMxNy43MiAyNi4xMDMzIDE4LjA1MTMgMjUuNjAwMSAxOC40ODI0IDI1LjE2OTFDMTguOTE4IDI0LjczMzQgMTkuNDI1IDI0LjM5MTYgMTkuOTkyNiAyNC4xNTE1QzIwLjU3NDcgMjMuOTA1MiAyMS4xODgyIDIzLjc4NDYgMjEuODE2OCAyMy43ODQ2QzIyLjA3NTkgMjMuNzg0NiAyMi4zMzI0IDIzLjgwNTEgMjIuNTg1MyAyMy44NDY0QzIyLjkwNjUgMjMuNjE3OSAyMy4yNTIyIDIzLjQyNTEgMjMuNjIwNCAyMy4yNjkzQzI0LjI4NTEgMjIuOTg4MSAyNC45ODYzIDIyLjg0OTcgMjUuNzA4OSAyMi44NDk3QzI2LjQzMTYgMjIuODQ5NyAyNy4xMzI3IDIyLjk4ODEgMjcuNzk3NSAyMy4yNjkzQzI4LjQ0MzYgMjMuNTQyNyAyOS4wMTc2IDIzLjkzMjYgMjkuNTA0MyAyNC40MzY1QzMwLjAwODIgMjQuOTIzMiAzMC4zOTgxIDI1LjQ5NzIgMzAuNjcxNSAyNi4xNDMzQzMwLjk1MjcgMjYuODA4MSAzMS4wOTExIDI3LjUwOTMgMzEuMDkxMSAyOC4yMzE5QzMxLjA5MTEgMjguOTI1MiAzMC45NjM3IDI5LjU5ODggMzAuNzA1IDMwLjIzOTVDMzEuMTk2OSAzMC42Mjg4IDMxLjYzNDYgMzEuMDg3NyAzMi4wMTUyIDMxLjYxMjdDMzUuMjc5MiAzMS4wNDI2IDM3Ljk5OTkgMjguMzY4IDM3Ljk5OTkgMjQuMzU5MUMzNy45OTk5IDIwLjM3NTEgMzUuMTUyNiAxNy4zMTM1IDMxLjcyNDcgMTYuOTg5N0MzMC4zNTA3IDE0LjE0ODMgMjcuOCAxMi4yMzcxIDI0LjM5MzEgMTIuMjM3MVoiIGNsaXAtcnVsZT0iZXZlbm9kZCIgZmlsbC1ydWxlPSJldmVub2RkIi8+JiN4YTs8cGF0aCBmaWxsPSJ1cmwoI3BhaW50Ml9yYWRpYWxfMjYyMl8yMDQ3NSkiIGQ9Ik0yOC4zMzY4IDMwLjgwNzhDMjkuMzA4MiAzMS4xODk0IDMwLjA5NzQgMzEuODEzOCAzMC43MDQ1IDMyLjY4MTFDMzEuMzExNiAzMy41NDg0IDMxLjYxNTIgMzQuNTI4NSAzMS42MTUyIDM1LjYyMTNWMzcuMTA0NEMzMS42MTUyIDM3LjMxMjUgMzEuNTM3MSAzNy40ODYgMzEuMzgxIDM3LjYyNDdDMzEuMjQyMiAzNy43NjM1IDMxLjA3NzQgMzcuODMyOSAzMC44ODY2IDM3LjgzMjlIMjkuNDAzNkMyOS4xOTU0IDM3LjgzMjkgMjkuMDEzMyAzNy43NjM1IDI4Ljg1NzIgMzcuNjI0N0MyOC43MTg0IDM3LjQ4NiAyOC42NDkgMzcuMzEyNSAyOC42NDkgMzcuMTA0NEMyOC42NDkgMzYuODk2MiAyOC43MTg0IDM2LjcyMjcgMjguODU3MiAzNi41ODRDMjkuMDEzMyAzNi40Mjc5IDI5LjE5NTQgMzYuMzQ5OCAyOS40MDM2IDM2LjM0OThIMzAuMTMyMVYzNS42MjEzQzMwLjEzMjEgMzUuMTE4MiAzMC4wMzY3IDM0LjY0MTIgMjkuODQ1OSAzNC4xOTAyQzI5LjY1NTEgMzMuNzM5MiAyOS4zODYyIDMzLjM0OSAyOS4wMzkzIDMzLjAxOTRDMjguNzA5NyAzMi42NzI1IDI4LjMxOTUgMzIuNDAzNiAyNy44Njg1IDMyLjIxMjhDMjcuNDM0OCAzMi4wMjIgMjYuOTU3OCAzMS45MjY2IDI2LjQzNzUgMzEuOTI2NkgyNC45ODA0QzI0LjQ2IDMxLjkyNjYgMjMuOTc0NCAzMi4wMjIgMjMuNTIzNCAzMi4yMTI4QzIzLjA4OTcgMzIuNDAzNiAyMi42OTk0IDMyLjY3MjUgMjIuMzUyNSAzMy4wMTk0QzIyLjAyMyAzMy4zNDkgMjEuNzYyOCAzMy43MzkyIDIxLjU3MiAzNC4xOTAyQzIxLjM4MTIgMzQuNjQxMiAyMS4yODU4IDM1LjExODIgMjEuMjg1OCAzNS42MjEzVjM2LjM0OThIMjIuMDE0M0MyMi4yMjI0IDM2LjM0OTggMjIuMzk1OSAzNi40Mjc5IDIyLjUzNDcgMzYuNTg0QzIyLjY3MzQgMzYuNzIyNyAyMi43NDI4IDM2Ljg5NjIgMjIuNzQyOCAzNy4xMDQ0QzIyLjc0MjggMzcuMzEyNSAyMi42NzM0IDM3LjQ4NiAyMi41MzQ3IDM3LjYyNDdDMjIuMzk1OSAzNy43NjM1IDIyLjIyMjQgMzcuODMyOSAyMi4wMTQzIDM3LjgzMjlIMjAuNTMxMkMyMC4zNDA0IDM3LjgzMjkgMjAuMTY3IDM3Ljc2MzUgMjAuMDEwOSAzNy42MjQ3QzE5Ljg3MjEgMzcuNDg2IDE5LjgwMjcgMzcuMzEyNSAxOS44MDI3IDM3LjEwNDRMMTkuODAyNyAzNi4wNTAySDE3LjgyMzRDMTcuNjMyOCAzNi4wNTAyIDE3LjQ2MTYgMzUuOTc5NSAxNy4zMTQ2IDM1Ljg0ODhMMTcuMzA3NSAzNS44NDI1QzE3LjE2ODEgMzUuNzAzMSAxNy4wOTk4IDM1LjUyNzEgMTcuMDk5OCAzNS4zMjY1VjM0LjE4MjdDMTcuMDk5OCAzMy43MzkyIDE3LjE2MjEgMzMuMzIxIDE3LjI4ODEgMzIuOTI5MUwxNy4yODkyIDMyLjkyNTlDMTcuNDI3MiAzMi41MjU2IDE3LjYwNzEgMzIuMTU4NiAxNy44MjkzIDMxLjgyNTNMMTcuODMxOCAzMS44MjE1QzE4LjA2NzggMzEuNDg4MyAxOC4zNDU4IDMxLjE5NjQgMTguNjY1MiAzMC45NDYxQzE4LjkyNDIgMzAuNzMyNCAxOS4yMDU5IDMwLjU1NSAxOS41MTAxIDMwLjQxNEMxOS4wMzk4IDI5Ljg4ODUgMTguODA1NSAyOS4yNDE5IDE4LjgwNTUgMjguNDgzNUMxOC44MDU1IDI4LjA3NDUgMTguODgzMiAyNy42ODUxIDE5LjAzOSAyNy4zMTY3QzE5LjE5MzkgMjYuOTUwNyAxOS40MDYgMjYuNjMyIDE5LjY3NTYgMjYuMzYyM0MxOS45NTc5IDI2LjA4MDEgMjAuMjgzIDI1Ljg2MDkgMjAuNjUwMSAyNS43MDU2QzIxLjAxODQgMjUuNTQ5OCAyMS40MDc4IDI1LjQ3MjEgMjEuODE2OCAyNS40NzIxQzIyLjIyNTkgMjUuNDcyMSAyMi42MTUyIDI1LjU0OTggMjIuOTgzNiAyNS43MDU2TDIzLjAwMDggMjUuNzEzQzIzLjAyNzEgMjUuNjg0OSAyMy4wNTM4IDI1LjY1NzMgMjMuMDgxIDI1LjYzQzIzLjQyOCAyNS4yODMxIDIzLjgyNjkgMjUuMDE0MiAyNC4yNzc5IDI0LjgyMzRDMjQuNzI4OSAyNC42MzI2IDI1LjIwNTkgMjQuNTM3MiAyNS43MDg5IDI0LjUzNzJDMjYuMjEyIDI0LjUzNzIgMjYuNjg5IDI0LjYzMjYgMjcuMTQgMjQuODIzNEMyNy41OTA5IDI1LjAxNDIgMjcuOTgxMiAyNS4yODMxIDI4LjMxMDggMjUuNjNDMjguNjU3NyAyNS45NTk2IDI4LjkyNjYgMjYuMzQ5OSAyOS4xMTc0IDI2LjgwMDlDMjkuMzA4MiAyNy4yNTE5IDI5LjQwMzYgMjcuNzI4OSAyOS40MDM2IDI4LjIzMTlDMjkuNDAzNiAyOC43MzQ5IDI5LjMwODIgMjkuMjEyIDI5LjExNzQgMjkuNjYzQzI4LjkyNjYgMzAuMDk2NiAyOC42NjY0IDMwLjQ3ODIgMjguMzM2OCAzMC44MDc4Wk0yMC4wMzY5IDM0LjA2MDFDMTkuOTgyMiAzNC4yMzAxIDE5LjkzNzIgMzQuNDA0MyAxOS45MDE3IDM0LjU4MjdIMTguNTY3MlYzNC4xODI3QzE4LjU2NzIgMzMuODE1NyAxOC42MzY3IDMzLjQ2OTMgMTguNzc1MiAzMy4xNDJDMTguOTE0NiAzMi44MTI0IDE5LjEwMzkgMzIuNTI5IDE5LjM0MjYgMzIuMjkwM0MxOS41OTYyIDMyLjAzNjcgMTkuODgwMyAzMS44NDEyIDIwLjE5NTMgMzEuNzAyNEMyMC41MjE2IDMxLjU2NDUgMjAuODc0MyAzMS40OTQ5IDIxLjI1NDkgMzEuNDk0OUgyMS44NzA4QzIxLjgzMTUgMzEuNTI1NCAyMS43OTI2IDMxLjU1NjYgMjEuNzU0MSAzMS41ODg0QzIxLjM1NTEgMzEuOTAwNiAyMS4wMDgyIDMyLjI2NDggMjAuNzEzNCAzMi42ODExQzIwLjQzNTggMzMuMDk3NCAyMC4yMTAzIDMzLjU1NzEgMjAuMDM2OSAzNC4wNjAxWk0yNS43MDg5IDI2LjAyMDNDMjUuMTAxOCAyNi4wMjAzIDI0LjU4MTUgMjYuMjM3MSAyNC4xNDc4IDI2LjY3MDhDMjMuNzE0MiAyNy4xMDQ0IDIzLjQ5NzMgMjcuNjI0OCAyMy40OTczIDI4LjIzMTlDMjMuNDk3MyAyOC44MzkgMjMuNzE0MiAyOS4zNTk0IDI0LjE0NzggMjkuNzkzQzI0LjU4MTUgMzAuMjI2NyAyNS4xMDE4IDMwLjQ0MzUgMjUuNzA4OSAzMC40NDM1QzI2LjMxNiAzMC40NDM1IDI2LjgzNjQgMzAuMjI2NyAyNy4yNyAyOS43OTNDMjcuNzAzNyAyOS4zNTk0IDI3LjkyMDUgMjguODM5IDI3LjkyMDUgMjguMjMxOUMyNy45MjA1IDI3LjYyNDggMjcuNzAzNyAyNy4xMDQ0IDI3LjI3IDI2LjY3MDhDMjYuODM2NCAyNi4yMzcxIDI2LjMxNiAyNi4wMjAzIDI1LjcwODkgMjYuMDIwM1pNMjIuMDE0MyAyOC4yMzE5QzIyLjAxNDMgMjguODU5NiAyMi4xNDM2IDI5LjQyMTEgMjIuNDAyMyAyOS45MTYzQzIyLjIyMjMgMjkuOTkwNiAyMi4wMjc1IDMwLjAyNzQgMjEuODE2OCAzMC4wMjc0QzIxLjM5MiAzMC4wMjc0IDIxLjAzMTcgMjkuODc3NiAyMC43MjcyIDI5LjU3MzFDMjAuNDIyOCAyOS4yNjg3IDIwLjI3MjkgMjguOTA4MyAyMC4yNzI5IDI4LjQ4MzVDMjAuMjcyOSAyOC4wNTg3IDIwLjQyMjggMjcuNjk4MyAyMC43MjcyIDI3LjM5MzlDMjEuMDMxNyAyNy4wODk0IDIxLjM5MiAyNi45Mzk2IDIxLjgxNjggMjYuOTM5NkMyMS45NjA1IDI2LjkzOTYgMjIuMDk2OSAyNi45NTY3IDIyLjIyNjIgMjYuOTkxMkMyMi4wODQ5IDI3LjM4NTUgMjIuMDE0MyAyNy43OTkxIDIyLjAxNDMgMjguMjMxOVoiIGNsaXAtcnVsZT0iZXZlbm9kZCIgZmlsbC1ydWxlPSJldmVub2RkIi8+JiN4YTs8ZGVmcz4mI3hhOzxsaW5lYXJHcmFkaWVudCBncmFkaWVudFVuaXRzPSJ1c2VyU3BhY2VPblVzZSIgeTI9IjQ0LjI3OTIiIHgyPSI0MS41NjQ1IiB5MT0iNi44NDc3NSIgeDE9IjQuODUyODciIGlkPSJwYWludDBfbGluZWFyXzI2MjJfMjA0NzUiPiYjeGE7PHN0b3Agc3RvcC1jb2xvcj0id2hpdGUiLz4mI3hhOzxzdG9wIHN0b3AtY29sb3I9IiNFQUVDRUUiIG9mZnNldD0iMSIvPiYjeGE7PC9saW5lYXJHcmFkaWVudD4mI3hhOzxyYWRpYWxHcmFkaWVudCBncmFkaWVudFRyYW5zZm9ybT0idHJhbnNsYXRlKDE1LjI1ODMgMTUuOTk1NCkgcm90YXRlKDQzLjg3NzkpIHNjYWxlKDI1Ljg1MjQgNDguODExNykiIGdyYWRpZW50VW5pdHM9InVzZXJTcGFjZU9uVXNlIiByPSIxIiBjeT0iMCIgY3g9IjAiIGlkPSJwYWludDFfcmFkaWFsXzI2MjJfMjA0NzUiPiYjeGE7PHN0b3Agc3RvcC1jb2xvcj0iIzAxOTVGRiIvPiYjeGE7PHN0b3Agc3RvcC1jb2xvcj0iIzExNDdFOSIgb2Zmc2V0PSIxIi8+JiN4YTs8L3JhZGlhbEdyYWRpZW50PiYjeGE7PHJhZGlhbEdyYWRpZW50IGdyYWRpZW50VHJhbnNmb3JtPSJ0cmFuc2xhdGUoMTUuMjUyMiAxNi4wODc2KSByb3RhdGUoNDMuNTYwMikgc2NhbGUoMjUuODcyNyAyMy41NDcxKSIgZ3JhZGllbnRVbml0cz0idXNlclNwYWNlT25Vc2UiIHI9IjEiIGN5PSIwIiBjeD0iMCIgaWQ9InBhaW50Ml9yYWRpYWxfMjYyMl8yMDQ3NSI+JiN4YTs8c3RvcCBzdG9wLWNvbG9yPSIjMTM0OEZGIi8+JiN4YTs8c3RvcCBzdG9wLWNvbG9yPSIjMDYyMzhEIiBvZmZzZXQ9IjEiLz4mI3hhOzwvcmFkaWFsR3JhZGllbnQ+JiN4YTs8L2RlZnM+JiN4YTs8L3N2Zz4=;points=[[0,0,0,0,0],[0,0.25,0,0,0],[0,0.5,0,0,0],[0,0.75,0,0,0],[0.25,0,0,0,0],[0.5,0,0,0,0],[0.75,0,0,0,0],[1,0,0,0,0],[1,0.25,0,0,0],[1,0.5,0,0,0],[1,0.75,0,0,0]];" parent="Hm9edAj7zCcvypmeV3OK-16" vertex="1">
          <mxGeometry x="126.5" y="10" width="32" height="32" as="geometry" />
        </mxCell>
        <mxCell id="Hm9edAj7zCcvypmeV3OK-27" value="&lt;p style=&quot;line-height: 110%;&quot;&gt;&lt;font color=&quot;#1d2d3e&quot; face=&quot;arial&quot; style=&quot;&quot;&gt;&lt;font style=&quot;font-size: 12px;&quot;&gt;Identity Directory&lt;/font&gt;&lt;br&gt;&lt;/font&gt;&lt;/p&gt;" style="text;html=1;align=center;verticalAlign=middle;resizable=1;points=[[0,0.5,0,0,0],[0.21,1,0,0,0],[0.5,1,0,0,0],[0.85,1,0,0,0],[1,0.5,0,0,0]];autosize=0;strokeColor=none;fillColor=none;fontSize=12;fontColor=default;fontFamily=Helvetica;fixedWidth=1;imageWidth=24;whiteSpace=wrap;labelBackgroundColor=none;" parent="Hm9edAj7zCcvypmeV3OK-16" vertex="1">
          <mxGeometry x="105.5" y="43.5" width="72" height="34" as="geometry" />
        </mxCell>
        <mxCell id="Hm9edAj7zCcvypmeV3OK-28" value="&lt;p style=&quot;line-height: 110%;&quot;&gt;&lt;font color=&quot;#1d2d3e&quot; size=&quot;1&quot; face=&quot;arial&quot; style=&quot;&quot;&gt;&lt;span style=&quot;font-size: 12px;&quot;&gt;Identity Authentication&lt;br&gt;&lt;/span&gt;&lt;/font&gt;&lt;/p&gt;" style="text;html=1;align=center;verticalAlign=middle;resizable=1;points=[[0,0.5,0,0,0],[0.21,1,0,0,0],[0.5,1,0,0,0],[0.85,1,0,0,0],[1,0.5,0,0,0]];autosize=0;strokeColor=none;fillColor=none;fontSize=12;fontColor=default;fontFamily=Helvetica;fixedWidth=1;imageWidth=24;whiteSpace=wrap;labelBackgroundColor=none;" parent="Hm9edAj7zCcvypmeV3OK-16" vertex="1">
          <mxGeometry x="167.50000000000023" y="44.5" width="110" height="35" as="geometry" />
        </mxCell>
        <mxCell id="Hm9edAj7zCcvypmeV3OK-29" value="&lt;p style=&quot;line-height: 110%;&quot;&gt;&lt;font color=&quot;#1d2d3e&quot; size=&quot;1&quot; face=&quot;arial&quot; style=&quot;&quot;&gt;&lt;span style=&quot;font-size: 12px;&quot;&gt;Identity &lt;br&gt;Provisoning&lt;br&gt;&lt;/span&gt;&lt;/font&gt;&lt;/p&gt;" style="text;html=1;align=center;verticalAlign=middle;resizable=1;points=[[0,0.5,0,0,0],[0.21,1,0,0,0],[0.5,1,0,0,0],[0.85,1,0,0,0],[1,0.5,0,0,0]];autosize=0;strokeColor=none;fillColor=none;fontSize=12;fontColor=default;fontFamily=Helvetica;fixedWidth=1;imageWidth=24;whiteSpace=wrap;labelBackgroundColor=none;" parent="Hm9edAj7zCcvypmeV3OK-16" vertex="1">
          <mxGeometry x="266.5" y="46.5" width="82" height="31" as="geometry" />
        </mxCell>
        <mxCell id="n4qhB_E4lbYfore2I8PU-2" value="" style="shape=image;verticalLabelPosition=bottom;labelBackgroundColor=default;verticalAlign=top;aspect=fixed;imageAspect=0;image=data:image/svg+xml,PHN2ZyB4bWxucz0iaHR0cDovL3d3dy53My5vcmcvMjAwMC9zdmciIGZpbGw9Im5vbmUiIHZpZXdCb3g9IjAgMCA0OCA0OCIgaGVpZ2h0PSI0OCIgd2lkdGg9IjQ4Ij4mI3hhOzxnIGNsaXAtcGF0aD0idXJsKCNjbGlwMF8zMjAyXzE4NTc3KSI+JiN4YTs8Y2lyY2xlIHN0cm9rZS13aWR0aD0iMC44NTcxNDMiIHN0cm9rZT0iI0Q1REFERCIgZmlsbD0idXJsKCNwYWludDBfbGluZWFyXzMyMDJfMTg1NzcpIiByPSIyMy41NzE0IiBjeT0iMjMuNzU3MyIgY3g9IjI0LjAwMSIvPiYjeGE7PGcgY2xpcC1wYXRoPSJ1cmwoI2NsaXAxXzMyMDJfMTg1NzcpIj4mI3hhOzxwYXRoIGZpbGw9InVybCgjcGFpbnQxX2xpbmVhcl8zMjAyXzE4NTc3KSIgZD0iTTIzLjgwOTggMTEuMjAzMUMxOS41MjczIDExLjIwMzEgMTYuNDg0NyAxNC42ODkxIDE1Ljk3NzcgMTguMzI4NEMxNC42MDAyIDE4LjQxMDQgMTMuMzgzOCAxOC45MjgxIDEyLjQzOTEgMTkuNzk3N0MxMS4xNjExIDIwLjk3NDEgMTAuNTAxIDIyLjY4MTYgMTAuNTAxIDI0LjQ4MjNDMTAuNTAxIDI2LjE1NTcgMTEuMDA4NiAyNy43Mzc0IDEyLjE0ODIgMjguOTA2OUMxMy4yOTU1IDMwLjA4NDMgMTQuOTI0NCAzMC42ODA3IDE2Ljg0MjMgMzAuNjgwN0gxNy42ODUxQzE3LjY5NzEgMzAuNjYyMyAxNy43MDkyIDMwLjY0NCAxNy43MjE0IDMwLjYyNThMMTcuNzMzNSAzMC42MDc2TDE3Ljc0NjEgMzAuNTg5OEMxOC4xMjI5IDMwLjA1NzggMTguNTY4MSAyOS41ODg2IDE5LjA3OTEgMjkuMTg2M0MxOS4xMTA0IDI5LjE2MDUgMTkuMTQxOSAyOS4xMzUyIDE5LjE3MzYgMjkuMTEwMUMxOC44OTkxIDI4LjQ3MjMgMTguNzYzMSAyNy43NzQyIDE4Ljc2MzEgMjcuMDMyNkMxOC43NjMxIDI2LjMyODcgMTguODk3OCAyNS42NDY3IDE5LjE3MTMgMjUuMDAwMkMxOS40MzU1IDI0LjM3NTYgMTkuODA0NyAyMy44MTY2IDIwLjI4MTkgMjMuMzM5NUMyMC43NjkxIDIyLjg1MjMgMjEuMzM0MyAyMi40NzEzIDIxLjk2ODcgMjIuMjAyOUMyMi42MTUxIDIxLjkyOTQgMjMuMjk3MSAyMS43OTQ3IDI0LjAwMSAyMS43OTQ3QzI0LjcwNDggMjEuNzk0NyAyNS4zODY4IDIxLjkyOTQgMjYuMDMzMyAyMi4yMDI5QzI2LjY2MjcgMjIuNDY5MiAyNy4yMjEgMjIuODQ4OCAyNy42OTQzIDIzLjMzOTJDMjguMTg0OCAyMy44MTI1IDI4LjU2NDQgMjQuMzcwOCAyOC44MzA3IDI1LjAwMDJDMjkuMTA0MiAyNS42NDY3IDI5LjIzODggMjYuMzI4NyAyOS4yMzg4IDI3LjAzMjZDMjkuMjM4OCAyNy43MzY0IDI5LjEwNDIgMjguNDE4NCAyOC44MzA3IDI5LjA2NDlMMjguODI2NCAyOS4wNzVMMjguODIxNCAyOS4wODYzQzI5LjM2OSAyOS41MDUxIDI5Ljg1MDEgMzAuMDEwMSAzMC4yNjA4IDMwLjU5NjhDMzAuMjgyNCAzMC42Mjc3IDMwLjMwMzcgMzAuNjU4NyAzMC4zMjQ3IDMwLjY4OThDMzQuMDU2NSAzMC41ODc1IDM3LjQxNjYgMjcuNzgwMSAzNy40MTY2IDIzLjMyNTFDMzcuNDE2NiAxOS4zNDExIDM0LjU2OTIgMTYuMjc5NSAzMS4xNDE0IDE1Ljk1NTdDMjkuNzY3MyAxMy4xMTQyIDI3LjIxNjYgMTEuMjAzMSAyMy44MDk4IDExLjIwMzFaIi8+JiN4YTs8cGF0aCBmaWxsPSJ1cmwoI3BhaW50Ml9saW5lYXJfMzIwMl8xODU3NykiIGQ9Ik0yNi41ODY2IDI5Ljc3MzdDMjcuNTU4IDMwLjE1NTMgMjguMzQ3MiAzMC43Nzk4IDI4Ljk1NDMgMzEuNjQ3MUMyOS41NjE0IDMyLjUxNDQgMjkuODY1IDMzLjQ5NDQgMjkuODY1IDM0LjU4NzJWMzYuMDcwM0MyOS44NjUgMzYuMjc4NCAyOS43ODY5IDM2LjQ1MTkgMjkuNjMwOCAzNi41OTA2QzI5LjQ5MjEgMzYuNzI5NCAyOS4zMjczIDM2Ljc5ODggMjkuMTM2NSAzNi43OTg4SDI3LjY1MzRDMjcuNDQ1MiAzNi43OTg4IDI3LjI2MzEgMzYuNzI5NCAyNy4xMDcgMzYuNTkwNkMyNi45NjgyIDM2LjQ1MTkgMjYuODk4OSAzNi4yNzg0IDI2Ljg5ODkgMzYuMDcwM0MyNi44OTg5IDM1Ljg2MjEgMjYuOTY4MiAzNS42ODg2IDI3LjEwNyAzNS41NDk5QzI3LjI2MzEgMzUuMzkzOCAyNy40NDUyIDM1LjMxNTcgMjcuNjUzNCAzNS4zMTU3SDI4LjM4MTlWMzQuNTg3MkMyOC4zODE5IDM0LjA4NDIgMjguMjg2NSAzMy42MDcxIDI4LjA5NTcgMzMuMTU2MUMyNy45MDQ5IDMyLjcwNTIgMjcuNjM2MSAzMi4zMTQ5IDI3LjI4OTEgMzEuOTg1M0MyNi45NTk2IDMxLjYzODQgMjYuNTY5MyAzMS4zNjk1IDI2LjExODMgMzEuMTc4N0MyNS42ODQ2IDMwLjk4NzkgMjUuMjA3NiAzMC44OTI1IDI0LjY4NzMgMzAuODkyNUgyMy4yMzAyQzIyLjcwOTggMzAuODkyNSAyMi4yMjQyIDMwLjk4NzkgMjEuNzczMiAzMS4xNzg3QzIxLjMzOTUgMzEuMzY5NSAyMC45NDkyIDMxLjYzODQgMjAuNjAyMyAzMS45ODUzQzIwLjI3MjggMzIuMzE0OSAyMC4wMTI2IDMyLjcwNTIgMTkuODIxOCAzMy4xNTYxQzE5LjYzMSAzMy42MDcxIDE5LjUzNTYgMzQuMDg0MiAxOS41MzU2IDM0LjU4NzJWMzUuMzE1N0gyMC4yNjQxQzIwLjQ3MjIgMzUuMzE1NyAyMC42NDU3IDM1LjM5MzggMjAuNzg0NSAzNS41NDk5QzIwLjkyMzIgMzUuNjg4NiAyMC45OTI2IDM1Ljg2MjEgMjAuOTkyNiAzNi4wNzAzQzIwLjk5MjYgMzYuMjc4NCAyMC45MjMyIDM2LjQ1MTkgMjAuNzg0NSAzNi41OTA2QzIwLjY0NTcgMzYuNzI5NCAyMC40NzIyIDM2Ljc5ODggMjAuMjY0MSAzNi43OTg4SDE4Ljc4MUMxOC41OTAyIDM2Ljc5ODggMTguNDE2OCAzNi43Mjk0IDE4LjI2MDYgMzYuNTkwNkMxOC4xMjE5IDM2LjQ1MTkgMTguMDUyNSAzNi4yNzg0IDE4LjA1MjUgMzYuMDcwM1YzNC41ODcyQzE4LjA1MjUgMzQuMDMyMSAxOC4xMzA1IDMzLjUxMTcgMTguMjg2NyAzMy4wMjYxQzE4LjQ2MDEgMzIuNTIzIDE4LjY4NTYgMzIuMDYzNCAxOC45NjMxIDMxLjY0NzFDMTkuMjU4IDMxLjIzMDggMTkuNjA0OSAzMC44NjY1IDIwLjAwMzkgMzAuNTU0M0MyMC40MDI4IDMwLjIyNDcgMjAuODQ1MiAyOS45NjQ1IDIxLjMzMDggMjkuNzczN0MyMC42MTk3IDI5LjA5NzIgMjAuMjY0MSAyOC4yMzg2IDIwLjI2NDEgMjcuMTk3OEMyMC4yNjQxIDI2LjY5NDggMjAuMzU5NSAyNi4yMTc4IDIwLjU1MDMgMjUuNzY2OEMyMC43NDExIDI1LjMxNTggMjEuMDAxMyAyNC45MjU1IDIxLjMzMDggMjQuNTk2QzIxLjY3NzggMjQuMjQ5IDIyLjA3NjcgMjMuOTgwMiAyMi41Mjc3IDIzLjc4OTRDMjIuOTc4NyAyMy41OTg2IDIzLjQ1NTcgMjMuNTAzMiAyMy45NTg3IDIzLjUwMzJDMjQuNDYxOCAyMy41MDMyIDI0LjkzODggMjMuNTk4NiAyNS4zODk4IDIzLjc4OTRDMjUuODQwOCAyMy45ODAyIDI2LjIzMSAyNC4yNDkgMjYuNTYwNiAyNC41OTZDMjYuOTA3NSAyNC45MjU1IDI3LjE3NjQgMjUuMzE1OCAyNy4zNjcyIDI1Ljc2NjhDMjcuNTU4IDI2LjIxNzggMjcuNjUzNCAyNi42OTQ4IDI3LjY1MzQgMjcuMTk3OEMyNy42NTM0IDI3LjcwMDkgMjcuNTU4IDI4LjE3NzkgMjcuMzY3MiAyOC42Mjg5QzI3LjE3NjQgMjkuMDYyNSAyNi45MTYyIDI5LjQ0NDEgMjYuNTg2NiAyOS43NzM3Wk0yMy45NTg3IDI0Ljk4NjJDMjMuMzUxNiAyNC45ODYyIDIyLjgzMTMgMjUuMjAzMSAyMi4zOTc2IDI1LjYzNjdDMjEuOTY0IDI2LjA3MDQgMjEuNzQ3MSAyNi41OTA3IDIxLjc0NzEgMjcuMTk3OEMyMS43NDcxIDI3LjgwNDkgMjEuOTY0IDI4LjMyNTMgMjIuMzk3NiAyOC43NTlDMjIuODMxMyAyOS4xOTI2IDIzLjM1MTYgMjkuNDA5NCAyMy45NTg3IDI5LjQwOTRDMjQuNTY1OCAyOS40MDk0IDI1LjA4NjIgMjkuMTkyNiAyNS41MTk5IDI4Ljc1OUMyNS45NTM1IDI4LjMyNTMgMjYuMTcwMyAyNy44MDQ5IDI2LjE3MDMgMjcuMTk3OEMyNi4xNzAzIDI2LjU5MDcgMjUuOTUzNSAyNi4wNzA0IDI1LjUxOTkgMjUuNjM2N0MyNS4wODYyIDI1LjIwMzEgMjQuNTY1OCAyNC45ODYyIDIzLjk1ODcgMjQuOTg2MloiLz4mI3hhOzwvZz4mI3hhOzwvZz4mI3hhOzxkZWZzPiYjeGE7PGxpbmVhckdyYWRpZW50IGdyYWRpZW50VW5pdHM9InVzZXJTcGFjZU9uVXNlIiB5Mj0iNDQuMDAxNiIgeDI9IjQxLjA2NTUiIHkxPSI2LjU3MDE3IiB4MT0iNC4zNTM4NCIgaWQ9InBhaW50MF9saW5lYXJfMzIwMl8xODU3NyI+JiN4YTs8c3RvcCBzdG9wLWNvbG9yPSJ3aGl0ZSIvPiYjeGE7PHN0b3Agc3RvcC1jb2xvcj0iI0VBRUNFRSIgb2Zmc2V0PSIxIi8+JiN4YTs8L2xpbmVhckdyYWRpZW50PiYjeGE7PGxpbmVhckdyYWRpZW50IGdyYWRpZW50VW5pdHM9InVzZXJTcGFjZU9uVXNlIiB5Mj0iMzIuMDI1NyIgeDI9IjI3LjQ5NjgiIHkxPSIxNC4xMTcyIiB4MT0iMTQuNTM1NyIgaWQ9InBhaW50MV9saW5lYXJfMzIwMl8xODU3NyI+JiN4YTs8c3RvcCBzdG9wLWNvbG9yPSIjMDE5NUZGIi8+JiN4YTs8c3RvcCBzdG9wLWNvbG9yPSIjMTE0N0U5IiBvZmZzZXQ9IjAuOTkxMDI4Ii8+JiN4YTs8L2xpbmVhckdyYWRpZW50PiYjeGE7PGxpbmVhckdyYWRpZW50IGdyYWRpZW50VW5pdHM9InVzZXJTcGFjZU9uVXNlIiB5Mj0iMzMuNzA4MiIgeDI9IjI5LjA0MzciIHkxPSIyNS40NTkyIiB4MT0iMTkuNzk4OSIgaWQ9InBhaW50Ml9saW5lYXJfMzIwMl8xODU3NyI+JiN4YTs8c3RvcCBzdG9wLWNvbG9yPSIjMTM0OEZGIi8+JiN4YTs8c3RvcCBzdG9wLWNvbG9yPSIjMDYyMzhEIiBvZmZzZXQ9IjEiLz4mI3hhOzwvbGluZWFyR3JhZGllbnQ+JiN4YTs8Y2xpcFBhdGggaWQ9ImNsaXAwXzMyMDJfMTg1NzciPiYjeGE7PHJlY3QgdHJhbnNmb3JtPSJ0cmFuc2xhdGUoMCAwLjAwMDk3NjU2MikiIGZpbGw9IndoaXRlIiBoZWlnaHQ9IjQ4IiB3aWR0aD0iNDgiLz4mI3hhOzwvY2xpcFBhdGg+JiN4YTs8Y2xpcFBhdGggaWQ9ImNsaXAxXzMyMDJfMTg1NzciPiYjeGE7PHJlY3QgdHJhbnNmb3JtPSJ0cmFuc2xhdGUoMTAuNTAxIDEwLjUwMSkiIGZpbGw9IndoaXRlIiBoZWlnaHQ9IjI3IiB3aWR0aD0iMjciLz4mI3hhOzwvY2xpcFBhdGg+JiN4YTs8L2RlZnM+JiN4YTs8L3N2Zz4=;points=[[0,0,0,0,0],[0,0.25,0,0,0],[0,0.5,0,0,0],[0,0.75,0,0,0],[0.25,0,0,0,0],[0.5,0,0,0,0],[0.75,0,0,0,0],[1,0,0,0,0],[1,0.25,0,0,0],[1,0.5,0,0,0],[1,0.75,0,0,0]];" parent="Hm9edAj7zCcvypmeV3OK-16" vertex="1">
          <mxGeometry x="206.5" y="10" width="32" height="32" as="geometry" />
        </mxCell>
        <mxCell id="n4qhB_E4lbYfore2I8PU-1" value="" style="shape=image;verticalLabelPosition=bottom;verticalAlign=top;imageAspect=0;aspect=fixed;image=data:image/svg+xml,PHN2ZyB4bWxucz0iaHR0cDovL3d3dy53My5vcmcvMjAwMC9zdmciIGZpbGw9Im5vbmUiIHZpZXdCb3g9IjAgMCA0OSA0OSIgaGVpZ2h0PSI0OSIgd2lkdGg9IjQ5Ij4mI3hhOzxjaXJjbGUgc3Ryb2tlLXdpZHRoPSIwLjg1NzE0MyIgc3Ryb2tlPSIjRDVEQUREIiBmaWxsPSJ1cmwoI3BhaW50MF9saW5lYXJfMjYyMl8yMDQ3OSkiIHI9IjIzLjU3MTQiIGN5PSIyNC4wMzQ5IiBjeD0iMjQuNSIvPiYjeGE7PHBhdGggZmlsbD0idXJsKCNwYWludDFfcmFkaWFsXzI2MjJfMjA0NzkpIiBkPSJNMTcuNDc2OCAxOS4zNjIzQzE3Ljk4MzcgMTUuNzIzIDIxLjAyNjQgMTIuMjM3IDI1LjMwODggMTIuMjM3QzI4LjcxNTYgMTIuMjM3IDMxLjI2NjMgMTQuMTQ4MSAzMi42NDA0IDE2Ljk4OTZDMzYuMDY4MyAxNy4zMTM0IDM4LjkxNTYgMjAuMzc1IDM4LjkxNTYgMjQuMzU5QzM4LjkxNTYgMjguNjM1MyAzNS44MTk4IDMxLjM5MzQgMzIuMjcxMSAzMS42OTgzVjIyLjcyNTVMMzQuODQwNyAyNS4yOTUyQzM1LjE3MDIgMjUuNjI0NyAzNS43MDQ1IDI1LjYyNDcgMzYuMDM0IDI1LjI5NTJDMzYuMzYzNSAyNC45NjU3IDM2LjM2MzUgMjQuNDMxNCAzNi4wMzQgMjQuMTAxOUwzMi4wMjM5IDIwLjA5MTlDMzEuNjk0NCAxOS43NjI0IDMxLjE2MDIgMTkuNzYyNCAzMC44MzA3IDIwLjA5MTlMMjYuODIwNyAyNC4xMDE5QzI2LjQ5MTIgMjQuNDMxNCAyNi40OTEyIDI0Ljk2NTcgMjYuODIwNyAyNS4yOTUyQzI3LjE1MDIgMjUuNjI0NyAyNy42ODQ0IDI1LjYyNDcgMjguMDEzOSAyNS4yOTUyTDMwLjU4MzYgMjIuNzI1NVYzMS43MTQ2SDI3LjE4MDdDMjcuMTYxNyAzMS42ODY1IDI3LjE0MjQgMzEuNjU4NiAyNy4xMjI5IDMxLjYzMDhDMjYuNzEyMiAzMS4wNDQgMjYuMjMxMSAzMC41MzkgMjUuNjgzNSAzMC4xMjAyTDI1LjY4ODUgMzAuMTA5TDI1LjY5MjggMzAuMDk4OEMyNS45NjYzIDI5LjQ1MjQgMjYuMTAwOSAyOC43NzA0IDI2LjEwMDkgMjguMDY2NUMyNi4xMDA5IDI3LjM2MjcgMjUuOTY2MyAyNi42ODA3IDI1LjY5MjggMjYuMDM0MkMyNS40MjY1IDI1LjQwNDggMjUuMDQ2OSAyNC44NDY1IDI0LjU1NjQgMjQuMzczMkMyNC4wODMxIDIzLjg4MjcgMjMuNTI0OCAyMy41MDMxIDIyLjg5NTQgMjMuMjM2OEMyMi4yNDg5IDIyLjk2MzMgMjEuNTY2OSAyMi44Mjg2IDIwLjg2MzEgMjIuODI4NkMyMC4xNTkyIDIyLjgyODYgMTkuNDc3MiAyMi45NjMzIDE4LjgzMDggMjMuMjM2OEMxOC4xOTY0IDIzLjUwNTIgMTcuNjMxMiAyMy44ODYyIDE3LjE0NCAyNC4zNzM0QzE2LjY2NjggMjQuODUwNiAxNi4yOTc2IDI1LjQwOTYgMTYuMDMzNCAyNi4wMzQyQzE1Ljc1OTkgMjYuNjgwNyAxNS42MjUyIDI3LjM2MjcgMTUuNjI1MiAyOC4wNjY1QzE1LjYyNTIgMjguODA4MSAxNS43NjEyIDI5LjUwNjMgMTYuMDM1OCAzMC4xNDRDMTYuMDA0IDMwLjE2OTEgMTUuOTcyNSAzMC4xOTQ1IDE1Ljk0MTIgMzAuMjIwMkMxNS42Mzg0IDMwLjQ1ODYgMTUuMzU4NiAzMC43MjA2IDE1LjEwMjUgMzEuMDA1MUMxNC41NTg1IDMwLjcyOTggMTQuMDcwMSAzMC4zNzQ4IDEzLjY0NzMgMjkuOTQwOEMxMi41MDc2IDI4Ljc3MTMgMTIgMjcuMTg5NiAxMiAyNS41MTYyQzEyIDIzLjcxNTUgMTIuNjYwMSAyMi4wMDggMTMuOTM4MSAyMC44MzE2QzE0Ljg4MjkgMTkuOTYyIDE2LjA5OTIgMTkuNDQ0MyAxNy40NzY4IDE5LjM2MjNaIiBjbGlwLXJ1bGU9ImV2ZW5vZGQiIGZpbGwtcnVsZT0iZXZlbm9kZCIvPiYjeGE7PHBhdGggZmlsbD0idXJsKCNwYWludDJfcmFkaWFsXzI2MjJfMjA0NzkpIiBkPSJNMjMuNDQ4NyAzMC44MDc3QzI0LjQyMDEgMzEuMTg5MyAyNS4yMDkzIDMxLjgxMzggMjUuODE2NCAzMi42ODExQzI2LjQyMzYgMzMuNTQ4NCAyNi43MjcxIDM0LjUyODQgMjYuNzI3MSAzNS42MjEyVjM3LjEwNDNDMjYuNzI3MSAzNy4zMTI0IDI2LjY0OSAzNy40ODU5IDI2LjQ5MjkgMzcuNjI0NkMyNi4zNTQyIDM3Ljc2MzQgMjYuMTg5NCAzNy44MzI4IDI1Ljk5ODYgMzcuODMyOEgyNC41MTU1QzI0LjMwNzQgMzcuODMyOCAyNC4xMjUyIDM3Ljc2MzQgMjMuOTY5MSAzNy42MjQ2QzIzLjgzMDQgMzcuNDg1OSAyMy43NjEgMzcuMzEyNCAyMy43NjEgMzcuMTA0M0MyMy43NjEgMzYuODk2MSAyMy44MzA0IDM2LjcyMjcgMjMuOTY5MSAzNi41ODM5QzI0LjEyNTIgMzYuNDI3OCAyNC4zMDc0IDM2LjM0OTcgMjQuNTE1NSAzNi4zNDk3SDI1LjI0NFYzNS42MjEyQzI1LjI0NCAzNS4xMTgyIDI1LjE0ODYgMzQuNjQxMSAyNC45NTc4IDM0LjE5MDJDMjQuNzY3IDMzLjczOTIgMjQuNDk4MiAzMy4zNDg5IDI0LjE1MTMgMzMuMDE5M0MyMy44MjE3IDMyLjY3MjQgMjMuNDMxNCAzMi40MDM1IDIyLjk4MDQgMzIuMjEyN0MyMi41NDY4IDMyLjAyMTkgMjIuMDY5OCAzMS45MjY1IDIxLjU0OTQgMzEuOTI2NUgyMC4wOTIzQzE5LjU3MiAzMS45MjY1IDE5LjA4NjMgMzIuMDIxOSAxOC42MzUzIDMyLjIxMjdDMTguMjAxNiAzMi40MDM1IDE3LjgxMTQgMzIuNjcyNCAxNy40NjQ0IDMzLjAxOTNDMTcuMTM0OSAzMy4zNDg5IDE2Ljg3NDcgMzMuNzM5MiAxNi42ODM5IDM0LjE5MDJDMTYuNDkzMSAzNC42NDExIDE2LjM5NzcgMzUuMTE4MiAxNi4zOTc3IDM1LjYyMTJWMzYuMzQ5N0gxNy4xMjYyQzE3LjMzNDMgMzYuMzQ5NyAxNy41MDc4IDM2LjQyNzggMTcuNjQ2NiAzNi41ODM5QzE3Ljc4NTMgMzYuNzIyNyAxNy44NTQ3IDM2Ljg5NjEgMTcuODU0NyAzNy4xMDQzQzE3Ljg1NDcgMzcuMzEyNCAxNy43ODUzIDM3LjQ4NTkgMTcuNjQ2NiAzNy42MjQ2QzE3LjUwNzggMzcuNzYzNCAxNy4zMzQzIDM3LjgzMjggMTcuMTI2MiAzNy44MzI4SDE1LjY0MzFDMTUuNDUyMyAzNy44MzI4IDE1LjI3ODkgMzcuNzYzNCAxNS4xMjI4IDM3LjYyNDZDMTQuOTg0IDM3LjQ4NTkgMTQuOTE0NiAzNy4zMTI0IDE0LjkxNDYgMzcuMTA0M1YzNS42MjEyQzE0LjkxNDYgMzUuMDY2MSAxNC45OTI3IDM0LjU0NTcgMTUuMTQ4OCAzNC4wNjAxQzE1LjMyMjIgMzMuNTU3IDE1LjU0NzcgMzMuMDk3NCAxNS44MjUzIDMyLjY4MTFDMTYuMTIwMSAzMi4yNjQ4IDE2LjQ2NzEgMzEuOTAwNSAxNi44NjYgMzEuNTg4M0MxNy4yNjUgMzEuMjU4NyAxNy43MDczIDMwLjk5ODUgMTguMTkzIDMwLjgwNzdDMTcuNDgxOCAzMC4xMzEyIDE3LjEyNjIgMjkuMjcyNiAxNy4xMjYyIDI4LjIzMThDMTcuMTI2MiAyNy43Mjg4IDE3LjIyMTYgMjcuMjUxOCAxNy40MTI0IDI2LjgwMDhDMTcuNjAzMiAyNi4zNDk4IDE3Ljg2MzQgMjUuOTU5NSAxOC4xOTMgMjUuNjNDMTguNTM5OSAyNS4yODMxIDE4LjkzODggMjUuMDE0MiAxOS4zODk4IDI0LjgyMzRDMTkuODQwOCAyNC42MzI2IDIwLjMxNzggMjQuNTM3MiAyMC44MjA5IDI0LjUzNzJDMjEuMzIzOSAyNC41MzcyIDIxLjgwMDkgMjQuNjMyNiAyMi4yNTE5IDI0LjgyMzRDMjIuNzAyOSAyNS4wMTQyIDIzLjA5MzIgMjUuMjgzMSAyMy40MjI3IDI1LjYzQzIzLjc2OTYgMjUuOTU5NSAyNC4wMzg1IDI2LjM0OTggMjQuMjI5MyAyNi44MDA4QzI0LjQyMDEgMjcuMjUxOCAyNC41MTU1IDI3LjcyODggMjQuNTE1NSAyOC4yMzE4QzI0LjUxNTUgMjguNzM0OSAyNC40MjAxIDI5LjIxMTkgMjQuMjI5MyAyOS42NjI5QzI0LjAzODUgMzAuMDk2NSAyMy43NzgzIDMwLjQ3ODEgMjMuNDQ4NyAzMC44MDc3Wk0yMC44MjA5IDI2LjAyMDNDMjAuMjEzOCAyNi4wMjAzIDE5LjY5MzQgMjYuMjM3MSAxOS4yNTk3IDI2LjY3MDdDMTguODI2MSAyNy4xMDQ0IDE4LjYwOTMgMjcuNjI0NyAxOC42MDkzIDI4LjIzMThDMTguNjA5MyAyOC44MzkgMTguODI2MSAyOS4zNTkzIDE5LjI1OTcgMjkuNzkzQzE5LjY5MzQgMzAuMjI2NiAyMC4yMTM4IDMwLjQ0MzQgMjAuODIwOSAzMC40NDM0QzIxLjQyOCAzMC40NDM0IDIxLjk0ODMgMzAuMjI2NiAyMi4zODIgMjkuNzkzQzIyLjgxNTYgMjkuMzU5MyAyMy4wMzI0IDI4LjgzOSAyMy4wMzI0IDI4LjIzMThDMjMuMDMyNCAyNy42MjQ3IDIyLjgxNTYgMjcuMTA0NCAyMi4zODIgMjYuNjcwN0MyMS45NDgzIDI2LjIzNzEgMjEuNDI4IDI2LjAyMDMgMjAuODIwOSAyNi4wMjAzWiIvPiYjeGE7PGRlZnM+JiN4YTs8bGluZWFyR3JhZGllbnQgZ3JhZGllbnRVbml0cz0idXNlclNwYWNlT25Vc2UiIHkyPSI0NC4yNzkyIiB4Mj0iNDEuNTY0NSIgeTE9IjYuODQ3NzUiIHgxPSI0Ljg1Mjg3IiBpZD0icGFpbnQwX2xpbmVhcl8yNjIyXzIwNDc5Ij4mI3hhOzxzdG9wIHN0b3AtY29sb3I9IndoaXRlIi8+JiN4YTs8c3RvcCBzdG9wLWNvbG9yPSIjRUFFQ0VFIiBvZmZzZXQ9IjEiLz4mI3hhOzwvbGluZWFyR3JhZGllbnQ+JiN4YTs8cmFkaWFsR3JhZGllbnQgZ3JhZGllbnRUcmFuc2Zvcm09InRyYW5zbGF0ZSgxNi4xNzM5IDE1Ljk5NTIpIHJvdGF0ZSg0My44NzgpIHNjYWxlKDI1Ljg1MjQgNDguODExNykiIGdyYWRpZW50VW5pdHM9InVzZXJTcGFjZU9uVXNlIiByPSIxIiBjeT0iMCIgY3g9IjAiIGlkPSJwYWludDFfcmFkaWFsXzI2MjJfMjA0NzkiPiYjeGE7PHN0b3Agc3RvcC1jb2xvcj0iIzAxOTVGRiIvPiYjeGE7PHN0b3Agc3RvcC1jb2xvcj0iIzExNDdFOSIgb2Zmc2V0PSIxIi8+JiN4YTs8L3JhZGlhbEdyYWRpZW50PiYjeGE7PHJhZGlhbEdyYWRpZW50IGdyYWRpZW50VHJhbnNmb3JtPSJ0cmFuc2xhdGUoMTYuMTY3OCAxNi4wODc1KSByb3RhdGUoNDMuNTYwMikgc2NhbGUoMjUuODcyNyAyMy41NDcxKSIgZ3JhZGllbnRVbml0cz0idXNlclNwYWNlT25Vc2UiIHI9IjEiIGN5PSIwIiBjeD0iMCIgaWQ9InBhaW50Ml9yYWRpYWxfMjYyMl8yMDQ3OSI+JiN4YTs8c3RvcCBzdG9wLWNvbG9yPSIjMTM0OEZGIi8+JiN4YTs8c3RvcCBzdG9wLWNvbG9yPSIjMDYyMzhEIiBvZmZzZXQ9IjEiLz4mI3hhOzwvcmFkaWFsR3JhZGllbnQ+JiN4YTs8L2RlZnM+JiN4YTs8L3N2Zz4=;points=[[0,0,0,0,0],[0,0.25,0,0,0],[0,0.5,0,0,0],[0,0.75,0,0,0],[0.25,0,0,0,0],[0.5,0,0,0,0],[0.75,0,0,0,0],[1,0,0,0,0],[1,0.25,0,0,0],[1,0.5,0,0,0],[1,0.75,0,0,0]];" parent="Hm9edAj7zCcvypmeV3OK-16" vertex="1">
          <mxGeometry x="291.5" y="10" width="32" height="32" as="geometry" />
        </mxCell>
        <mxCell id="Hm9edAj7zCcvypmeV3OK-31" value="" style="group" parent="UHaCpyEYQsDfGPqh9ESF-52" vertex="1" connectable="0">
          <mxGeometry y="57.819999999999936" width="140" height="262" as="geometry" />
        </mxCell>
        <mxCell id="Hm9edAj7zCcvypmeV3OK-41" value="&lt;font color=&quot;#188918&quot; size=&quot;1&quot;&gt;&lt;b style=&quot;&quot;&gt;SAML2/OIDC&lt;/b&gt;&lt;/font&gt;" style="rounded=1;whiteSpace=wrap;html=1;arcSize=50;strokeColor=#188918;fillColor=#f5fae5;fontColor=#266f3a;strokeWidth=1.5;" parent="Hm9edAj7zCcvypmeV3OK-31" vertex="1">
          <mxGeometry x="13.500000000000455" y="228.0000000000001" width="72" height="16" as="geometry" />
        </mxCell>
        <mxCell id="Hm9edAj7zCcvypmeV3OK-42" style="rounded=0;orthogonalLoop=1;jettySize=auto;html=1;fontSize=18;strokeColor=#188918;fontFamily=Helvetica;fontColor=default;targetPerimeterSpacing=15;endSize=4;startSize=4;endArrow=none;endFill=0;strokeWidth=1.5;startArrow=none;startFill=0;entryX=0.5;entryY=0;entryDx=0;entryDy=0;" parent="Hm9edAj7zCcvypmeV3OK-31" source="Hm9edAj7zCcvypmeV3OK-38" target="Hm9edAj7zCcvypmeV3OK-41" edge="1">
          <mxGeometry relative="1" as="geometry">
            <mxPoint x="49.940000000000055" y="231.69000000000005" as="targetPoint" />
            <mxPoint x="50.5" y="159.69000000000005" as="sourcePoint" />
          </mxGeometry>
        </mxCell>
        <mxCell id="Hm9edAj7zCcvypmeV3OK-32" value="" style="group" parent="Hm9edAj7zCcvypmeV3OK-31" vertex="1" connectable="0">
          <mxGeometry y="-2" width="140" height="166" as="geometry" />
        </mxCell>
        <mxCell id="Hm9edAj7zCcvypmeV3OK-33" value="&lt;font color=&quot;#1d2d3e&quot; face=&quot;arial&quot; style=&quot;font-size: 12px;&quot;&gt;End User&lt;/font&gt;" style="text;html=1;align=center;verticalAlign=middle;resizable=0;points=[];autosize=1;strokeColor=none;fillColor=none;fontSize=12;fontColor=default;fontFamily=Helvetica;strokeWidth=1.5;container=0;" parent="Hm9edAj7zCcvypmeV3OK-32" vertex="1">
          <mxGeometry x="15.5" y="20.69" width="68" height="26" as="geometry" />
        </mxCell>
        <mxCell id="Hm9edAj7zCcvypmeV3OK-34" value="" style="endArrow=blockThin;html=1;strokeColor=#475E75;bendable=1;rounded=0;endFill=1;endSize=4;strokeWidth=1.5;startSize=4;exitX=0.495;exitY=1.098;exitDx=0;exitDy=0;exitPerimeter=0;entryX=0.5;entryY=0;entryDx=0;entryDy=0;entryPerimeter=0;" parent="Hm9edAj7zCcvypmeV3OK-32" source="Hm9edAj7zCcvypmeV3OK-33" target="Hm9edAj7zCcvypmeV3OK-36" edge="1">
          <mxGeometry width="50" height="50" relative="1" as="geometry">
            <mxPoint x="49.5" y="17.69" as="sourcePoint" />
            <mxPoint x="48" y="86.69" as="targetPoint" />
            <Array as="points" />
          </mxGeometry>
        </mxCell>
        <mxCell id="Hm9edAj7zCcvypmeV3OK-35" value="" style="shape=image;verticalLabelPosition=bottom;verticalAlign=top;imageAspect=0;aspect=fixed;image=data:image/svg+xml,PHN2ZyB4bWxucz0iaHR0cDovL3d3dy53My5vcmcvMjAwMC9zdmciIGZpbGw9Im5vbmUiIHZpZXdCb3g9IjAgMCAxNyAxNyIgaGVpZ2h0PSIxNyIgd2lkdGg9IjE3Ij4mI3hhOzxwYXRoIGZpbGw9InVybCgjcGFpbnQwX2xpbmVhcl8yXzI4Nzk4KSIgZD0iTTAuMjEzODY3IDguNTUyNzNDMC4yMTM4NjcgNy40Njk0IDAuNDIyMjAxIDYuNDU4OTggMC44Mzg4NjcgNS41MjE0OEMxLjI1NTUzIDQuNTYzMTUgMS44MTgwMyAzLjcyOTgyIDIuNTI2MzcgMy4wMjE0OEMzLjIzNDcgMi4zMTMxNSA0LjA2ODAzIDEuNzUwNjUgNS4wMjYzNyAxLjMzMzk4QzUuOTg0NyAwLjkxNzMxOCA3LjAwNTUzIDAuNzA4OTg0IDguMDg4ODcgMC43MDg5ODRDOS4xNzIyIDAuNzA4OTg0IDEwLjE4MjYgMC45MTczMTggMTEuMTIwMSAxLjMzMzk4QzEyLjA3ODUgMS43NTA2NSAxMi45MTE4IDIuMzEzMTUgMTMuNjIwMSAzLjAyMTQ4QzE0LjMyODUgMy43Mjk4MiAxNC44OTEgNC41NjMxNSAxNS4zMDc2IDUuNTIxNDhDMTUuNzI0MyA2LjQ1ODk4IDE1LjkzMjYgNy40Njk0IDE1LjkzMjYgOC41NTI3M0MxNS45MzI2IDkuNjM2MDcgMTUuNzI0MyAxMC42NTY5IDE1LjMwNzYgMTEuNjE1MkMxNC44OTEgMTIuNTczNiAxNC4zMjg1IDEzLjQwNjkgMTMuNjIwMSAxNC4xMTUyQzEyLjkxMTggMTQuODIzNiAxMi4wNzg1IDE1LjM4NjEgMTEuMTIwMSAxNS44MDI3QzEwLjE4MjYgMTYuMjE5NCA5LjE3MjIgMTYuNDI3NyA4LjA4ODg3IDE2LjQyNzdDNy4wMDU1MyAxNi40Mjc3IDUuOTg0NyAxNi4yMTk0IDUuMDI2MzcgMTUuODAyN0M0LjA2ODAzIDE1LjM4NjEgMy4yMzQ3IDE0LjgyMzYgMi41MjYzNyAxNC4xMTUyQzEuODE4MDMgMTMuNDA2OSAxLjI1NTUzIDEyLjU3MzYgMC44Mzg4NjcgMTEuNjE1MkMwLjQyMjIwMSAxMC42NTY5IDAuMjEzODY3IDkuNjM2MDcgMC4yMTM4NjcgOC41NTI3M1pNOS42NTEzNyAxMC45Mjc3QzEwLjMxOCAxMC45Mjc3IDEwLjkzMjYgMTEuMDg0IDExLjQ5NTEgMTEuMzk2NUMxMi4wNTc2IDExLjY4ODIgMTIuNTE2IDEyLjA5NDQgMTIuODcwMSAxMi42MTUyQzEzLjM0OTMgMTIuMDczNiAxMy43MTM5IDExLjQ1OSAxMy45NjM5IDEwLjc3MTVDMTQuMjM0NyAxMC4wODQgMTQuMzcwMSA5LjM0NDQgMTQuMzcwMSA4LjU1MjczQzE0LjM3MDEgNy42Nzc3MyAxNC4yMDM1IDYuODY1MjMgMTMuODcwMSA2LjExNTIzQzEzLjUzNjggNS4zNDQ0IDEzLjA4ODkgNC42Nzc3MyAxMi41MjY0IDQuMTE1MjNDMTEuOTYzOSAzLjU1MjczIDExLjI5NzIgMy4xMDQ4MiAxMC41MjY0IDIuNzcxNDhDOS43NzYzNyAyLjQzODE1IDguOTYzODcgMi4yNzE0OCA4LjA4ODg3IDIuMjcxNDhDNy4yMTM4NyAyLjI3MTQ4IDYuMzkwOTUgMi40MzgxNSA1LjYyMDEyIDIuNzcxNDhDNC44NzAxMiAzLjEwNDgyIDQuMjAzNDUgMy41NTI3MyAzLjYyMDEyIDQuMTE1MjNDMy4wNTc2MiA0LjY3NzczIDIuNjA5NyA1LjM0NDQgMi4yNzYzNyA2LjExNTIzQzEuOTQzMDMgNi44NjUyMyAxLjc3NjM3IDcuNjc3NzMgMS43NzYzNyA4LjU1MjczQzEuNzc2MzcgOS4zNDQ0IDEuOTAxMzcgMTAuMDg0IDIuMTUxMzcgMTAuNzcxNUMyLjQyMjIgMTEuNDU5IDIuNzk3MiAxMi4wNzM2IDMuMjc2MzcgMTIuNjE1MkMzLjYzMDUzIDEyLjA5NDQgNC4wODg4NyAxMS42ODgyIDQuNjUxMzcgMTEuMzk2NUM1LjIxMzg3IDExLjA4NCA1LjgyODQ1IDEwLjkyNzcgNi40OTUxMiAxMC45Mjc3SDkuNjUxMzdaTTExLjIxMzkgNi45OTAyM0MxMS4yMTM5IDcuNDI3NzMgMTEuMTMwNSA3Ljg0NDQgMTAuOTYzOSA4LjI0MDIzQzEwLjc5NzIgOC42MTUyMyAxMC41NjggOC45NDg1NyAxMC4yNzY0IDkuMjQwMjNDMTAuMDA1NSA5LjUxMTA3IDkuNjgyNjIgOS43Mjk4MiA5LjMwNzYyIDkuODk2NDhDOC45MzI2MiAxMC4wNjMyIDguNTI2MzcgMTAuMTQ2NSA4LjA4ODg3IDEwLjE0NjVDNy42NTEzNyAxMC4xNDY1IDcuMjM0NyAxMC4wNjMyIDYuODM4ODcgOS44OTY0OEM2LjQ2Mzg3IDkuNzI5ODIgNi4xMzA1MyA5LjUxMTA3IDUuODM4ODcgOS4yNDAyM0M1LjU2ODAzIDguOTQ4NTcgNS4zNDkyOCA4LjYxNTIzIDUuMTgyNjIgOC4yNDAyM0M1LjAxNTk1IDcuODQ0NCA0LjkzMjYyIDcuNDI3NzMgNC45MzI2MiA2Ljk5MDIzQzQuOTMyNjIgNi41NTI3MyA1LjAxNTk1IDYuMTQ2NDggNS4xODI2MiA1Ljc3MTQ4QzUuMzQ5MjggNS4zOTY0OCA1LjU2ODAzIDUuMDYzMTUgNS44Mzg4NyA0Ljc3MTQ4QzYuMTMwNTMgNC40Nzk4MiA2LjQ2Mzg3IDQuMjUwNjUgNi44Mzg4NyA0LjA4Mzk4QzcuMjM0NyAzLjkxNzMyIDcuNjUxMzcgMy44MzM5OCA4LjA4ODg3IDMuODMzOThDOC41MjYzNyAzLjgzMzk4IDguOTMyNjIgMy45MTczMiA5LjMwNzYyIDQuMDgzOThDOS42ODI2MiA0LjI1MDY1IDEwLjAwNTUgNC40Nzk4MiAxMC4yNzY0IDQuNzcxNDhDMTAuNTY4IDUuMDYzMTUgMTAuNzk3MiA1LjM5NjQ4IDEwLjk2MzkgNS43NzE0OEMxMS4xMzA1IDYuMTQ2NDggMTEuMjEzOSA2LjU1MjczIDExLjIxMzkgNi45OTAyM1pNOS42NTEzNyA2Ljk5MDIzQzkuNjUxMzcgNi41NTI3MyA5LjQ5NTEyIDYuMTg4MTUgOS4xODI2MiA1Ljg5NjQ4QzguODcwMTIgNS41ODM5OCA4LjUwNTUzIDUuNDI3NzMgOC4wODg4NyA1LjQyNzczQzcuNjUxMzcgNS40Mjc3MyA3LjI3NjM3IDUuNTgzOTggNi45NjM4NyA1Ljg5NjQ4QzYuNjUxMzcgNi4xODgxNSA2LjQ5NTEyIDYuNTUyNzMgNi40OTUxMiA2Ljk5MDIzQzYuNDk1MTIgNy40Mjc3MyA2LjY1MTM3IDcuODAyNzMgNi45NjM4NyA4LjExNTIzQzcuMjc2MzcgOC40MDY5IDcuNjUxMzcgOC41NTI3MyA4LjA4ODg3IDguNTUyNzNDOC41MDU1MyA4LjU1MjczIDguODcwMTIgOC40MDY5IDkuMTgyNjIgOC4xMTUyM0M5LjQ5NTEyIDcuODAyNzMgOS42NTEzNyA3LjQyNzczIDkuNjUxMzcgNi45OTAyM1pNNC40NjM4NyAxMy43MDlDNC45NjM4NyAxNC4wNjMyIDUuNTE1OTUgMTQuMzQ0NCA2LjEyMDEyIDE0LjU1MjdDNi43NDUxMiAxNC43NjExIDcuNDAxMzcgMTQuODY1MiA4LjA4ODg3IDE0Ljg2NTJDOC43NTU1MyAxNC44NjUyIDkuMzkwOTUgMTQuNzYxMSA5Ljk5NTEyIDE0LjU1MjdDMTAuNjIwMSAxNC4zNDQ0IDExLjE4MjYgMTQuMDYzMiAxMS42ODI2IDEzLjcwOUMxMS40NzQzIDEzLjMzNCAxMS4xODI2IDEzLjA0MjMgMTAuODA3NiAxMi44MzRDMTAuNDUzNSAxMi42MDQ4IDEwLjA2OCAxMi40OTAyIDkuNjUxMzcgMTIuNDkwMkg2LjQ5NTEyQzYuMDc4NDUgMTIuNDkwMiA1LjY4MjYyIDEyLjYwNDggNS4zMDc2MiAxMi44MzRDNC45NTM0NSAxMy4wNDIzIDQuNjcyMiAxMy4zMzQgNC40NjM4NyAxMy43MDlaIi8+JiN4YTs8ZGVmcz4mI3hhOzxsaW5lYXJHcmFkaWVudCBncmFkaWVudFVuaXRzPSJ1c2VyU3BhY2VPblVzZSIgeTI9IjE2LjQyNzciIHgyPSI4LjA3MzI0IiB5MT0iMC43MDg5ODQiIHgxPSI4LjA3MzI0IiBpZD0icGFpbnQwX2xpbmVhcl8yXzI4Nzk4Ij4mI3hhOzxzdG9wIHN0b3AtY29sb3I9IiM1QjczOEIiLz4mI3hhOzxzdG9wIHN0b3AtY29sb3I9IiMyMjM1NDgiIG9mZnNldD0iMSIvPiYjeGE7PC9saW5lYXJHcmFkaWVudD4mI3hhOzwvZGVmcz4mI3hhOzwvc3ZnPg==;strokeWidth=1.5;container=0;" parent="Hm9edAj7zCcvypmeV3OK-32" vertex="1">
          <mxGeometry x="35.5" y="-3.31" width="28" height="28" as="geometry" />
        </mxCell>
        <mxCell id="Hm9edAj7zCcvypmeV3OK-36" value="" style="shape=image;verticalLabelPosition=bottom;verticalAlign=top;imageAspect=0;aspect=fixed;image=data:image/svg+xml,PHN2ZyB4bWxucz0iaHR0cDovL3d3dy53My5vcmcvMjAwMC9zdmciIGZpbGw9Im5vbmUiIHZpZXdCb3g9IjAgMCAxNyAxNyIgaGVpZ2h0PSIxNyIgd2lkdGg9IjE3Ij4mI3hhOzxnIGNsaXAtcGF0aD0idXJsKCNjbGlwMF8yXzI4NzkzKSI+JiN4YTs8cGF0aCBmaWxsPSJ1cmwoI3BhaW50MF9saW5lYXJfMl8yODc5MykiIGQ9Ik04Ljg4ODg3IDExLjI5MTRDOC44ODg4NyAxMS43MzE0IDguNTI4ODcgMTIuMDkxNCA4LjA4ODg3IDEyLjA5MTRINy4yODg4N1YxMy42MzU0SDguMDg4ODdDOC41Mjg4NyAxMy42MzU0IDguODg4ODcgMTMuOTk1NCA4Ljg4ODg3IDE0LjQzNTRDOC44ODg4NyAxNC44NzU0IDguNTI4ODcgMTUuMjM1NCA4LjA4ODg3IDE1LjIzNTRINC4wODg4N0MzLjY0ODg3IDE1LjIzNTQgMy4yODg4NyAxNC44NzU0IDMuMjg4ODcgMTQuNDM1NEMzLjI4ODg3IDEzLjk5NTQgMy42NDg4NyAxMy42MzU0IDQuMDg4ODcgMTMuNjM1NEg1LjY4ODg3VjEyLjA5MTRIMi40ODg4N0MxLjE2ODg3IDEyLjA5MTQgMC4wODg4NjcyIDExLjA3NTQgMC4wODg4NjcyIDkuODI3NFYzLjk1NTRDMC4wODg4NjcyIDIuNzA3NCAxLjE2ODg3IDEuNjgzNCAyLjQ4ODg3IDEuNjk5NEgxMS4yODg5QzEyLjYwODkgMS42OTk0IDEzLjY4ODkgMi43MTU0IDEzLjY4ODkgMy45NjM0QzEzLjY4ODkgNC40MDM0IDEzLjMyODkgNC43Nzk0IDEyLjg4ODkgNC43Nzk0QzEyLjQ0ODkgNC43Nzk0IDEyLjA4ODkgNC40MzU0IDEyLjA4ODkgMy45OTU0QzEyLjA4ODkgMy41ODc0IDExLjcyODkgMy4yOTE0IDExLjI4ODkgMy4yOTE0SDIuNDg4ODdDMi4wNDg4NyAzLjI5MTQgMS42ODg4NyAzLjU4NzQgMS42ODg4NyAzLjk1NTRWOS44Mjc0QzEuNjg4ODcgMTAuMTk1NCAyLjA0ODg3IDEwLjQ5MTQgMi40ODg4NyAxMC40OTE0SDguMDg4ODdDOC41Mjg4NyAxMC40OTE0IDguODg4ODcgMTAuODUxNCA4Ljg4ODg3IDExLjI5MTRaTTkuNjg4ODcgNy40MDMzOUM5LjY4ODg3IDYuMjk5MzkgMTAuNTg0OSA1LjQwMzM5IDExLjY4ODkgNS40MDMzOUgxNC4wODg5QzE1LjE5MjkgNS40MDMzOSAxNi4wODg5IDYuMjk5MzkgMTYuMDg4OSA3LjQwMzM5VjEzLjIzNTRDMTYuMDg4OSAxNC4zMzk0IDE1LjE5MjkgMTUuMjM1NCAxNC4wODg5IDE1LjIzNTRIMTEuNjg4OUMxMC41ODQ5IDE1LjIzNTQgOS42ODg4NyAxNC4zMzk0IDkuNjg4ODcgMTMuMjM1NFY3LjQwMzM5Wk0xNC4wODg5IDEzLjYzNTRDMTQuMzEyOSAxMy42MzU0IDE0LjQ4ODkgMTMuNDU5NCAxNC40ODg5IDEzLjIzNTRWNy40MDMzOUMxNC40ODg5IDcuMTc5MzkgMTQuMzEyOSA3LjAwMzM5IDE0LjA4ODkgNy4wMDMzOUgxMS42ODg5QzExLjQ2NDkgNy4wMDMzOSAxMS4yODg5IDcuMTc5MzkgMTEuMjg4OSA3LjQwMzM5VjEzLjIzNTRDMTEuMjg4OSAxMy40NTk0IDExLjQ2NDkgMTMuNjM1NCAxMS42ODg5IDEzLjYzNTRIMTQuMDg4OVoiIGNsaXAtcnVsZT0iZXZlbm9kZCIgZmlsbC1ydWxlPSJldmVub2RkIi8+JiN4YTs8L2c+JiN4YTs8ZGVmcz4mI3hhOzxsaW5lYXJHcmFkaWVudCBncmFkaWVudFVuaXRzPSJ1c2VyU3BhY2VPblVzZSIgeTI9IjE1LjIzNTQiIHgyPSI4LjA4ODg3IiB5MT0iMS42OTkyMiIgeDE9IjguMDg4ODciIGlkPSJwYWludDBfbGluZWFyXzJfMjg3OTMiPiYjeGE7PHN0b3Agc3RvcC1jb2xvcj0iIzVCNzM4QiIvPiYjeGE7PHN0b3Agc3RvcC1jb2xvcj0iIzIyMzU0OCIgb2Zmc2V0PSIxIi8+JiN4YTs8L2xpbmVhckdyYWRpZW50PiYjeGE7PGNsaXBQYXRoIGlkPSJjbGlwMF8yXzI4NzkzIj4mI3hhOzxyZWN0IHRyYW5zZm9ybT0idHJhbnNsYXRlKDAuMDg4ODY3MiAwLjQ1ODk4NCkiIGZpbGw9IndoaXRlIiBoZWlnaHQ9IjE2IiB3aWR0aD0iMTYiLz4mI3hhOzwvY2xpcFBhdGg+JiN4YTs8L2RlZnM+JiN4YTs8L3N2Zz4=;strokeWidth=1.5;points=[[0,0.25,0,0,0],[0,0.5,0,0,0],[0,0.75,0,0,0],[0.25,0,0,0,0],[0.25,1,0,0,0],[0.5,0,0,0,0],[0.5,1,0,0,0],[0.75,0,0,0,0],[0.75,1,0,0,0],[1,0.25,0,0,0],[1,0.5,0,0,0],[1,0.75,0,0,0]];container=0;" parent="Hm9edAj7zCcvypmeV3OK-32" vertex="1">
          <mxGeometry x="35.5" y="83.69" width="28" height="28" as="geometry" />
        </mxCell>
        <mxCell id="Hm9edAj7zCcvypmeV3OK-37" value="&lt;font color=&quot;#1d2d3e&quot; face=&quot;arial&quot; style=&quot;font-size: 12px;&quot;&gt;&lt;span style=&quot;&quot;&gt;Application &lt;br&gt;Clients&lt;/span&gt;&lt;/font&gt;" style="text;html=1;align=center;verticalAlign=middle;resizable=0;points=[];autosize=1;strokeColor=none;fillColor=none;fontSize=12;fontColor=default;fontFamily=Helvetica;strokeWidth=1.5;container=0;" parent="Hm9edAj7zCcvypmeV3OK-32" vertex="1">
          <mxGeometry x="11" y="105.69" width="77" height="41" as="geometry" />
        </mxCell>
        <mxCell id="Hm9edAj7zCcvypmeV3OK-38" value="&lt;div style=&quot;&quot;&gt;&lt;span style=&quot;font-size: 10px;&quot;&gt;Mobile or Desktop&lt;/span&gt;&lt;/div&gt;" style="text;html=1;align=center;verticalAlign=middle;resizable=0;points=[];autosize=1;strokeColor=none;fillColor=none;fontSize=12;fontColor=#556B82;fontFamily=Helvetica;container=0;" parent="Hm9edAj7zCcvypmeV3OK-32" vertex="1">
          <mxGeometry y="136.69" width="99" height="26" as="geometry" />
        </mxCell>
        <mxCell id="2wBJ1yvuTB5yMnCRy2w5-4" value="&lt;p style=&quot;line-height: 100%;&quot;&gt;&lt;b&gt;&lt;font face=&quot;arial black&quot; style=&quot;font-size: 16px;&quot; color=&quot;#ffffff&quot;&gt;5&lt;/font&gt;&lt;/b&gt;&lt;/p&gt;" style="ellipse;whiteSpace=wrap;html=1;aspect=fixed;rotation=0;gradientColor=#0057D2;strokeColor=none;gradientDirection=east;fillColor=#2395FF;rounded=0;pointerEvents=0;fontFamily=Helvetica;fontSize=12;fontColor=default;spacingTop=4;spacingBottom=4;spacingLeft=4;spacingRight=4;" parent="Hm9edAj7zCcvypmeV3OK-32" vertex="1">
          <mxGeometry x="73" y="42.380000000000024" width="30" height="30" as="geometry" />
        </mxCell>
        <mxCell id="Hm9edAj7zCcvypmeV3OK-43" style="edgeStyle=orthogonalEdgeStyle;rounded=0;orthogonalLoop=1;jettySize=auto;html=1;fontSize=18;strokeColor=#188918;fontFamily=Helvetica;fontColor=default;targetPerimeterSpacing=15;endSize=4;startSize=4;endArrow=blockThin;endFill=1;strokeWidth=1.5;startArrow=none;startFill=0;exitX=1;exitY=0.5;exitDx=0;exitDy=0;entryX=0.5;entryY=1;entryDx=0;entryDy=0;" parent="UHaCpyEYQsDfGPqh9ESF-52" source="Hm9edAj7zCcvypmeV3OK-45" edge="1">
          <mxGeometry relative="1" as="geometry">
            <mxPoint x="879.5" y="396.82022654584216" as="targetPoint" />
            <mxPoint x="634.4999999999998" y="311.81999999999994" as="sourcePoint" />
            <Array as="points">
              <mxPoint x="635" y="312" />
              <mxPoint x="635" y="424" />
              <mxPoint x="880" y="424" />
            </Array>
          </mxGeometry>
        </mxCell>
        <mxCell id="Hm9edAj7zCcvypmeV3OK-44" style="edgeStyle=orthogonalEdgeStyle;rounded=0;orthogonalLoop=1;jettySize=auto;html=1;fontSize=18;strokeColor=#188918;fontFamily=Helvetica;fontColor=default;targetPerimeterSpacing=15;endSize=4;startSize=4;endArrow=none;endFill=0;strokeWidth=1.5;startArrow=none;startFill=0;entryX=0;entryY=0.5;entryDx=0;entryDy=0;exitX=1.002;exitY=0.598;exitDx=0;exitDy=0;exitPerimeter=0;" parent="UHaCpyEYQsDfGPqh9ESF-52" source="Hm9edAj7zCcvypmeV3OK-20" target="Hm9edAj7zCcvypmeV3OK-45" edge="1">
          <mxGeometry relative="1" as="geometry">
            <mxPoint x="552.5" y="329.0899999999999" as="targetPoint" />
            <mxPoint x="503.5" y="327.81999999999994" as="sourcePoint" />
            <Array as="points" />
          </mxGeometry>
        </mxCell>
        <mxCell id="Hm9edAj7zCcvypmeV3OK-45" value="&lt;font color=&quot;#188918&quot; size=&quot;1&quot;&gt;&lt;b style=&quot;&quot;&gt;SAML2/OIDC&lt;/b&gt;&lt;/font&gt;" style="rounded=1;whiteSpace=wrap;html=1;arcSize=50;strokeColor=#188918;fillColor=#f5fae5;fontColor=#266f3a;strokeWidth=1.5;" parent="UHaCpyEYQsDfGPqh9ESF-52" vertex="1">
          <mxGeometry x="552.5" y="303.81999999999994" width="72" height="16" as="geometry" />
        </mxCell>
        <mxCell id="Hm9edAj7zCcvypmeV3OK-40" style="edgeStyle=orthogonalEdgeStyle;rounded=0;orthogonalLoop=1;jettySize=auto;html=1;fontSize=18;strokeColor=#188918;fontFamily=Helvetica;fontColor=default;targetPerimeterSpacing=15;endSize=4;startSize=4;endArrow=blockThin;endFill=1;strokeWidth=1.5;startArrow=none;startFill=0;exitX=1;exitY=0.5;exitDx=0;exitDy=0;entryX=0.002;entryY=0.4;entryDx=0;entryDy=0;entryPerimeter=0;" parent="UHaCpyEYQsDfGPqh9ESF-52" source="Hm9edAj7zCcvypmeV3OK-41" target="Hm9edAj7zCcvypmeV3OK-20" edge="1">
          <mxGeometry relative="1" as="geometry">
            <mxPoint x="81.5" y="239.81999999999994" as="targetPoint" />
            <mxPoint x="85.50000000000045" y="294.51" as="sourcePoint" />
            <Array as="points" />
          </mxGeometry>
        </mxCell>
        <mxCell id="Cf-eS_Z8wyuZi8RKvG80-140" value="&lt;p style=&quot;line-height: 100%;&quot;&gt;&lt;b&gt;&lt;font face=&quot;arial black&quot; style=&quot;font-size: 16px;&quot; color=&quot;#ffffff&quot;&gt;1&lt;/font&gt;&lt;/b&gt;&lt;/p&gt;" style="ellipse;whiteSpace=wrap;html=1;aspect=fixed;rotation=0;gradientColor=#0057D2;strokeColor=none;gradientDirection=east;fillColor=#2395FF;rounded=0;pointerEvents=0;fontFamily=Helvetica;fontSize=12;fontColor=default;spacingTop=4;spacingBottom=4;spacingLeft=4;spacingRight=4;" parent="UHaCpyEYQsDfGPqh9ESF-52" vertex="1">
          <mxGeometry x="398.5" y="366.81999999999994" width="30" height="30" as="geometry" />
        </mxCell>
        <mxCell id="UHaCpyEYQsDfGPqh9ESF-1" value="&lt;font color=&quot;#188918&quot; size=&quot;1&quot;&gt;&lt;b style=&quot;&quot;&gt;OIDC&lt;/b&gt;&lt;/font&gt;" style="rounded=1;whiteSpace=wrap;html=1;arcSize=50;strokeColor=#188918;fillColor=#f5fae5;fontColor=#266f3a;strokeWidth=1.5;" parent="UHaCpyEYQsDfGPqh9ESF-52" vertex="1">
          <mxGeometry x="206.5" y="229.8241071428572" width="36" height="16" as="geometry" />
        </mxCell>
        <mxCell id="Hm9edAj7zCcvypmeV3OK-39" value="" style="endArrow=blockThin;html=1;strokeColor=#475E75;bendable=1;rounded=0;endFill=1;endSize=4;strokeWidth=1.5;startSize=4;exitX=1;exitY=0.5;exitDx=0;exitDy=0;exitPerimeter=0;" parent="UHaCpyEYQsDfGPqh9ESF-52" source="Hm9edAj7zCcvypmeV3OK-36" target="Cf-eS_Z8wyuZi8RKvG80-96" edge="1">
          <mxGeometry width="50" height="50" relative="1" as="geometry">
            <mxPoint x="67" y="155.51" as="sourcePoint" />
            <mxPoint x="140" y="158.81999999999994" as="targetPoint" />
          </mxGeometry>
        </mxCell>
        <mxCell id="lW-khkvEi3QtTLm4Eyx4-18" value="&lt;font color=&quot;#475f75&quot; size=&quot;1&quot;&gt;&lt;b style=&quot;&quot;&gt;REST/SPI&lt;/b&gt;&lt;/font&gt;" style="rounded=1;whiteSpace=wrap;html=1;arcSize=50;strokeColor=#475f75;fillColor=default;strokeWidth=1.5;" parent="UHaCpyEYQsDfGPqh9ESF-52" vertex="1">
          <mxGeometry x="753.210582524272" y="187.69604744136478" width="53.67961165048544" height="15.739701492537327" as="geometry" />
        </mxCell>
        <mxCell id="lW-khkvEi3QtTLm4Eyx4-21" value="" style="endArrow=blockThin;html=1;strokeColor=#475E75;bendable=1;rounded=0;endFill=1;endSize=4;strokeWidth=1.5;entryX=0;entryY=0.25;entryDx=0;entryDy=0;startSize=4;" parent="UHaCpyEYQsDfGPqh9ESF-52" edge="1">
          <mxGeometry width="50" height="50" relative="1" as="geometry">
            <mxPoint x="710" y="197" as="sourcePoint" />
            <mxPoint x="753.210582524272" y="196.61097281449906" as="targetPoint" />
            <Array as="points" />
          </mxGeometry>
        </mxCell>
        <mxCell id="Cf-eS_Z8wyuZi8RKvG80-133" value="&lt;font color=&quot;#475f75&quot; size=&quot;1&quot;&gt;&lt;b style=&quot;&quot;&gt;REST/Token&lt;/b&gt;&lt;/font&gt;" style="rounded=1;whiteSpace=wrap;html=1;arcSize=50;strokeColor=#475f75;fillColor=default;strokeWidth=1.5;" parent="UHaCpyEYQsDfGPqh9ESF-52" vertex="1">
          <mxGeometry x="836.9999999999999" y="381.080525053305" width="71" height="15.739701492537312" as="geometry" />
        </mxCell>
        <mxCell id="2wBJ1yvuTB5yMnCRy2w5-1" value="&lt;p style=&quot;line-height: 100%;&quot;&gt;&lt;b&gt;&lt;font face=&quot;arial black&quot; style=&quot;font-size: 16px;&quot; color=&quot;#ffffff&quot;&gt;2&lt;/font&gt;&lt;/b&gt;&lt;/p&gt;" style="ellipse;whiteSpace=wrap;html=1;aspect=fixed;rotation=0;gradientColor=#0057D2;strokeColor=none;gradientDirection=east;fillColor=#2395FF;rounded=0;pointerEvents=0;fontFamily=Helvetica;fontSize=12;fontColor=default;spacingTop=4;spacingBottom=4;spacingLeft=4;spacingRight=4;" parent="UHaCpyEYQsDfGPqh9ESF-52" vertex="1">
          <mxGeometry x="620.5" y="335.81999999999994" width="30" height="30" as="geometry" />
        </mxCell>
        <mxCell id="PR_Zs4r1wJ95d997HHvE-1" value="" style="shape=image;verticalLabelPosition=bottom;labelBackgroundColor=default;verticalAlign=top;aspect=fixed;imageAspect=0;image=data:image/svg+xml,PHN2ZyB4bWxucz0iaHR0cDovL3d3dy53My5vcmcvMjAwMC9zdmciIGZpbGw9Im5vbmUiIHZpZXdCb3g9IjAgMCAxNiAxNiIgaGVpZ2h0PSIxNiIgd2lkdGg9IjE2Ij4mI3hhOzxjaXJjbGUgc3Ryb2tlLXdpZHRoPSIwLjI4NTcwOCIgc3Ryb2tlPSIjRDVEQUREIiBmaWxsPSJ1cmwoI3BhaW50MF9saW5lYXJfMzg5MF8yMTUzNSkiIHI9IjcuODU2OTYiIGN5PSI3Ljk5NzM4IiBjeD0iNy45OTczOCIvPiYjeGE7PGcgY2xpcC1wYXRoPSJ1cmwoI2NsaXAwXzM4OTBfMjE1MzUpIj4mI3hhOzxwYXRoIHN0cm9rZS13aWR0aD0iMC43NSIgc3Ryb2tlPSIjRjRGNEY0IiBmaWxsPSJ1cmwoI3BhaW50MV9saW5lYXJfMzg5MF8yMTUzNSkiIGQ9Ik03LjYwNDA4IDguODk4NjRMNy43NTczMSA5LjA2NDA2TDcuOTc1MjcgOS4wMDYyOUM4LjEzMzMzIDguOTY0MzkgOC4yNjc1NiA4Ljg3ODU0IDguMzc4MjkgOC43Njc4MUM4LjU0MjcxIDguNjAzMzkgOC42NDQzNyA4LjM5NDE0IDguNjQ0MzcgOC4xNTEwOEM4LjY0NDM3IDguMTA5MzggOC42NDEzOCA4LjA2ODY4IDguNjM1NTkgOC4wMjkwMkM4LjY3NTI1IDguMDM0ODEgOC43MTU5NSA4LjAzNzgxIDguNzU3NjYgOC4wMzc4MUM5LjAwMDcxIDguMDM3ODEgOS4yMDk5NiA3LjkzNjE1IDkuMzc0MzggNy43NzE3MkM5LjUzODgxIDcuNjA3MyA5LjY0MDQ3IDcuMzk4MDUgOS42NDA0NyA3LjE1NDk5QzkuNjQwNDcgNi45MTE5NCA5LjUzODgxIDYuNzAyNjkgOS4zNzQzOCA2LjUzODI3TDkuMzc0NCA2LjUzODI1TDkuMzcxNDUgNi41MzUzN0w4Ljc0NDA0IDUuOTIxNkw4Ljg4NjEgNS43Nzk1NEw4LjY1MDQgNS41NDM4NEw4Ljg4NjEgNS43Nzk1NEM5LjA0ODM3IDUuNjE3MjcgOS4xMzI2NiA1LjQxMDg4IDkuMTMyNjYgNS4xODIzNUM5LjEzMjY2IDQuOTUxNzcgOS4wNTU3IDQuNzM1MjIgOC44ODYxIDQuNTY1NjJMOC40MzY4OCA0LjExNjRDNy45OTcyNiAzLjY3Njc4IDcuNDY4MjggMy40MzI2NCA2Ljg2MjggMy40MDE1OUM2LjM3NjY4IDMuMzc2NjcgNS45MjcwNyAzLjQ4OTYgNS41MjI0NSAzLjczNTI3TDQuNTA1ODcgMi42OTIxM0w0LjUwNTg5IDIuNjkyMTFMNC41MDI0NyAyLjY4ODY5QzQuMzM4MDQgMi41MjQyNyA0LjEyODc5IDIuNDIyNjEgMy44ODU3NCAyLjQyMjYxQzMuNjQ1MDUgMi40MjI2MSAzLjQ0Mzk4IDIuNTMzMjYgMy4yODg1NSAyLjY4ODY5QzMuMTI0MTIgMi44NTMxMiAzLjAyMjQ2IDMuMDYyMzcgMy4wMjI0NiAzLjMwNTQyQzMuMDIyNDYgMy41NDc1NCAzLjEyMzM0IDMuNzU2MTIgMy4yODY2NiAzLjkyMDI1TDQuMzE1MTYgNC45NzU2MkM0LjA4NjggNS4zNzg2NSAzLjk4MzE5IDUuODIxMjMgNC4wMDgxNyA2LjI5NThMNC4wMDgyIDYuMjk2MzNDNC4wMzk3OCA2Ljg4MDU0IDQuMjg3NTEgNy4zOTQ4NyA0LjcyMjk2IDcuODMwMzJMNC43MjI4OSA3LjgzMDM4TDQuNzI4OTEgNy44MzYxNEw1LjEgOC4xOTEwOUw1LjI1NzI4IDguMzQxNTNMNS40NjU5MiA4LjI3OTU5QzUuNjU0MzUgOC4yMjM2NiA1Ljg0OTI2IDguMTk1MTkgNi4wNDg5OCA4LjE5NTE5QzYuNDgxMzMgOC4xOTUxOSA2Ljg4MTkyIDguMzI4NjUgNy4yMzY5NCA4LjU3ODEyQzcuMzcyNTUgOC42NzM0MiA3LjQ5NDc5IDguNzgwNjYgNy42MDQwOCA4Ljg5ODY0WiIvPiYjeGE7PHBhdGggc3Ryb2tlLXdpZHRoPSIwLjc1IiBzdHJva2U9IiNGNEY0RjQiIGZpbGw9InVybCgjcGFpbnQyX2xpbmVhcl8zODkwXzIxNTM1KSIgZD0iTTkuNzYyODkgMTIuMDk4MkMxMC4yNTMgMTIuMTEwOCAxMC43MDMyIDExLjk3OSAxMS4xMDYgMTEuNzEyMkwxMi4yNjEyIDEyLjg2NzRDMTIuNDE2NyAxMy4wMjI5IDEyLjYxNzcgMTMuMTMzNSAxMi44NTg0IDEzLjEzMzVDMTMuMTAxNSAxMy4xMzM1IDEzLjMxMDcgMTMuMDMxOSAxMy40NzUyIDEyLjg2NzRDMTMuNjM5NiAxMi43MDMgMTMuNzQxMiAxMi40OTM4IDEzLjc0MTIgMTIuMjUwN0MxMy43NDEyIDEyLjAxMDUgMTMuNjMxMSAxMS44MDk4IDEzLjQ3NjEgMTEuNjU0NUwxMi4zMTMxIDEwLjQ3NTFDMTIuNTU3IDEwLjA4NjEgMTIuNjcxNCA5LjY1NDcxIDEyLjY0NzIgOS4xODg4QzEyLjYzMDIgOC41OTIxNiAxMi4zOTAxIDguMDY4NDcgMTEuOTUxNyA3LjYzMDFMMTEuNTAyNSA3LjE4MDg4QzExLjMzODEgNy4wMTY0NSAxMS4xMjg4IDYuOTE0NzkgMTAuODg1OCA2LjkxNDc5QzEwLjY0MjcgNi45MTQ3OSAxMC40MzM1IDcuMDE2NDUgMTAuMjY5MSA3LjE4MDg4TDguNDUxMTQgOC45OTg3OUw4LjE0NjM1IDkuMzAzNThMOC40OTAzOSA5LjU2MzI2QzguNjE1OCA5LjY1NzkzIDguNzI5MTYgOS43Njc5MyA4LjgyOTcyIDkuODkyMjlMOC44Mjk2OSA5Ljg5MjMyTDguODMzMiA5Ljg5NjU0QzguOTkxMiAxMC4wODYyIDkuMTExMDYgMTAuMzAxIDkuMTk1MzIgMTAuNTM1QzkuMjg0MDQgMTAuNzgxNSA5LjMyNTQ4IDExLjA0MDIgOS4zMjU0OCAxMS4zMDZDOS4zMjU0OCAxMS40MjU4IDkuMzE2ODQgMTEuNTQzOSA5LjI5OTQzIDExLjY2MDFMOS4yNDEwOSAxMi4wNDk3TDkuNjMzMDMgMTIuMDg4OEM5LjY3MjkgMTIuMDkyOCA5LjcxMjk5IDEyLjA5NTggOS43NTMzIDEyLjA5NzlMOS43NTMyOSAxMi4wOThMOS43NjI4OSAxMi4wOTgyWiIvPiYjeGE7PHBhdGggZmlsbD0idXJsKCNwYWludDNfbGluZWFyXzM4OTBfMjE1MzUpIiBkPSJNNC41MjY0NSAxMi43OTc3SDcuMzU0MTFDNy41NDA1NSAxMi43OTc3IDcuNzE2NjMgMTIuNzU5NyA3Ljg4MjM1IDEyLjY4MzdDOC4wNDgwOCAxMi42MDc4IDguMTg5NjMgMTIuNTA0MiA4LjMwNzAyIDEyLjM3M0M4LjQzMTMxIDEyLjIzNDkgOC41Mjc5OSAxMi4wNzYxIDguNTk3MDQgMTEuODk2NkM4LjY2NjA5IDExLjcxMDEgOC43MDA2MSAxMS41MTMzIDguNzAwNjEgMTEuMzA2MkM4LjcwMDYxIDExLjEwNTkgOC42Njk1NCAxMC45MTk1IDguNjA3NCAxMC43NDY4QzguNTQ1MjUgMTAuNTc0MiA4LjQ1ODkzIDEwLjQyMjMgOC4zNDg0NSAxMC4yOTExQzguMjM3OTcgMTAuMTUzIDguMTA2NzcgMTAuMDQyNSA3Ljk1NDg2IDkuOTU5NjZDNy44MDI5NSA5Ljg3NjggNy42NDA2NyA5LjgyODQ2IDcuNDY4MDUgOS44MTQ2NUM3LjMyOTk0IDkuNTEwODMgNy4xMzMxNSA5LjI2OTE1IDYuODc3NjYgOS4wODk2MUM2LjYyMjE3IDguOTEwMDggNi4zNDU5NiA4LjgyMDMxIDYuMDQ5MDQgOC44MjAzMUM1Ljg1NTY5IDguODIwMzEgNS42NjkyNSA4Ljg1ODI5IDUuNDg5NzIgOC45MzQyNUM1LjMxNzA5IDkuMDEwMiA1LjE2MTczIDkuMTEzNzggNS4wMjM2MiA5LjI0NDk4QzQuODg1NTIgOS4zNzYxOCA0Ljc3MTU5IDkuNTM1IDQuNjgxODIgOS43MjE0M0M0LjU5MjA1IDkuOTAwOTcgNC41Mjk5MSAxMC4wOTQzIDQuNDk1MzggMTAuMzAxNUM0LjM0MzQ3IDEwLjMwMTUgNC4xOTg0NiAxMC4zMzYgNC4wNjAzNiAxMC40MDVDMy45MjkxNiAxMC40NjcyIDMuODE1MjIgMTAuNTU3IDMuNzE4NTUgMTAuNjc0M0MzLjYyMTg4IDEwLjc4NDggMy41NDI0NyAxMC45MTYgMy40ODAzMiAxMS4wNjc5QzMuNDI1MDggMTEuMjE5OSAzLjM5NzQ2IDExLjM3ODcgMy4zOTc0NiAxMS41NDQ0QzMuMzk3NDYgMTEuNzE3IDMuNDI1MDggMTEuODc5MyAzLjQ4MDMyIDEyLjAzMTJDMy41NDI0NyAxMi4xODMxIDMuNjI1MzMgMTIuMzE3OCAzLjcyODkxIDEyLjQzNTJDMy44MzI0OSAxMi41NDU2IDMuOTUzMzMgMTIuNjM1NCA0LjA5MTQzIDEyLjcwNDVDNC4yMjk1MyAxMi43NjY2IDQuMzc0NTQgMTIuNzk3NyA0LjUyNjQ1IDEyLjc5NzdaIi8+JiN4YTs8L2c+JiN4YTs8ZGVmcz4mI3hhOzxsaW5lYXJHcmFkaWVudCBncmFkaWVudFVuaXRzPSJ1c2VyU3BhY2VPblVzZSIgeTI9IjE0Ljc0NTMiIHgyPSIxMy42ODU0IiB5MT0iMi4yNjg0NSIgeDE9IjEuNDQ4NDgiIGlkPSJwYWludDBfbGluZWFyXzM4OTBfMjE1MzUiPiYjeGE7PHN0b3Agc3RvcC1jb2xvcj0id2hpdGUiLz4mI3hhOzxzdG9wIHN0b3AtY29sb3I9IiNFQUVDRUUiIG9mZnNldD0iMSIvPiYjeGE7PC9saW5lYXJHcmFkaWVudD4mI3hhOzxsaW5lYXJHcmFkaWVudCBncmFkaWVudFVuaXRzPSJ1c2VyU3BhY2VPblVzZSIgeTI9IjcuNzgyMDIiIHgyPSI4LjM3MDU1IiB5MT0iMy42NzE4NyIgeDE9IjQuMjc3MSIgaWQ9InBhaW50MV9saW5lYXJfMzg5MF8yMTUzNSI+JiN4YTs8c3RvcCBzdG9wLWNvbG9yPSIjMDE5NUZGIi8+JiN4YTs8c3RvcCBzdG9wLWNvbG9yPSIjMTE0N0U5IiBvZmZzZXQ9IjAuOTkxMDI4Ii8+JiN4YTs8L2xpbmVhckdyYWRpZW50PiYjeGE7PGxpbmVhckdyYWRpZW50IGdyYWRpZW50VW5pdHM9InVzZXJTcGFjZU9uVXNlIiB5Mj0iMTEuMzIyNCIgeDI9IjEzLjE5MjkiIHkxPSI4LjEwNzYxIiB4MT0iOS40MTMzNSIgaWQ9InBhaW50Ml9saW5lYXJfMzg5MF8yMTUzNSI+JiN4YTs8c3RvcCBzdG9wLWNvbG9yPSIjMDE5NUZGIi8+JiN4YTs8c3RvcCBzdG9wLWNvbG9yPSIjMTE0N0U5IiBvZmZzZXQ9IjAuOTkxMDI4Ii8+JiN4YTs8L2xpbmVhckdyYWRpZW50PiYjeGE7PGxpbmVhckdyYWRpZW50IGdyYWRpZW50VW5pdHM9InVzZXJTcGFjZU9uVXNlIiB5Mj0iMTIuOTc5NCIgeDI9IjYuODUwNDgiIHkxPSI5LjQwNTQ3IiB4MT0iNC4xODE1IiBpZD0icGFpbnQzX2xpbmVhcl8zODkwXzIxNTM1Ij4mI3hhOzxzdG9wIHN0b3AtY29sb3I9IiMxMzQ4RkYiLz4mI3hhOzxzdG9wIHN0b3AtY29sb3I9IiMwNjIzOEQiIG9mZnNldD0iMSIvPiYjeGE7PC9saW5lYXJHcmFkaWVudD4mI3hhOzxjbGlwUGF0aCBpZD0iY2xpcDBfMzg5MF8yMTUzNSI+JiN4YTs8cmVjdCB0cmFuc2Zvcm09InRyYW5zbGF0ZSgzLjM5NzQ2IDIuNzk3NjEpIiBmaWxsPSJ3aGl0ZSIgaGVpZ2h0PSIxMCIgd2lkdGg9IjEwIi8+JiN4YTs8L2NsaXBQYXRoPiYjeGE7PC9kZWZzPiYjeGE7PC9zdmc+;points=[[0,0,0,0,0],[0,0.25,0,0,0],[0,0.5,0,0,0],[0,0.75,0,0,0],[0.25,0,0,0,0],[0.5,0,0,0,0],[0.75,0,0,0,0],[1,0,0,0,0],[1,0.25,0,0,0],[1,0.5,0,0,0],[1,0.75,0,0,0]];" vertex="1" parent="1">
          <mxGeometry x="-1423" y="-1370.3" width="32" height="32" as="geometry" />
        </mxCell>
      </root>
    </mxGraphModel>
  </diagram>
</mxfile>
